M48
;Layer_Color=9474304
;FILE_FORMAT=2:5
INCH,TZ
;TYPE=PLATED
T1F00S00C0.00787
T2F00S00C0.01181
T3F00S00C0.04000
T4F00S00C0.04291
T5F00S00C0.05118
T6F00S00C0.08661
T7F00S00C0.12598
T8F00S00C0.12835
;TYPE=NON_PLATED
T9F00S00C0.05000
%
T01
X168898Y51968
X266929
X468504Y113386
Y119685
Y122835
Y125984
Y129134
Y135433
Y138583
Y144882
Y148031
Y154331
Y160630
Y166929
Y173228
Y179528
Y198425
Y204724
Y211024
X266929Y201575
Y191732
Y181890
Y161811
Y151575
Y141732
Y122047
Y111811
Y101969
Y91732
Y81890
Y71653
Y61811
X168898
Y72047
Y81890
Y91732
Y101969
Y111811
Y121653
Y141732
Y151575
Y161811
Y181890
Y191732
Y201575
Y221654
Y231890
Y241732
Y261417
Y271654
Y281890
X266929
Y272047
Y261811
Y241732
Y231890
Y221654
X322047Y329921
X319685Y337795
X369685Y329921
X383465
X382677Y337795
X429528Y329921
X468504Y255118
Y248819
Y242520
Y236221
Y229921
Y223622
Y217323
T02
X617324Y116536
Y132284
Y141733
Y151182
Y157481
Y163780
Y170080
Y176379
Y182678
Y201576
Y207875
X468110Y207874
Y201575
X459449
X454724
Y207874
X459449
X446063
Y201575
Y182677
Y176378
Y170079
Y163779
Y157480
Y151181
X454724
X459449
Y157480
X454724
Y163779
X459449
Y170079
X454724
Y176378
X459449
Y182677
X454724
X468110
Y176378
Y170079
Y163779
Y157480
Y151181
Y141732
X459449
X454724
X446063
Y132283
X454724
X459449
X468110
Y116535
X459449
X454724
X446063
X267323Y130315
Y133465
Y170315
Y173465
Y210315
X228740Y210236
Y173386
Y170236
Y133386
Y130236
Y64173
Y59449
X140945Y65748
X118898
X117323Y130236
Y132992
Y170236
Y172992
Y210236
X169291
Y173386
Y170236
Y133386
Y130236
Y213386
Y250236
Y253386
Y290236
Y293386
Y310236
Y313386
Y330236
Y333386
X117323Y332992
Y330236
Y312992
Y310236
Y292992
Y290236
Y252992
Y250236
Y212992
X228740Y213386
Y250236
Y253386
Y290236
Y293386
Y299606
Y303937
Y310236
Y313386
Y319606
Y323937
Y330236
Y333386
X228741Y339607
Y343938
X267324Y343544
Y340394
X267323Y333465
Y330315
X267323Y323622
Y320394
X267323Y313465
Y310315
X267323Y303543
Y300394
X267323Y293465
Y290315
Y253465
Y250315
Y213465
X317559Y318110
X320315
X323071
X343202Y310799
Y307549
Y304299
Y301049
Y297799
X346702Y298799
Y302299
Y305799
Y308799
X348044Y314303
X363366Y346513
X361003Y348875
X363366Y351237
X365728Y348875
Y353599
X363366Y355961
X361003Y353599
Y358324
X363366Y360686
X365728Y358324
Y363048
X363366Y365410
X361003Y363048
Y367772
X365728
X331102Y367717
X328740Y365354
X331102Y362992
X328740Y360630
X331102Y358268
X328740Y355906
X331102Y353543
X328740Y351181
X331102Y348819
X328740Y346457
X326378Y348819
Y353543
Y358268
Y362992
Y367717
X386378
X388740Y365354
X391102Y367717
Y362992
X388740Y360630
X386378Y362992
Y358268
X388740Y355906
X391102Y358268
Y353543
X388740Y351181
X386378Y353543
Y348819
X388740Y346457
X391102Y348819
X421003Y348875
X423366Y351237
X421003Y353599
X423366Y355961
X421003Y358324
X423366Y360686
X421003Y363048
X423366Y365410
X421003Y367772
X425728
Y363048
Y358324
Y353599
Y348875
X423366Y346513
X408044Y314303
X406702Y308799
Y305799
Y302299
Y298799
X403202Y297799
Y301049
Y304299
Y307549
Y310799
X383071Y318110
X380315
X377559
X446063Y280315
Y277165
Y270866
Y264567
Y258268
Y251969
Y245669
Y239370
Y233071
Y226772
Y220472
Y214173
X454724
X459449
Y220472
X454724
Y226772
X459449
Y233071
X454724
Y239370
X459449
Y245669
X454724
Y251969
X459449
Y258268
X454724
Y264567
X459449
Y270866
X454724
Y277165
Y280315
X459449
Y277165
X468110
Y280315
Y270866
Y264567
Y258268
Y251969
Y245669
Y239370
Y233071
Y226772
Y220472
Y214173
X617324Y214174
Y220473
Y226772
Y233072
Y239371
Y245670
Y251969
Y258268
Y261418
Y264568
Y267717
Y270867
Y274016
X617323Y277165
Y280315
X425728Y372497
Y377221
X421003
X423366Y379584
Y374859
X421003Y372497
X423366Y370135
X391102Y372441
X388740Y370079
Y374803
X391102Y377165
X386378
Y372441
X388740Y379528
X365728Y377221
Y372497
X363366Y374859
X361003Y372497
X363366Y370135
Y379584
X361003Y377221
X331102Y377165
X328740Y374803
X331102Y372441
X328740Y370079
X326378Y372441
Y377165
X328740Y379528
T03
X335906Y275197
X345905
X355906
X316600Y352800
Y362800
X377000Y361800
Y351800
X444400Y354500
X454400
X464400
Y344500
X454400
X444400
X415748Y275197
X405748
X395748
X496693Y270472
X506693
X516693
Y253543
X506693
X496693
Y287402
X506693
X516693
X377000Y371800
X316600Y372800
T04
X63262Y109890
Y120760
Y131630
Y142500
Y153370
Y164240
Y175110
Y185980
Y196850
Y207720
X52081Y202285
Y191415
Y180545
Y169675
Y158805
Y147935
Y137065
Y126195
Y115325
X40900Y109890
Y120760
Y131630
Y142500
Y153370
Y164240
Y175110
Y185980
Y196850
Y207720
Y218591
Y229461
Y240331
Y251201
Y262071
Y272941
Y283811
X52081Y278376
Y267506
Y256636
Y245766
Y234896
Y224026
Y213156
X63262Y218591
Y229461
Y240331
Y251201
Y262071
Y272941
Y283811
T05
X487874Y321654
Y361653
X527874
X542992
X582992
Y321654
X542992
X527874
T06
X507874Y336614
X562992
T07
X19685Y19685
X610236
Y374016
X19685
T08
X52081Y76555
Y317146
T09
X457207Y107481
X451302Y286221
M30
