G04*
G04 #@! TF.GenerationSoftware,Altium Limited,Altium Designer,22.7.1 (60)*
G04*
G04 Layer_Physical_Order=4*
G04 Layer_Color=16711680*
%FSLAX25Y25*%
%MOIN*%
G70*
G04*
G04 #@! TF.SameCoordinates,4BD857A4-2174-4D58-8994-8F258671F681*
G04*
G04*
G04 #@! TF.FilePolarity,Positive*
G04*
G01*
G75*
%ADD12C,0.01968*%
%ADD17C,0.01000*%
%ADD20R,0.07874X0.01968*%
%ADD21R,0.07874X0.03937*%
%ADD36C,0.21654*%
%ADD37C,0.06653*%
%ADD38C,0.18740*%
%ADD39R,0.06653X0.06653*%
%ADD40C,0.07087*%
%ADD41C,0.15748*%
%ADD43C,0.00394*%
%ADD45C,0.00984*%
%ADD46C,0.06000*%
%ADD47C,0.01968*%
%ADD48C,0.02362*%
G36*
X628711Y391703D02*
X628711Y299734D01*
X615747Y299734D01*
X615708Y299726D01*
X615668Y299732D01*
X615369Y299717D01*
X615254Y299688D01*
X615135D01*
X614549Y299571D01*
X614403Y299511D01*
X614248Y299480D01*
X613696Y299252D01*
X613564Y299164D01*
X613418Y299103D01*
X612921Y298771D01*
X612810Y298659D01*
X612678Y298572D01*
X612256Y298149D01*
X612168Y298018D01*
X612056Y297906D01*
X611724Y297409D01*
X611663Y297263D01*
X611576Y297131D01*
X611347Y296579D01*
X611316Y296424D01*
X611256Y296278D01*
X611139Y295692D01*
Y295573D01*
X611110Y295458D01*
X611096Y295159D01*
X611107Y295080D01*
X611096Y295002D01*
X611110Y294703D01*
X611139Y294587D01*
Y294468D01*
X611256Y293882D01*
X611316Y293736D01*
X611347Y293581D01*
X611576Y293029D01*
X611663Y292898D01*
X611724Y292752D01*
X612056Y292255D01*
X612168Y292143D01*
X612256Y292011D01*
X612678Y291589D01*
X612810Y291501D01*
X612921Y291389D01*
X613418Y291057D01*
X613564Y290997D01*
X613696Y290909D01*
X614248Y290680D01*
X614403Y290650D01*
X614549Y290589D01*
X615135Y290473D01*
X615254D01*
X615369Y290444D01*
X615668Y290429D01*
X615708Y290435D01*
X615747Y290427D01*
X628711Y290427D01*
X628711Y1210D01*
X1210D01*
X1210Y391703D01*
X628711Y391703D01*
D02*
G37*
%LPC*%
G36*
X317100Y376769D02*
Y373300D01*
X320569D01*
X320497Y373844D01*
X320094Y374817D01*
X319453Y375653D01*
X318617Y376294D01*
X317644Y376697D01*
X317100Y376769D01*
D02*
G37*
G36*
X316100D02*
X315556Y376697D01*
X314583Y376294D01*
X313747Y375653D01*
X313106Y374817D01*
X312703Y373844D01*
X312631Y373300D01*
X316100D01*
Y376769D01*
D02*
G37*
G36*
X377500Y375769D02*
Y372300D01*
X380969D01*
X380897Y372844D01*
X380494Y373817D01*
X379853Y374653D01*
X379017Y375294D01*
X378044Y375697D01*
X377500Y375769D01*
D02*
G37*
G36*
X376500D02*
X375956Y375697D01*
X374983Y375294D01*
X374147Y374653D01*
X373506Y373817D01*
X373103Y372844D01*
X373031Y372300D01*
X376500D01*
Y375769D01*
D02*
G37*
G36*
X320569Y372300D02*
X317100D01*
Y368831D01*
X317644Y368903D01*
X318617Y369306D01*
X319453Y369947D01*
X320094Y370783D01*
X320497Y371756D01*
X320569Y372300D01*
D02*
G37*
G36*
X316100D02*
X312631D01*
X312703Y371756D01*
X313106Y370783D01*
X313747Y369947D01*
X314583Y369306D01*
X315556Y368903D01*
X316100Y368831D01*
Y372300D01*
D02*
G37*
G36*
X380969Y371300D02*
X377500D01*
Y367831D01*
X378044Y367903D01*
X379017Y368306D01*
X379853Y368947D01*
X380494Y369783D01*
X380897Y370756D01*
X380969Y371300D01*
D02*
G37*
G36*
X376500D02*
X373031D01*
X373103Y370756D01*
X373506Y369783D01*
X374147Y368947D01*
X374983Y368306D01*
X375956Y367903D01*
X376500Y367831D01*
Y371300D01*
D02*
G37*
G36*
X316600Y366620D02*
X315611Y366490D01*
X314690Y366108D01*
X313899Y365501D01*
X313292Y364710D01*
X312910Y363789D01*
X312780Y362800D01*
X312910Y361811D01*
X313292Y360890D01*
X313899Y360099D01*
X314690Y359492D01*
X315611Y359110D01*
X316600Y358980D01*
X317589Y359110D01*
X318510Y359492D01*
X319301Y360099D01*
X319908Y360890D01*
X320290Y361811D01*
X320420Y362800D01*
X320290Y363789D01*
X319908Y364710D01*
X319301Y365501D01*
X318510Y366108D01*
X317589Y366490D01*
X316600Y366620D01*
D02*
G37*
G36*
X377000Y365620D02*
X376011Y365490D01*
X375090Y365108D01*
X374299Y364501D01*
X373692Y363710D01*
X373310Y362789D01*
X373180Y361800D01*
X373310Y360811D01*
X373692Y359890D01*
X374299Y359099D01*
X375090Y358492D01*
X376011Y358110D01*
X377000Y357980D01*
X377989Y358110D01*
X378910Y358492D01*
X379701Y359099D01*
X380308Y359890D01*
X380690Y360811D01*
X380820Y361800D01*
X380690Y362789D01*
X380308Y363710D01*
X379701Y364501D01*
X378910Y365108D01*
X377989Y365490D01*
X377000Y365620D01*
D02*
G37*
G36*
X582992Y366022D02*
X581862Y365873D01*
X580808Y365436D01*
X579903Y364742D01*
X579209Y363838D01*
X578773Y362784D01*
X578624Y361653D01*
X578773Y360523D01*
X579209Y359470D01*
X579903Y358565D01*
X580808Y357871D01*
X581862Y357434D01*
X582992Y357285D01*
X584123Y357434D01*
X585176Y357871D01*
X586081Y358565D01*
X586775Y359470D01*
X587211Y360523D01*
X587360Y361653D01*
X587211Y362784D01*
X586775Y363838D01*
X586081Y364742D01*
X585176Y365436D01*
X584123Y365873D01*
X582992Y366022D01*
D02*
G37*
G36*
X542992D02*
X541862Y365873D01*
X540808Y365436D01*
X539903Y364742D01*
X539209Y363838D01*
X538773Y362784D01*
X538624Y361653D01*
X538773Y360523D01*
X539209Y359470D01*
X539903Y358565D01*
X540808Y357871D01*
X541862Y357434D01*
X542992Y357285D01*
X544123Y357434D01*
X545176Y357871D01*
X546081Y358565D01*
X546775Y359470D01*
X547211Y360523D01*
X547360Y361653D01*
X547211Y362784D01*
X546775Y363838D01*
X546081Y364742D01*
X545176Y365436D01*
X544123Y365873D01*
X542992Y366022D01*
D02*
G37*
G36*
X527874D02*
X526744Y365873D01*
X525690Y365436D01*
X524785Y364742D01*
X524091Y363838D01*
X523655Y362784D01*
X523506Y361653D01*
X523655Y360523D01*
X524091Y359470D01*
X524785Y358565D01*
X525690Y357871D01*
X526744Y357434D01*
X527874Y357285D01*
X529005Y357434D01*
X530058Y357871D01*
X530963Y358565D01*
X531657Y359470D01*
X532093Y360523D01*
X532242Y361653D01*
X532093Y362784D01*
X531657Y363838D01*
X530963Y364742D01*
X530058Y365436D01*
X529005Y365873D01*
X527874Y366022D01*
D02*
G37*
G36*
X487874D02*
X486743Y365873D01*
X485690Y365436D01*
X484785Y364742D01*
X484091Y363838D01*
X483655Y362784D01*
X483506Y361653D01*
X483655Y360523D01*
X484091Y359470D01*
X484785Y358565D01*
X485690Y357871D01*
X486743Y357434D01*
X487874Y357285D01*
X489005Y357434D01*
X490058Y357871D01*
X490963Y358565D01*
X491657Y359470D01*
X492093Y360523D01*
X492242Y361653D01*
X492093Y362784D01*
X491657Y363838D01*
X490963Y364742D01*
X490058Y365436D01*
X489005Y365873D01*
X487874Y366022D01*
D02*
G37*
G36*
X464900Y358469D02*
Y355000D01*
X468369D01*
X468297Y355544D01*
X467894Y356517D01*
X467253Y357353D01*
X466417Y357994D01*
X465444Y358397D01*
X464900Y358469D01*
D02*
G37*
G36*
X463900D02*
X463356Y358397D01*
X462383Y357994D01*
X461547Y357353D01*
X460906Y356517D01*
X460503Y355544D01*
X460431Y355000D01*
X463900D01*
Y358469D01*
D02*
G37*
G36*
X454900D02*
Y355000D01*
X458369D01*
X458297Y355544D01*
X457894Y356517D01*
X457253Y357353D01*
X456417Y357994D01*
X455444Y358397D01*
X454900Y358469D01*
D02*
G37*
G36*
X453900D02*
X453356Y358397D01*
X452383Y357994D01*
X451547Y357353D01*
X450906Y356517D01*
X450503Y355544D01*
X450431Y355000D01*
X453900D01*
Y358469D01*
D02*
G37*
G36*
X444900D02*
Y355000D01*
X448369D01*
X448297Y355544D01*
X447894Y356517D01*
X447253Y357353D01*
X446417Y357994D01*
X445444Y358397D01*
X444900Y358469D01*
D02*
G37*
G36*
X443900D02*
X443356Y358397D01*
X442383Y357994D01*
X441547Y357353D01*
X440906Y356517D01*
X440503Y355544D01*
X440431Y355000D01*
X443900D01*
Y358469D01*
D02*
G37*
G36*
X468369Y354000D02*
X464900D01*
Y350531D01*
X465444Y350603D01*
X466417Y351006D01*
X467253Y351647D01*
X467894Y352483D01*
X468297Y353456D01*
X468369Y354000D01*
D02*
G37*
G36*
X463900D02*
X460431D01*
X460503Y353456D01*
X460906Y352483D01*
X461547Y351647D01*
X462383Y351006D01*
X463356Y350603D01*
X463900Y350531D01*
Y354000D01*
D02*
G37*
G36*
X458369D02*
X454900D01*
Y350531D01*
X455444Y350603D01*
X456417Y351006D01*
X457253Y351647D01*
X457894Y352483D01*
X458297Y353456D01*
X458369Y354000D01*
D02*
G37*
G36*
X453900D02*
X450431D01*
X450503Y353456D01*
X450906Y352483D01*
X451547Y351647D01*
X452383Y351006D01*
X453356Y350603D01*
X453900Y350531D01*
Y354000D01*
D02*
G37*
G36*
X448369D02*
X444900D01*
Y350531D01*
X445444Y350603D01*
X446417Y351006D01*
X447253Y351647D01*
X447894Y352483D01*
X448297Y353456D01*
X448369Y354000D01*
D02*
G37*
G36*
X443900D02*
X440431D01*
X440503Y353456D01*
X440906Y352483D01*
X441547Y351647D01*
X442383Y351006D01*
X443356Y350603D01*
X443900Y350531D01*
Y354000D01*
D02*
G37*
G36*
X316600Y356620D02*
X315611Y356490D01*
X314690Y356108D01*
X313899Y355501D01*
X313292Y354710D01*
X312910Y353789D01*
X312780Y352800D01*
X312910Y351811D01*
X313292Y350890D01*
X313899Y350099D01*
X314690Y349492D01*
X315611Y349110D01*
X316600Y348980D01*
X317589Y349110D01*
X318510Y349492D01*
X319301Y350099D01*
X319908Y350890D01*
X320290Y351811D01*
X320420Y352800D01*
X320290Y353789D01*
X319908Y354710D01*
X319301Y355501D01*
X318510Y356108D01*
X317589Y356490D01*
X316600Y356620D01*
D02*
G37*
G36*
X377000Y355620D02*
X376011Y355490D01*
X375090Y355108D01*
X374299Y354501D01*
X373692Y353710D01*
X373310Y352789D01*
X373180Y351800D01*
X373310Y350811D01*
X373692Y349890D01*
X374299Y349099D01*
X375090Y348492D01*
X376011Y348110D01*
X377000Y347980D01*
X377989Y348110D01*
X378910Y348492D01*
X379701Y349099D01*
X380308Y349890D01*
X380690Y350811D01*
X380820Y351800D01*
X380690Y352789D01*
X380308Y353710D01*
X379701Y354501D01*
X378910Y355108D01*
X377989Y355490D01*
X377000Y355620D01*
D02*
G37*
G36*
X464400Y348320D02*
X463411Y348190D01*
X462490Y347808D01*
X461699Y347201D01*
X461092Y346410D01*
X460710Y345489D01*
X460580Y344500D01*
X460710Y343511D01*
X461092Y342590D01*
X461699Y341799D01*
X462490Y341192D01*
X463411Y340810D01*
X464400Y340680D01*
X465389Y340810D01*
X466310Y341192D01*
X467101Y341799D01*
X467708Y342590D01*
X468090Y343511D01*
X468220Y344500D01*
X468090Y345489D01*
X467708Y346410D01*
X467101Y347201D01*
X466310Y347808D01*
X465389Y348190D01*
X464400Y348320D01*
D02*
G37*
G36*
X454400D02*
X453411Y348190D01*
X452490Y347808D01*
X451699Y347201D01*
X451092Y346410D01*
X450710Y345489D01*
X450580Y344500D01*
X450710Y343511D01*
X451092Y342590D01*
X451699Y341799D01*
X452490Y341192D01*
X453411Y340810D01*
X454400Y340680D01*
X455389Y340810D01*
X456310Y341192D01*
X457101Y341799D01*
X457708Y342590D01*
X458090Y343511D01*
X458220Y344500D01*
X458090Y345489D01*
X457708Y346410D01*
X457101Y347201D01*
X456310Y347808D01*
X455389Y348190D01*
X454400Y348320D01*
D02*
G37*
G36*
X444400D02*
X443411Y348190D01*
X442490Y347808D01*
X441699Y347201D01*
X441092Y346410D01*
X440710Y345489D01*
X440580Y344500D01*
X440710Y343511D01*
X441092Y342590D01*
X441699Y341799D01*
X442490Y341192D01*
X443411Y340810D01*
X444400Y340680D01*
X445389Y340810D01*
X446310Y341192D01*
X447101Y341799D01*
X447708Y342590D01*
X448090Y343511D01*
X448220Y344500D01*
X448090Y345489D01*
X447708Y346410D01*
X447101Y347201D01*
X446310Y347808D01*
X445389Y348190D01*
X444400Y348320D01*
D02*
G37*
G36*
X508374Y345482D02*
Y337114D01*
X516742D01*
X516620Y338354D01*
X516112Y340026D01*
X515288Y341568D01*
X514179Y342919D01*
X512828Y344028D01*
X511286Y344852D01*
X509614Y345360D01*
X508374Y345482D01*
D02*
G37*
G36*
X507374Y345482D02*
X506134Y345360D01*
X504462Y344852D01*
X502920Y344028D01*
X501569Y342919D01*
X500460Y341568D01*
X499636Y340026D01*
X499128Y338354D01*
X499006Y337114D01*
X507374D01*
Y345482D01*
D02*
G37*
G36*
X429528Y331326D02*
X429063Y331234D01*
X383929D01*
X383465Y331326D01*
X382927Y331219D01*
X382471Y330915D01*
X382167Y330459D01*
X382060Y329921D01*
X382167Y329384D01*
X382471Y328928D01*
X382927Y328623D01*
X383465Y328516D01*
X383929Y328609D01*
X429063D01*
X429528Y328516D01*
X430065Y328623D01*
X430521Y328928D01*
X430826Y329384D01*
X430933Y329921D01*
X430826Y330459D01*
X430521Y330915D01*
X430065Y331219D01*
X429528Y331326D01*
D02*
G37*
G36*
X369685D02*
X369221Y331234D01*
X322511D01*
X322047Y331326D01*
X321510Y331219D01*
X321054Y330915D01*
X320749Y330459D01*
X320642Y329921D01*
X320749Y329384D01*
X321054Y328928D01*
X321510Y328623D01*
X322047Y328516D01*
X322511Y328609D01*
X369221D01*
X369685Y328516D01*
X370223Y328623D01*
X370678Y328928D01*
X370983Y329384D01*
X371090Y329921D01*
X370983Y330459D01*
X370678Y330915D01*
X370223Y331219D01*
X369685Y331326D01*
D02*
G37*
G36*
X562992Y345318D02*
X561294Y345150D01*
X559661Y344655D01*
X558157Y343851D01*
X556838Y342768D01*
X555756Y341449D01*
X554951Y339945D01*
X554456Y338312D01*
X554289Y336614D01*
X554456Y334916D01*
X554951Y333284D01*
X555756Y331779D01*
X556838Y330460D01*
X558157Y329378D01*
X559661Y328573D01*
X561294Y328078D01*
X562992Y327911D01*
X564690Y328078D01*
X566323Y328573D01*
X567827Y329378D01*
X569146Y330460D01*
X570229Y331779D01*
X571033Y333284D01*
X571528Y334916D01*
X571695Y336614D01*
X571528Y338312D01*
X571033Y339945D01*
X570229Y341449D01*
X569146Y342768D01*
X567827Y343851D01*
X566323Y344655D01*
X564690Y345150D01*
X562992Y345318D01*
D02*
G37*
G36*
X507374Y336114D02*
X499006D01*
X499128Y334875D01*
X499636Y333202D01*
X500460Y331660D01*
X501569Y330309D01*
X502920Y329200D01*
X504462Y328376D01*
X506134Y327869D01*
X507374Y327747D01*
Y336114D01*
D02*
G37*
G36*
X516742D02*
X508374D01*
Y327747D01*
X509614Y327869D01*
X511286Y328376D01*
X512828Y329200D01*
X514179Y330309D01*
X515288Y331660D01*
X516112Y333202D01*
X516620Y334875D01*
X516742Y336114D01*
D02*
G37*
G36*
X383071Y319716D02*
X382456Y319594D01*
X381936Y319246D01*
X381450D01*
X380929Y319594D01*
X380315Y319716D01*
X379700Y319594D01*
X379180Y319246D01*
X378694D01*
X378173Y319594D01*
X377559Y319716D01*
X376945Y319594D01*
X376424Y319246D01*
X376076Y318725D01*
X375953Y318110D01*
X376076Y317496D01*
X376424Y316975D01*
X376945Y316627D01*
X377559Y316505D01*
X378173Y316627D01*
X378694Y316975D01*
X379180D01*
X379700Y316627D01*
X380315Y316505D01*
X380929Y316627D01*
X381450Y316975D01*
X381936D01*
X382456Y316627D01*
X383071Y316505D01*
X383685Y316627D01*
X384206Y316975D01*
X384554Y317496D01*
X384677Y318110D01*
X384554Y318725D01*
X384206Y319246D01*
X383685Y319594D01*
X383071Y319716D01*
D02*
G37*
G36*
X323071D02*
X322456Y319594D01*
X321936Y319246D01*
X321450D01*
X320929Y319594D01*
X320315Y319716D01*
X319701Y319594D01*
X319180Y319246D01*
X318694D01*
X318174Y319594D01*
X317559Y319716D01*
X316945Y319594D01*
X316424Y319246D01*
X316076Y318725D01*
X315953Y318110D01*
X316076Y317496D01*
X316424Y316975D01*
X316945Y316627D01*
X317559Y316505D01*
X318174Y316627D01*
X318694Y316975D01*
X319180D01*
X319701Y316627D01*
X320315Y316505D01*
X320929Y316627D01*
X321450Y316975D01*
X321936D01*
X322456Y316627D01*
X323071Y316505D01*
X323685Y316627D01*
X324206Y316975D01*
X324554Y317496D01*
X324676Y318110D01*
X324554Y318725D01*
X324206Y319246D01*
X323685Y319594D01*
X323071Y319716D01*
D02*
G37*
G36*
X582992Y326022D02*
X581862Y325873D01*
X580808Y325436D01*
X579903Y324742D01*
X579209Y323838D01*
X578773Y322784D01*
X578624Y321654D01*
X578773Y320523D01*
X579209Y319469D01*
X579903Y318565D01*
X580808Y317871D01*
X581862Y317434D01*
X582992Y317285D01*
X584123Y317434D01*
X585176Y317871D01*
X586081Y318565D01*
X586775Y319469D01*
X587211Y320523D01*
X587360Y321654D01*
X587211Y322784D01*
X586775Y323838D01*
X586081Y324742D01*
X585176Y325436D01*
X584123Y325873D01*
X582992Y326022D01*
D02*
G37*
G36*
X542992D02*
X541862Y325873D01*
X540808Y325436D01*
X539903Y324742D01*
X539209Y323838D01*
X538773Y322784D01*
X538624Y321654D01*
X538773Y320523D01*
X539209Y319469D01*
X539903Y318565D01*
X540808Y317871D01*
X541862Y317434D01*
X542992Y317285D01*
X544123Y317434D01*
X545176Y317871D01*
X546081Y318565D01*
X546775Y319469D01*
X547211Y320523D01*
X547360Y321654D01*
X547211Y322784D01*
X546775Y323838D01*
X546081Y324742D01*
X545176Y325436D01*
X544123Y325873D01*
X542992Y326022D01*
D02*
G37*
G36*
X527874D02*
X526744Y325873D01*
X525690Y325436D01*
X524785Y324742D01*
X524091Y323838D01*
X523655Y322784D01*
X523506Y321654D01*
X523655Y320523D01*
X524091Y319469D01*
X524785Y318565D01*
X525690Y317871D01*
X526744Y317434D01*
X527874Y317285D01*
X529005Y317434D01*
X530058Y317871D01*
X530963Y318565D01*
X531657Y319469D01*
X532093Y320523D01*
X532242Y321654D01*
X532093Y322784D01*
X531657Y323838D01*
X530963Y324742D01*
X530058Y325436D01*
X529005Y325873D01*
X527874Y326022D01*
D02*
G37*
G36*
X487874D02*
X486743Y325873D01*
X485690Y325436D01*
X484785Y324742D01*
X484091Y323838D01*
X483655Y322784D01*
X483506Y321654D01*
X483655Y320523D01*
X484091Y319469D01*
X484785Y318565D01*
X485690Y317871D01*
X486743Y317434D01*
X487874Y317285D01*
X489005Y317434D01*
X490058Y317871D01*
X490963Y318565D01*
X491657Y319469D01*
X492093Y320523D01*
X492242Y321654D01*
X492093Y322784D01*
X491657Y323838D01*
X490963Y324742D01*
X490058Y325436D01*
X489005Y325873D01*
X487874Y326022D01*
D02*
G37*
G36*
X624804Y307679D02*
X615355D01*
Y302167D01*
X624804D01*
Y307679D01*
D02*
G37*
G36*
X67589Y288138D02*
X63762D01*
Y284311D01*
X67589D01*
Y288138D01*
D02*
G37*
G36*
X62762D02*
X58935D01*
Y284311D01*
X62762D01*
Y288138D01*
D02*
G37*
G36*
X516693Y291222D02*
X515704Y291091D01*
X514783Y290710D01*
X513992Y290103D01*
X513385Y289312D01*
X513003Y288390D01*
X512873Y287402D01*
X513003Y286413D01*
X513385Y285491D01*
X513992Y284700D01*
X514783Y284093D01*
X515704Y283712D01*
X516693Y283581D01*
X517682Y283712D01*
X518603Y284093D01*
X519394Y284700D01*
X520001Y285491D01*
X520383Y286413D01*
X520513Y287402D01*
X520383Y288390D01*
X520001Y289312D01*
X519394Y290103D01*
X518603Y290710D01*
X517682Y291091D01*
X516693Y291222D01*
D02*
G37*
G36*
X506693D02*
X505704Y291091D01*
X504783Y290710D01*
X503992Y290103D01*
X503385Y289312D01*
X503003Y288390D01*
X502873Y287402D01*
X503003Y286413D01*
X503385Y285491D01*
X503992Y284700D01*
X504783Y284093D01*
X505704Y283712D01*
X506693Y283581D01*
X507682Y283712D01*
X508603Y284093D01*
X509394Y284700D01*
X510001Y285491D01*
X510383Y286413D01*
X510513Y287402D01*
X510383Y288390D01*
X510001Y289312D01*
X509394Y290103D01*
X508603Y290710D01*
X507682Y291091D01*
X506693Y291222D01*
D02*
G37*
G36*
X451302Y289537D02*
X450443Y289424D01*
X449644Y289093D01*
X448957Y288566D01*
X448430Y287879D01*
X448099Y287079D01*
X447986Y286221D01*
X448099Y285363D01*
X448430Y284563D01*
X448957Y283877D01*
X449644Y283350D01*
X450443Y283018D01*
X451302Y282906D01*
X452160Y283018D01*
X452959Y283350D01*
X453646Y283877D01*
X454173Y284563D01*
X454504Y285363D01*
X454617Y286221D01*
X454504Y287079D01*
X454173Y287879D01*
X453646Y288566D01*
X452959Y289093D01*
X452160Y289424D01*
X451302Y289537D01*
D02*
G37*
G36*
X627172Y281701D02*
X623336D01*
Y280817D01*
X627172D01*
Y281701D01*
D02*
G37*
G36*
X622335D02*
X618498D01*
Y280817D01*
X622335D01*
Y281701D01*
D02*
G37*
G36*
X40900Y287961D02*
X39826Y287819D01*
X38825Y287405D01*
X37966Y286745D01*
X37306Y285886D01*
X36892Y284885D01*
X36750Y283811D01*
X36892Y282737D01*
X37306Y281736D01*
X37966Y280877D01*
X38825Y280217D01*
X39826Y279803D01*
X40900Y279661D01*
X41974Y279803D01*
X42975Y280217D01*
X43834Y280877D01*
X44494Y281736D01*
X44908Y282737D01*
X45050Y283811D01*
X44908Y284885D01*
X44494Y285886D01*
X43834Y286745D01*
X42975Y287405D01*
X41974Y287819D01*
X40900Y287961D01*
D02*
G37*
G36*
X67589Y283311D02*
X63762D01*
Y279484D01*
X67589D01*
Y283311D01*
D02*
G37*
G36*
X62762D02*
X58935D01*
Y279484D01*
X62762D01*
Y283311D01*
D02*
G37*
G36*
X627172Y279817D02*
X622835D01*
X618498D01*
Y279051D01*
X618498Y278932D01*
Y278551D01*
X618498Y278432D01*
Y277667D01*
X622835D01*
X627172D01*
Y278432D01*
X627173Y278551D01*
Y278932D01*
X627172Y279051D01*
Y279817D01*
D02*
G37*
G36*
Y276667D02*
X622835D01*
X618498D01*
Y275789D01*
X618111D01*
Y275667D01*
X617611Y275364D01*
X617324Y275422D01*
X616786Y275314D01*
X616330Y275010D01*
X616026Y274554D01*
X615919Y274016D01*
X616026Y273479D01*
X616330Y273023D01*
X616786Y272719D01*
X617324Y272612D01*
X617611Y272669D01*
X618111Y272362D01*
Y272246D01*
X618498D01*
Y271368D01*
X622835D01*
X627172D01*
Y272246D01*
X627560D01*
Y275789D01*
X627172D01*
Y276667D01*
D02*
G37*
G36*
X52081Y282526D02*
X51007Y282384D01*
X50006Y281970D01*
X49147Y281310D01*
X48487Y280451D01*
X48073Y279450D01*
X47931Y278376D01*
X48073Y277302D01*
X48487Y276301D01*
X49147Y275442D01*
X50006Y274782D01*
X51007Y274368D01*
X52081Y274226D01*
X53155Y274368D01*
X54156Y274782D01*
X55015Y275442D01*
X55675Y276301D01*
X56089Y277302D01*
X56231Y278376D01*
X56089Y279450D01*
X55675Y280451D01*
X55015Y281310D01*
X54156Y281970D01*
X53155Y282384D01*
X52081Y282526D01*
D02*
G37*
G36*
X63762Y277239D02*
Y273441D01*
X67560D01*
X67478Y274071D01*
X67042Y275123D01*
X66348Y276027D01*
X65444Y276720D01*
X64392Y277156D01*
X63762Y277239D01*
D02*
G37*
G36*
X62762D02*
X62133Y277156D01*
X61080Y276720D01*
X60176Y276027D01*
X59483Y275123D01*
X59047Y274071D01*
X58964Y273441D01*
X62762D01*
Y277239D01*
D02*
G37*
G36*
X627172Y270368D02*
X622835D01*
X618498D01*
Y269490D01*
X618111D01*
Y269369D01*
X617611Y269065D01*
X617324Y269122D01*
X616786Y269015D01*
X616330Y268711D01*
X616026Y268255D01*
X615919Y267717D01*
X616026Y267180D01*
X616330Y266724D01*
X616786Y266419D01*
X617324Y266312D01*
X617611Y266370D01*
X618111Y266064D01*
Y265947D01*
X618498D01*
Y265069D01*
X622835D01*
X627172D01*
Y265947D01*
X627560D01*
Y269490D01*
X627172D01*
Y270368D01*
D02*
G37*
G36*
X40900Y277091D02*
X39826Y276949D01*
X38825Y276535D01*
X37966Y275875D01*
X37306Y275016D01*
X36892Y274015D01*
X36750Y272941D01*
X36892Y271867D01*
X37306Y270866D01*
X37966Y270007D01*
X38825Y269347D01*
X39826Y268933D01*
X40900Y268791D01*
X41974Y268933D01*
X42975Y269347D01*
X43834Y270007D01*
X44494Y270866D01*
X44908Y271867D01*
X45050Y272941D01*
X44908Y274015D01*
X44494Y275016D01*
X43834Y275875D01*
X42975Y276535D01*
X41974Y276949D01*
X40900Y277091D01*
D02*
G37*
G36*
X67560Y272441D02*
X63762D01*
Y268643D01*
X64392Y268725D01*
X65444Y269162D01*
X66348Y269855D01*
X67042Y270759D01*
X67478Y271811D01*
X67560Y272441D01*
D02*
G37*
G36*
X62762D02*
X58964D01*
X59047Y271811D01*
X59483Y270759D01*
X60176Y269855D01*
X61080Y269162D01*
X62133Y268725D01*
X62762Y268643D01*
Y272441D01*
D02*
G37*
G36*
X52581Y271804D02*
Y268006D01*
X56379D01*
X56296Y268635D01*
X55861Y269688D01*
X55167Y270592D01*
X54263Y271285D01*
X53211Y271721D01*
X52581Y271804D01*
D02*
G37*
G36*
X51581D02*
X50952Y271721D01*
X49899Y271285D01*
X48995Y270592D01*
X48302Y269688D01*
X47866Y268635D01*
X47783Y268006D01*
X51581D01*
Y271804D01*
D02*
G37*
G36*
X228741Y345744D02*
X228050Y345607D01*
X227464Y345215D01*
X227072Y344629D01*
X226935Y343938D01*
Y343831D01*
X227072Y343140D01*
X227464Y342554D01*
X228245Y341772D01*
X227464Y340991D01*
X227072Y340405D01*
X226935Y339714D01*
Y339607D01*
X227072Y338916D01*
X227464Y338330D01*
X228050Y337938D01*
X228741Y337801D01*
X229432Y337938D01*
X230018Y338330D01*
X230233Y338651D01*
X231508Y339926D01*
X265811D01*
X265840Y339780D01*
X266188Y339259D01*
X266709Y338911D01*
X267324Y338789D01*
X267938Y338911D01*
X268459Y339259D01*
X268634Y339521D01*
X269240Y339616D01*
X269250Y339612D01*
X276540Y332323D01*
Y311024D01*
X276678Y310332D01*
X277069Y309746D01*
X318801Y268014D01*
X318932Y267927D01*
X319035Y267257D01*
X318957Y267161D01*
X316103D01*
X274641Y308622D01*
Y317717D01*
X274503Y318408D01*
X274112Y318994D01*
X269781Y323324D01*
X269195Y323716D01*
X268898Y323775D01*
X268806Y324236D01*
X268458Y324757D01*
X267937Y325106D01*
X267323Y325228D01*
X266708Y325106D01*
X266188Y324757D01*
X265839Y324236D01*
X265763Y323854D01*
X231485D01*
X230124Y325214D01*
X229538Y325606D01*
X228847Y325743D01*
X228740D01*
X228049Y325606D01*
X227463Y325214D01*
X227071Y324628D01*
X226934Y323937D01*
X227071Y323246D01*
X227463Y322660D01*
X227784Y322445D01*
X228351Y321878D01*
X227463Y320990D01*
X227071Y320404D01*
X226934Y319713D01*
Y319606D01*
X227071Y318915D01*
X227463Y318329D01*
X228049Y317937D01*
X228740Y317800D01*
X229431Y317937D01*
X230017Y318329D01*
X230232Y318650D01*
X231823Y320241D01*
X265748D01*
X265839Y319779D01*
X266188Y319258D01*
X266708Y318910D01*
X267323Y318788D01*
X267937Y318910D01*
X268458Y319258D01*
X268713Y319283D01*
X271028Y316968D01*
Y307874D01*
X271166Y307183D01*
X271557Y306597D01*
X314077Y264077D01*
X314207Y263990D01*
X314310Y263320D01*
X314233Y263224D01*
X310591D01*
X270569Y303246D01*
X269983Y303637D01*
X269291Y303775D01*
X269083D01*
X268992Y304235D01*
X268600Y304821D01*
X268014Y305212D01*
X267323Y305350D01*
X266632Y305212D01*
X266045Y304821D01*
X265654Y304235D01*
X265563Y303775D01*
X231457D01*
X230017Y305214D01*
X230017Y305214D01*
X229431Y305606D01*
X228740Y305743D01*
X228049Y305606D01*
X227463Y305214D01*
X227071Y304628D01*
X226934Y303937D01*
X227071Y303246D01*
X227463Y302660D01*
X228298Y301825D01*
X227463Y300990D01*
X227071Y300404D01*
X226934Y299713D01*
Y299606D01*
X227071Y298915D01*
X227463Y298329D01*
X228049Y297937D01*
X228740Y297800D01*
X229431Y297937D01*
X230017Y298329D01*
X230232Y298650D01*
X231744Y300162D01*
X265563D01*
X265654Y299702D01*
X266045Y299116D01*
X266632Y298725D01*
X267323Y298587D01*
X268014Y298725D01*
X268600Y299116D01*
X268713Y299285D01*
X269357Y299349D01*
X308565Y260140D01*
X309151Y259749D01*
X309842Y259611D01*
X481006D01*
X484034Y256584D01*
X483843Y256122D01*
X469482D01*
X469042Y256416D01*
X468504Y256523D01*
X468040Y256431D01*
X294245D01*
X268185Y282490D01*
X267923Y282883D01*
X267467Y283188D01*
X266929Y283295D01*
X266465Y283202D01*
X169362D01*
X168898Y283295D01*
X168433Y283202D01*
X83081D01*
X82579Y283102D01*
X82153Y282818D01*
X65098Y265763D01*
X64336Y266079D01*
X63262Y266220D01*
X62188Y266079D01*
X61187Y265665D01*
X60328Y265005D01*
X59668Y264146D01*
X59254Y263145D01*
X59113Y262071D01*
X59254Y260997D01*
X59668Y259996D01*
X60328Y259137D01*
X61187Y258477D01*
X62069Y258112D01*
X61970Y257612D01*
X60236D01*
X59734Y257512D01*
X59308Y257227D01*
X54673Y252592D01*
X54401Y252630D01*
X54295Y253149D01*
X55015Y253702D01*
X55675Y254561D01*
X56089Y255562D01*
X56231Y256636D01*
X56089Y257710D01*
X55675Y258711D01*
X55015Y259570D01*
X54156Y260230D01*
X53155Y260644D01*
X52081Y260786D01*
X51007Y260644D01*
X50006Y260230D01*
X49147Y259570D01*
X48487Y258711D01*
X48073Y257710D01*
X47931Y256636D01*
X48073Y255562D01*
X48487Y254561D01*
X49147Y253702D01*
X50006Y253042D01*
X50076Y253013D01*
X49976Y252513D01*
X44809D01*
X44494Y253276D01*
X43834Y254135D01*
X42975Y254795D01*
X41974Y255209D01*
X40900Y255350D01*
X39826Y255209D01*
X38825Y254795D01*
X37966Y254135D01*
X37306Y253276D01*
X36892Y252275D01*
X36750Y251201D01*
X36892Y250127D01*
X37306Y249126D01*
X37966Y248267D01*
X38825Y247607D01*
X39826Y247193D01*
X40900Y247051D01*
X41974Y247193D01*
X42975Y247607D01*
X43834Y248267D01*
X44494Y249126D01*
X44809Y249888D01*
X49976D01*
X50076Y249388D01*
X50006Y249359D01*
X49147Y248700D01*
X48487Y247841D01*
X48073Y246840D01*
X47931Y245766D01*
X48073Y244692D01*
X48487Y243691D01*
X49147Y242831D01*
X50006Y242172D01*
X51007Y241757D01*
X52081Y241616D01*
X53155Y241757D01*
X54156Y242172D01*
X55015Y242831D01*
X55675Y243691D01*
X55990Y244453D01*
X60706D01*
X60875Y243953D01*
X60176Y243417D01*
X59483Y242513D01*
X59047Y241460D01*
X58964Y240831D01*
X67560D01*
X67478Y241460D01*
X67042Y242513D01*
X66348Y243417D01*
X65649Y243953D01*
X65819Y244453D01*
X67813D01*
X68315Y244553D01*
X68741Y244838D01*
X84008Y260105D01*
X168433D01*
X168898Y260012D01*
X169362Y260105D01*
X266380D01*
X266713Y260171D01*
X285292Y241592D01*
X285718Y241307D01*
X286221Y241207D01*
X468040D01*
X468504Y241115D01*
X469042Y241222D01*
X469482Y241516D01*
X618111D01*
Y240750D01*
X618498D01*
Y239872D01*
X622835D01*
X627172D01*
Y240750D01*
X627560D01*
Y244293D01*
X627172D01*
Y245171D01*
X622835D01*
X618498D01*
Y244293D01*
X618111D01*
Y243523D01*
X469482D01*
X469042Y243818D01*
X468504Y243925D01*
X468040Y243832D01*
X286764D01*
X268185Y262411D01*
X267923Y262805D01*
X267467Y263109D01*
X266929Y263216D01*
X266391Y263109D01*
X265936Y262805D01*
X265930Y262795D01*
X265845Y262739D01*
X265836Y262730D01*
X169362D01*
X168898Y262822D01*
X168433Y262730D01*
X83465D01*
X82962Y262630D01*
X82536Y262346D01*
X67269Y247078D01*
X65367D01*
X65268Y247578D01*
X65337Y247607D01*
X66197Y248267D01*
X66856Y249126D01*
X67270Y250127D01*
X67412Y251201D01*
X67270Y252275D01*
X66856Y253276D01*
X66197Y254135D01*
X65579Y254609D01*
X65557Y254699D01*
X65626Y255195D01*
X65889Y255371D01*
X80859Y270341D01*
X168433D01*
X168898Y270249D01*
X169362Y270341D01*
X266380D01*
X266713Y270407D01*
X289229Y247891D01*
X289655Y247606D01*
X290158Y247506D01*
X468040D01*
X468504Y247414D01*
X469042Y247521D01*
X469482Y247815D01*
X618111D01*
Y247049D01*
X618498D01*
Y246171D01*
X622835D01*
X627172D01*
Y247049D01*
X627560D01*
Y250592D01*
X627172D01*
Y251470D01*
X622835D01*
X618498D01*
Y250592D01*
X618111D01*
Y249822D01*
X522761D01*
X522570Y250284D01*
X526402Y254116D01*
X618111D01*
Y253348D01*
X618498D01*
Y252470D01*
X622835D01*
X627172D01*
Y253348D01*
X627560D01*
Y256891D01*
X627172D01*
Y257769D01*
X622835D01*
X618498D01*
Y256891D01*
X618111D01*
Y256123D01*
X525986D01*
X525602Y256047D01*
X525276Y255829D01*
X520289Y250842D01*
X520051Y250876D01*
X519832Y251413D01*
X520001Y251633D01*
X520383Y252555D01*
X520513Y253543D01*
X520383Y254532D01*
X520001Y255453D01*
X519394Y256244D01*
X518603Y256852D01*
X517682Y257233D01*
X516693Y257363D01*
X515704Y257233D01*
X514783Y256852D01*
X513992Y256244D01*
X513385Y255453D01*
X513003Y254532D01*
X512873Y253543D01*
X513003Y252555D01*
X513385Y251633D01*
X513786Y251110D01*
X513540Y250610D01*
X509846D01*
X509599Y251110D01*
X510001Y251633D01*
X510383Y252555D01*
X510513Y253543D01*
X510383Y254532D01*
X510001Y255453D01*
X509394Y256244D01*
X508603Y256852D01*
X507682Y257233D01*
X506693Y257363D01*
X505704Y257233D01*
X504783Y256852D01*
X503992Y256244D01*
X503385Y255453D01*
X503003Y254532D01*
X502873Y253543D01*
X503003Y252555D01*
X503385Y251633D01*
X503786Y251110D01*
X503540Y250610D01*
X499846D01*
X499600Y251110D01*
X500001Y251633D01*
X500383Y252555D01*
X500513Y253543D01*
X500383Y254532D01*
X500001Y255453D01*
X499394Y256244D01*
X498603Y256852D01*
X497682Y257233D01*
X496693Y257363D01*
X495704Y257233D01*
X494783Y256852D01*
X493992Y256244D01*
X493385Y255453D01*
X493342Y255350D01*
X490377D01*
X483032Y262695D01*
X482446Y263086D01*
X481755Y263224D01*
X436923D01*
X436846Y263320D01*
X436949Y263990D01*
X437079Y264077D01*
X438912Y265910D01*
X479888D01*
X480579Y266048D01*
X481165Y266439D01*
X483392Y268666D01*
X493342D01*
X493385Y268562D01*
X493992Y267771D01*
X494783Y267164D01*
X495704Y266782D01*
X496693Y266652D01*
X497682Y266782D01*
X498603Y267164D01*
X499394Y267771D01*
X500001Y268562D01*
X500383Y269484D01*
X500513Y270472D01*
X500383Y271461D01*
X500001Y272382D01*
X499394Y273174D01*
X498603Y273781D01*
X497682Y274162D01*
X496693Y274292D01*
X495704Y274162D01*
X494783Y273781D01*
X493992Y273174D01*
X493385Y272382D01*
X493342Y272279D01*
X484796D01*
X484644Y272609D01*
X484625Y272779D01*
X495601Y283755D01*
X495704Y283712D01*
X496693Y283581D01*
X497682Y283712D01*
X498603Y284093D01*
X499394Y284700D01*
X500001Y285491D01*
X500383Y286413D01*
X500513Y287402D01*
X500383Y288390D01*
X500001Y289312D01*
X499394Y290103D01*
X498603Y290710D01*
X497682Y291091D01*
X496693Y291222D01*
X495704Y291091D01*
X494783Y290710D01*
X493992Y290103D01*
X493385Y289312D01*
X493003Y288390D01*
X492873Y287402D01*
X493003Y286413D01*
X493046Y286309D01*
X482559Y275822D01*
X437402D01*
X436710Y275685D01*
X436124Y275293D01*
X431929Y271098D01*
X417055D01*
X416956Y271598D01*
X417658Y271889D01*
X418449Y272496D01*
X419056Y273287D01*
X419438Y274208D01*
X419568Y275197D01*
X419438Y276186D01*
X419056Y277107D01*
X418449Y277898D01*
X417658Y278505D01*
X416737Y278887D01*
X415748Y279017D01*
X414759Y278887D01*
X413838Y278505D01*
X413047Y277898D01*
X412440Y277107D01*
X412058Y276186D01*
X411928Y275197D01*
X412058Y274208D01*
X412440Y273287D01*
X413047Y272496D01*
X413838Y271889D01*
X414540Y271598D01*
X414441Y271098D01*
X407055D01*
X406956Y271598D01*
X407658Y271889D01*
X408449Y272496D01*
X409056Y273287D01*
X409438Y274208D01*
X409568Y275197D01*
X409438Y276186D01*
X409056Y277107D01*
X408449Y277898D01*
X407658Y278505D01*
X406737Y278887D01*
X405748Y279017D01*
X404759Y278887D01*
X403838Y278505D01*
X403047Y277898D01*
X402440Y277107D01*
X402058Y276186D01*
X401928Y275197D01*
X402058Y274208D01*
X402440Y273287D01*
X403047Y272496D01*
X403838Y271889D01*
X404540Y271598D01*
X404441Y271098D01*
X397055D01*
X396956Y271598D01*
X397658Y271889D01*
X398449Y272496D01*
X399056Y273287D01*
X399438Y274208D01*
X399568Y275197D01*
X399438Y276186D01*
X399056Y277107D01*
X398449Y277898D01*
X397658Y278505D01*
X396737Y278887D01*
X395748Y279017D01*
X394759Y278887D01*
X393838Y278505D01*
X393047Y277898D01*
X392440Y277107D01*
X392058Y276186D01*
X391928Y275197D01*
X392058Y274208D01*
X392440Y273287D01*
X393047Y272496D01*
X393838Y271889D01*
X394540Y271598D01*
X394441Y271098D01*
X357213Y271098D01*
X357113Y271598D01*
X357816Y271889D01*
X358607Y272496D01*
X359214Y273287D01*
X359595Y274208D01*
X359726Y275197D01*
X359595Y276186D01*
X359214Y277107D01*
X358607Y277898D01*
X357816Y278505D01*
X356894Y278887D01*
X355906Y279017D01*
X354917Y278887D01*
X353995Y278505D01*
X353204Y277898D01*
X352597Y277107D01*
X352216Y276186D01*
X352085Y275197D01*
X352216Y274208D01*
X352597Y273287D01*
X353204Y272496D01*
X353995Y271889D01*
X354698Y271598D01*
X354598Y271098D01*
X347213D01*
X347113Y271598D01*
X347815Y271889D01*
X348607Y272496D01*
X349214Y273287D01*
X349595Y274208D01*
X349726Y275197D01*
X349595Y276186D01*
X349214Y277107D01*
X348607Y277898D01*
X347815Y278505D01*
X346894Y278887D01*
X345905Y279017D01*
X344917Y278887D01*
X343995Y278505D01*
X343204Y277898D01*
X342597Y277107D01*
X342216Y276186D01*
X342085Y275197D01*
X342216Y274208D01*
X342597Y273287D01*
X343204Y272496D01*
X343995Y271889D01*
X344698Y271598D01*
X344598Y271098D01*
X337213D01*
X337113Y271598D01*
X337815Y271889D01*
X338607Y272496D01*
X339214Y273287D01*
X339595Y274208D01*
X339726Y275197D01*
X339595Y276186D01*
X339214Y277107D01*
X338607Y277898D01*
X337815Y278505D01*
X336894Y278887D01*
X335906Y279017D01*
X334917Y278887D01*
X333996Y278505D01*
X333204Y277898D01*
X332597Y277107D01*
X332216Y276186D01*
X332085Y275197D01*
X332216Y274208D01*
X332597Y273287D01*
X333204Y272496D01*
X333996Y271889D01*
X334698Y271598D01*
X334598Y271098D01*
X320827D01*
X280153Y311772D01*
Y333071D01*
X280015Y333762D01*
X279624Y334348D01*
X270962Y343010D01*
X270376Y343401D01*
X269685Y343539D01*
X268934D01*
X268929Y343544D01*
X268807Y344159D01*
X268459Y344679D01*
X267938Y345027D01*
X267324Y345150D01*
X266709Y345027D01*
X266188Y344679D01*
X265840Y344159D01*
X265718Y343544D01*
X265714Y343539D01*
X231588D01*
X230233Y344894D01*
X230018Y345215D01*
X229432Y345607D01*
X228741Y345744D01*
D02*
G37*
G36*
X516693Y274292D02*
X515704Y274162D01*
X514783Y273781D01*
X513992Y273174D01*
X513385Y272382D01*
X513003Y271461D01*
X512873Y270472D01*
X513003Y269484D01*
X513385Y268562D01*
X513992Y267771D01*
X514783Y267164D01*
X515704Y266782D01*
X516693Y266652D01*
X517682Y266782D01*
X518603Y267164D01*
X519394Y267771D01*
X520001Y268562D01*
X520383Y269484D01*
X520513Y270472D01*
X520383Y271461D01*
X520001Y272382D01*
X519394Y273174D01*
X518603Y273781D01*
X517682Y274162D01*
X516693Y274292D01*
D02*
G37*
G36*
X506693D02*
X505704Y274162D01*
X504783Y273781D01*
X503992Y273174D01*
X503385Y272382D01*
X503003Y271461D01*
X502873Y270472D01*
X503003Y269484D01*
X503385Y268562D01*
X503992Y267771D01*
X504783Y267164D01*
X505704Y266782D01*
X506693Y266652D01*
X507682Y266782D01*
X508603Y267164D01*
X509394Y267771D01*
X510001Y268562D01*
X510383Y269484D01*
X510513Y270472D01*
X510383Y271461D01*
X510001Y272382D01*
X509394Y273174D01*
X508603Y273781D01*
X507682Y274162D01*
X506693Y274292D01*
D02*
G37*
G36*
X56379Y267006D02*
X52581D01*
Y263208D01*
X53211Y263291D01*
X54263Y263726D01*
X55167Y264420D01*
X55861Y265324D01*
X56296Y266376D01*
X56379Y267006D01*
D02*
G37*
G36*
X51581D02*
X47783D01*
X47866Y266376D01*
X48302Y265324D01*
X48995Y264420D01*
X49899Y263726D01*
X50952Y263291D01*
X51581Y263208D01*
Y267006D01*
D02*
G37*
G36*
X627172Y264069D02*
X622835D01*
X618498D01*
Y263191D01*
X618111D01*
Y263069D01*
X617611Y262766D01*
X617324Y262823D01*
X616786Y262716D01*
X616330Y262412D01*
X616026Y261956D01*
X615919Y261418D01*
X616026Y260880D01*
X616330Y260425D01*
X616786Y260120D01*
X617324Y260013D01*
X617611Y260070D01*
X618111Y259765D01*
Y259647D01*
X618498D01*
Y258769D01*
X622835D01*
X627172D01*
Y259647D01*
X627560D01*
Y263191D01*
X627172D01*
Y264069D01*
D02*
G37*
G36*
X40900Y266220D02*
X39826Y266079D01*
X38825Y265665D01*
X37966Y265005D01*
X37306Y264146D01*
X36892Y263145D01*
X36750Y262071D01*
X36892Y260997D01*
X37306Y259996D01*
X37966Y259137D01*
X38825Y258477D01*
X39826Y258063D01*
X40900Y257921D01*
X41974Y258063D01*
X42975Y258477D01*
X43834Y259137D01*
X44494Y259996D01*
X44908Y260997D01*
X45050Y262071D01*
X44908Y263145D01*
X44494Y264146D01*
X43834Y265005D01*
X42975Y265665D01*
X41974Y266079D01*
X40900Y266220D01*
D02*
G37*
G36*
X266929Y243137D02*
X266465Y243045D01*
X169362D01*
X168898Y243137D01*
X168433Y243045D01*
X75984D01*
X75482Y242945D01*
X75056Y242660D01*
X68604Y236208D01*
X65819D01*
X65649Y236708D01*
X66348Y237245D01*
X67042Y238149D01*
X67478Y239201D01*
X67560Y239831D01*
X58964D01*
X59047Y239201D01*
X59483Y238149D01*
X60176Y237245D01*
X60875Y236708D01*
X60706Y236208D01*
X55990D01*
X55675Y236970D01*
X55015Y237830D01*
X54156Y238489D01*
X53155Y238904D01*
X52081Y239045D01*
X51007Y238904D01*
X50006Y238489D01*
X49147Y237830D01*
X48487Y236970D01*
X48073Y235970D01*
X47931Y234896D01*
X48073Y233822D01*
X48487Y232821D01*
X49147Y231961D01*
X50006Y231302D01*
X51007Y230887D01*
X52081Y230746D01*
X53155Y230887D01*
X54156Y231302D01*
X55015Y231961D01*
X55675Y232821D01*
X55990Y233583D01*
X61157D01*
X61257Y233083D01*
X61187Y233054D01*
X60328Y232395D01*
X59668Y231536D01*
X59254Y230535D01*
X59113Y229461D01*
X59254Y228387D01*
X59668Y227386D01*
X60328Y226526D01*
X61187Y225867D01*
X62188Y225452D01*
X62323Y225435D01*
X62290Y224935D01*
X59842D01*
X59340Y224835D01*
X58914Y224550D01*
X56146Y221782D01*
X55722Y222065D01*
X56089Y222952D01*
X56231Y224026D01*
X56089Y225100D01*
X55675Y226100D01*
X55015Y226960D01*
X54156Y227619D01*
X53155Y228034D01*
X52081Y228175D01*
X51007Y228034D01*
X50006Y227619D01*
X49147Y226960D01*
X48487Y226100D01*
X48073Y225100D01*
X47931Y224026D01*
X48073Y222952D01*
X48487Y221951D01*
X49147Y221091D01*
X50006Y220432D01*
X50076Y220403D01*
X49976Y219903D01*
X44809D01*
X44494Y220665D01*
X43834Y221525D01*
X42975Y222184D01*
X41974Y222599D01*
X40900Y222740D01*
X39826Y222599D01*
X38825Y222184D01*
X37966Y221525D01*
X37306Y220665D01*
X36892Y219665D01*
X36750Y218591D01*
X36892Y217517D01*
X37306Y216516D01*
X37966Y215656D01*
X38825Y214997D01*
X39826Y214582D01*
X40900Y214441D01*
X41974Y214582D01*
X42975Y214997D01*
X43834Y215656D01*
X44494Y216516D01*
X44809Y217278D01*
X49525D01*
X49694Y216778D01*
X48995Y216241D01*
X48302Y215338D01*
X47866Y214285D01*
X47783Y213655D01*
X56379D01*
X56296Y214285D01*
X55861Y215338D01*
X55167Y216241D01*
X54468Y216778D01*
X54637Y217278D01*
X54811D01*
X55313Y217378D01*
X55739Y217662D01*
X60099Y222022D01*
X60141Y222012D01*
X60250Y221728D01*
X60282Y221466D01*
X59668Y220665D01*
X59254Y219665D01*
X59113Y218591D01*
X59254Y217517D01*
X59668Y216516D01*
X60328Y215656D01*
X61187Y214997D01*
X61651Y214805D01*
X61552Y214305D01*
X59842D01*
X59340Y214205D01*
X58914Y213920D01*
X56709Y211715D01*
X56285Y211998D01*
X56296Y212026D01*
X56379Y212655D01*
X47783D01*
X47866Y212026D01*
X48302Y210974D01*
X48995Y210070D01*
X49694Y209533D01*
X49525Y209033D01*
X44809D01*
X44494Y209795D01*
X43834Y210655D01*
X42975Y211314D01*
X41974Y211729D01*
X40900Y211870D01*
X39826Y211729D01*
X38825Y211314D01*
X37966Y210655D01*
X37306Y209795D01*
X36892Y208794D01*
X36750Y207720D01*
X36892Y206646D01*
X37306Y205646D01*
X37966Y204786D01*
X38825Y204127D01*
X39826Y203712D01*
X40900Y203571D01*
X41974Y203712D01*
X42975Y204127D01*
X43834Y204786D01*
X44494Y205646D01*
X44809Y206408D01*
X49976D01*
X50076Y205908D01*
X50006Y205879D01*
X49147Y205220D01*
X48487Y204360D01*
X48073Y203359D01*
X47931Y202285D01*
X48073Y201211D01*
X48487Y200211D01*
X49147Y199351D01*
X50006Y198692D01*
X51007Y198277D01*
X52081Y198136D01*
X53155Y198277D01*
X54156Y198692D01*
X55015Y199351D01*
X55675Y200211D01*
X55990Y200973D01*
X61157D01*
X61257Y200473D01*
X61187Y200444D01*
X60328Y199785D01*
X59668Y198925D01*
X59254Y197924D01*
X59113Y196850D01*
X59254Y195776D01*
X59668Y194776D01*
X60328Y193916D01*
X61187Y193257D01*
X62188Y192842D01*
X63262Y192701D01*
X64336Y192842D01*
X65098Y193158D01*
X77295Y180962D01*
X77720Y180677D01*
X78223Y180577D01*
X168433D01*
X168898Y180485D01*
X169362Y180577D01*
X266465D01*
X266929Y180485D01*
X267393Y180577D01*
X356299D01*
X356802Y180677D01*
X357227Y180962D01*
X379678Y203412D01*
X468040D01*
X468504Y203320D01*
X469042Y203426D01*
X469482Y203721D01*
X618111D01*
Y202954D01*
X618498D01*
Y202076D01*
X622835D01*
X627172D01*
Y202954D01*
X627560D01*
Y206498D01*
X627172D01*
Y207376D01*
X622835D01*
X618498D01*
Y206498D01*
X618111D01*
Y205728D01*
X469482D01*
X469042Y206022D01*
X468504Y206129D01*
X468040Y206037D01*
X379134D01*
X378631Y205937D01*
X378206Y205653D01*
X355755Y183202D01*
X267393D01*
X266929Y183295D01*
X266465Y183202D01*
X169362D01*
X168898Y183295D01*
X168433Y183202D01*
X78767D01*
X66955Y195014D01*
X67270Y195776D01*
X67412Y196850D01*
X67270Y197924D01*
X66856Y198925D01*
X66197Y199785D01*
X65337Y200444D01*
X65268Y200473D01*
X65367Y200973D01*
X68431D01*
X78599Y190804D01*
X79025Y190520D01*
X79528Y190420D01*
X168433D01*
X168898Y190327D01*
X169362Y190420D01*
X266465D01*
X266929Y190327D01*
X267393Y190420D01*
X358071D01*
X358573Y190520D01*
X358999Y190804D01*
X377906Y209711D01*
X468040D01*
X468504Y209619D01*
X469042Y209726D01*
X469482Y210020D01*
X618111D01*
Y209254D01*
X618498D01*
Y208376D01*
X622835D01*
X627172D01*
Y209254D01*
X627560D01*
Y212797D01*
X627172D01*
Y213675D01*
X622835D01*
X618498D01*
Y212797D01*
X618111D01*
Y212027D01*
X469482D01*
X469042Y212322D01*
X468504Y212429D01*
X468040Y212336D01*
X377362D01*
X376860Y212236D01*
X376434Y211952D01*
X357527Y193045D01*
X267393D01*
X266929Y193137D01*
X266465Y193045D01*
X169362D01*
X168898Y193137D01*
X168433Y193045D01*
X80071D01*
X69903Y203214D01*
X69477Y203498D01*
X68974Y203598D01*
X65367D01*
X65268Y204098D01*
X65337Y204127D01*
X66197Y204786D01*
X66856Y205646D01*
X67270Y206646D01*
X67412Y207720D01*
X67270Y208794D01*
X66856Y209795D01*
X66197Y210655D01*
X65513Y211179D01*
X65682Y211680D01*
X67173D01*
X78206Y200647D01*
X78632Y200362D01*
X79134Y200262D01*
X168433D01*
X168898Y200170D01*
X169362Y200262D01*
X266465D01*
X266929Y200170D01*
X267393Y200262D01*
X359842D01*
X360345Y200362D01*
X360771Y200647D01*
X376134Y216010D01*
X468040D01*
X468504Y215918D01*
X469042Y216025D01*
X469482Y216319D01*
X618111D01*
Y215553D01*
X618498D01*
Y214675D01*
X622835D01*
X627172D01*
Y215553D01*
X627560D01*
Y219096D01*
X627172D01*
Y219974D01*
X622835D01*
X618498D01*
Y219096D01*
X618111D01*
Y218326D01*
X469482D01*
X469042Y218621D01*
X468504Y218728D01*
X468040Y218635D01*
X375590D01*
X375088Y218535D01*
X374662Y218251D01*
X359299Y202887D01*
X267393D01*
X266929Y202980D01*
X266465Y202887D01*
X169362D01*
X168898Y202980D01*
X168433Y202887D01*
X79678D01*
X68645Y213920D01*
X68219Y214205D01*
X67716Y214305D01*
X64973D01*
X64873Y214805D01*
X65337Y214997D01*
X66197Y215656D01*
X66856Y216516D01*
X67270Y217517D01*
X67412Y218591D01*
X67270Y219665D01*
X66856Y220665D01*
X66197Y221525D01*
X65826Y221809D01*
X65995Y222309D01*
X67567D01*
X69151Y220725D01*
X69576Y220441D01*
X70079Y220341D01*
X168433D01*
X168898Y220249D01*
X169362Y220341D01*
X266465D01*
X266929Y220249D01*
X267467Y220356D01*
X267923Y220660D01*
X268185Y221054D01*
X269441Y222309D01*
X468040D01*
X468504Y222217D01*
X469042Y222324D01*
X469482Y222619D01*
X618111D01*
Y221852D01*
X618498D01*
Y220974D01*
X622835D01*
X627172D01*
Y221852D01*
X627560D01*
Y225395D01*
X627172D01*
Y226273D01*
X622835D01*
X618498D01*
Y225395D01*
X618111D01*
Y224626D01*
X469482D01*
X469042Y224920D01*
X468504Y225027D01*
X468040Y224935D01*
X268898D01*
X268395Y224835D01*
X267969Y224550D01*
X266385Y222966D01*
X169362D01*
X168898Y223059D01*
X168433Y222966D01*
X70622D01*
X69038Y224550D01*
X68613Y224835D01*
X68110Y224935D01*
X64235D01*
X64202Y225435D01*
X64336Y225452D01*
X65337Y225867D01*
X66197Y226526D01*
X66856Y227386D01*
X67270Y228387D01*
X67412Y229461D01*
X67331Y230077D01*
X67769Y230577D01*
X168433D01*
X168898Y230485D01*
X169362Y230577D01*
X266385D01*
X267969Y228993D01*
X268395Y228709D01*
X268898Y228609D01*
X468040D01*
X468504Y228516D01*
X469042Y228623D01*
X469482Y228918D01*
X618111D01*
Y228151D01*
X618498D01*
Y227273D01*
X622835D01*
X627172D01*
Y228151D01*
X627560D01*
Y231695D01*
X627172D01*
Y232572D01*
X622835D01*
X618498D01*
Y231695D01*
X618111D01*
Y230925D01*
X469482D01*
X469042Y231219D01*
X468504Y231326D01*
X468040Y231234D01*
X269441D01*
X268185Y232490D01*
X267923Y232883D01*
X267467Y233188D01*
X266929Y233295D01*
X266465Y233202D01*
X169362D01*
X168898Y233295D01*
X168433Y233202D01*
X69920D01*
X69673Y233666D01*
X69679Y233702D01*
X70076Y233967D01*
X76528Y240420D01*
X168433D01*
X168898Y240327D01*
X169362Y240420D01*
X266385D01*
X271513Y235292D01*
X271939Y235008D01*
X272441Y234908D01*
X468040D01*
X468504Y234816D01*
X469042Y234923D01*
X469482Y235217D01*
X618111D01*
Y234450D01*
X618498D01*
Y233572D01*
X622835D01*
X627172D01*
Y234450D01*
X627560D01*
Y237994D01*
X627172D01*
Y238872D01*
X622835D01*
X618498D01*
Y237994D01*
X618111D01*
Y237224D01*
X469482D01*
X469042Y237519D01*
X468504Y237625D01*
X468040Y237533D01*
X272985D01*
X268185Y242332D01*
X267923Y242726D01*
X267467Y243030D01*
X266929Y243137D01*
D02*
G37*
G36*
X40900Y244480D02*
X39826Y244339D01*
X38825Y243924D01*
X37966Y243265D01*
X37306Y242406D01*
X36892Y241405D01*
X36750Y240331D01*
X36892Y239257D01*
X37306Y238256D01*
X37966Y237397D01*
X38825Y236737D01*
X39826Y236322D01*
X40900Y236181D01*
X41974Y236322D01*
X42975Y236737D01*
X43834Y237397D01*
X44494Y238256D01*
X44908Y239257D01*
X45050Y240331D01*
X44908Y241405D01*
X44494Y242406D01*
X43834Y243265D01*
X42975Y243924D01*
X41974Y244339D01*
X40900Y244480D01*
D02*
G37*
G36*
Y233610D02*
X39826Y233469D01*
X38825Y233054D01*
X37966Y232395D01*
X37306Y231536D01*
X36892Y230535D01*
X36750Y229461D01*
X36892Y228387D01*
X37306Y227386D01*
X37966Y226526D01*
X38825Y225867D01*
X39826Y225452D01*
X40900Y225311D01*
X41974Y225452D01*
X42975Y225867D01*
X43834Y226526D01*
X44494Y227386D01*
X44908Y228387D01*
X45050Y229461D01*
X44908Y230535D01*
X44494Y231536D01*
X43834Y232395D01*
X42975Y233054D01*
X41974Y233469D01*
X40900Y233610D01*
D02*
G37*
G36*
X627172Y201076D02*
X622835D01*
X618498D01*
Y200198D01*
X618111D01*
Y199429D01*
X469482D01*
X469042Y199723D01*
X468504Y199830D01*
X468040Y199738D01*
X386024D01*
X385521Y199638D01*
X385096Y199353D01*
X348866Y163124D01*
X267393D01*
X266929Y163216D01*
X266465Y163124D01*
X169362D01*
X168898Y163216D01*
X168433Y163124D01*
X87975D01*
X66955Y184144D01*
X67270Y184906D01*
X67412Y185980D01*
X67270Y187054D01*
X66856Y188055D01*
X66197Y188915D01*
X65337Y189574D01*
X64336Y189989D01*
X63262Y190130D01*
X62188Y189989D01*
X61187Y189574D01*
X60328Y188915D01*
X59668Y188055D01*
X59254Y187054D01*
X59113Y185980D01*
X59254Y184906D01*
X59668Y183905D01*
X60328Y183046D01*
X61187Y182387D01*
X62188Y181972D01*
X63262Y181831D01*
X64336Y181972D01*
X65098Y182288D01*
X65652Y181734D01*
X65445Y181234D01*
X59449D01*
X58947Y181134D01*
X58521Y180849D01*
X56269Y178597D01*
X55845Y178881D01*
X56089Y179471D01*
X56231Y180545D01*
X56089Y181619D01*
X55675Y182620D01*
X55015Y183479D01*
X54156Y184139D01*
X53155Y184554D01*
X52081Y184695D01*
X51007Y184554D01*
X50006Y184139D01*
X49147Y183479D01*
X48487Y182620D01*
X48073Y181619D01*
X47931Y180545D01*
X48073Y179471D01*
X48487Y178470D01*
X49147Y177611D01*
X50006Y176952D01*
X50076Y176923D01*
X49976Y176423D01*
X44809D01*
X44494Y177185D01*
X43834Y178044D01*
X42975Y178704D01*
X41974Y179119D01*
X40900Y179260D01*
X39826Y179119D01*
X38825Y178704D01*
X37966Y178044D01*
X37306Y177185D01*
X36892Y176184D01*
X36750Y175110D01*
X36892Y174036D01*
X37306Y173035D01*
X37966Y172176D01*
X38825Y171517D01*
X39826Y171102D01*
X40900Y170961D01*
X41974Y171102D01*
X42975Y171517D01*
X43834Y172176D01*
X44494Y173035D01*
X44809Y173798D01*
X49976D01*
X50076Y173298D01*
X50006Y173269D01*
X49147Y172609D01*
X48487Y171750D01*
X48073Y170749D01*
X47931Y169675D01*
X48073Y168601D01*
X48487Y167600D01*
X49147Y166741D01*
X50006Y166082D01*
X51007Y165667D01*
X52081Y165525D01*
X53155Y165667D01*
X54156Y166082D01*
X55015Y166741D01*
X55675Y167600D01*
X55990Y168363D01*
X60706D01*
X60875Y167863D01*
X60176Y167326D01*
X59483Y166422D01*
X59047Y165370D01*
X58964Y164740D01*
X67560D01*
X67478Y165370D01*
X67042Y166422D01*
X66404Y167253D01*
X66781Y167583D01*
X93560Y140804D01*
X93986Y140520D01*
X94488Y140420D01*
X168433D01*
X168898Y140327D01*
X169362Y140420D01*
X266465D01*
X266929Y140327D01*
X267393Y140420D01*
X351969D01*
X352471Y140520D01*
X352897Y140804D01*
X384008Y171916D01*
X468040D01*
X468504Y171823D01*
X469042Y171930D01*
X469482Y172225D01*
X618111D01*
Y171458D01*
X618498D01*
Y170580D01*
X622835D01*
X627172D01*
Y171458D01*
X627560D01*
Y175002D01*
X627172D01*
Y175880D01*
X622835D01*
X618498D01*
Y175002D01*
X618111D01*
Y174232D01*
X469482D01*
X469042Y174526D01*
X468504Y174633D01*
X468040Y174541D01*
X383465D01*
X382962Y174441D01*
X382536Y174156D01*
X351425Y143045D01*
X267393D01*
X266929Y143137D01*
X266465Y143045D01*
X169362D01*
X168898Y143137D01*
X168433Y143045D01*
X95032D01*
X67473Y170603D01*
X67048Y170888D01*
X66545Y170988D01*
X65367D01*
X65268Y171488D01*
X65337Y171517D01*
X66197Y172176D01*
X66856Y173035D01*
X67270Y174036D01*
X67412Y175110D01*
X67323Y175783D01*
X67797Y176016D01*
X93166Y150647D01*
X93592Y150362D01*
X94095Y150262D01*
X168433D01*
X168898Y150170D01*
X169362Y150262D01*
X266465D01*
X266929Y150170D01*
X267393Y150262D01*
X353740D01*
X354242Y150362D01*
X354668Y150647D01*
X382237Y178215D01*
X468040D01*
X468504Y178123D01*
X469042Y178230D01*
X469482Y178524D01*
X618111D01*
Y177758D01*
X618498D01*
Y176880D01*
X622835D01*
X627172D01*
Y177758D01*
X627560D01*
Y181301D01*
X627172D01*
Y182179D01*
X622835D01*
X618498D01*
Y181301D01*
X618111D01*
Y180531D01*
X469482D01*
X469042Y180826D01*
X468504Y180932D01*
X468040Y180840D01*
X381693D01*
X381191Y180740D01*
X380765Y180456D01*
X353197Y152887D01*
X267393D01*
X266929Y152980D01*
X266465Y152887D01*
X169362D01*
X168898Y152980D01*
X168433Y152887D01*
X94638D01*
X87527Y159998D01*
X87734Y160498D01*
X168433D01*
X168898Y160406D01*
X169362Y160498D01*
X266465D01*
X266929Y160406D01*
X267393Y160498D01*
X349410D01*
X349912Y160598D01*
X350338Y160883D01*
X386567Y197113D01*
X468040D01*
X468504Y197020D01*
X469042Y197127D01*
X469482Y197422D01*
X618111D01*
Y196655D01*
X627560D01*
Y200198D01*
X627172D01*
Y201076D01*
D02*
G37*
G36*
X40900Y201000D02*
X39826Y200859D01*
X38825Y200444D01*
X37966Y199785D01*
X37306Y198925D01*
X36892Y197924D01*
X36750Y196850D01*
X36892Y195776D01*
X37306Y194776D01*
X37966Y193916D01*
X38825Y193257D01*
X39826Y192842D01*
X40900Y192701D01*
X41974Y192842D01*
X42975Y193257D01*
X43834Y193916D01*
X44494Y194776D01*
X44908Y195776D01*
X45050Y196850D01*
X44908Y197924D01*
X44494Y198925D01*
X43834Y199785D01*
X42975Y200444D01*
X41974Y200859D01*
X40900Y201000D01*
D02*
G37*
G36*
X52081Y195565D02*
X51007Y195424D01*
X50006Y195009D01*
X49147Y194350D01*
X48487Y193490D01*
X48073Y192489D01*
X47931Y191415D01*
X48073Y190341D01*
X48487Y189340D01*
X49147Y188481D01*
X50006Y187822D01*
X51007Y187407D01*
X52081Y187266D01*
X53155Y187407D01*
X54156Y187822D01*
X55015Y188481D01*
X55675Y189340D01*
X56089Y190341D01*
X56231Y191415D01*
X56089Y192489D01*
X55675Y193490D01*
X55015Y194350D01*
X54156Y195009D01*
X53155Y195424D01*
X52081Y195565D01*
D02*
G37*
G36*
X41400Y190279D02*
Y186480D01*
X45198D01*
X45115Y187110D01*
X44679Y188162D01*
X43986Y189066D01*
X43082Y189760D01*
X42030Y190196D01*
X41400Y190279D01*
D02*
G37*
G36*
X40400D02*
X39770Y190196D01*
X38718Y189760D01*
X37814Y189066D01*
X37121Y188162D01*
X36685Y187110D01*
X36602Y186480D01*
X40400D01*
Y190279D01*
D02*
G37*
G36*
X627172Y184063D02*
X623336D01*
Y183179D01*
X627172D01*
Y184063D01*
D02*
G37*
G36*
X622335D02*
X618498D01*
Y183179D01*
X622335D01*
Y184063D01*
D02*
G37*
G36*
X45198Y185480D02*
X41400D01*
Y181682D01*
X42030Y181765D01*
X43082Y182201D01*
X43986Y182894D01*
X44679Y183798D01*
X45115Y184851D01*
X45198Y185480D01*
D02*
G37*
G36*
X40400D02*
X36602D01*
X36685Y184851D01*
X37121Y183798D01*
X37814Y182894D01*
X38718Y182201D01*
X39770Y181765D01*
X40400Y181682D01*
Y185480D01*
D02*
G37*
G36*
X627172Y169580D02*
X622835D01*
X618498D01*
Y168702D01*
X618111D01*
Y167933D01*
X469482D01*
X469042Y168227D01*
X468504Y168334D01*
X468040Y168242D01*
X390158D01*
X389655Y168142D01*
X389229Y167857D01*
X344732Y123360D01*
X267393D01*
X266929Y123452D01*
X266391Y123345D01*
X265936Y123041D01*
X265930Y123032D01*
X265845Y122975D01*
X265836Y122966D01*
X169362D01*
X168898Y123058D01*
X168433Y122966D01*
X106449D01*
X69682Y159733D01*
X69256Y160018D01*
X68754Y160118D01*
X65819D01*
X65649Y160618D01*
X66348Y161154D01*
X67042Y162058D01*
X67478Y163111D01*
X67560Y163740D01*
X58964D01*
X59047Y163111D01*
X59483Y162058D01*
X60176Y161154D01*
X60875Y160618D01*
X60706Y160118D01*
X55990D01*
X55675Y160880D01*
X55015Y161739D01*
X54156Y162399D01*
X53155Y162813D01*
X52081Y162955D01*
X51007Y162813D01*
X50006Y162399D01*
X49147Y161739D01*
X48487Y160880D01*
X48073Y159879D01*
X47931Y158805D01*
X48073Y157731D01*
X48487Y156730D01*
X49147Y155871D01*
X50006Y155211D01*
X51007Y154797D01*
X52081Y154655D01*
X53155Y154797D01*
X54156Y155211D01*
X55015Y155871D01*
X55675Y156730D01*
X55990Y157492D01*
X61157D01*
X61257Y156992D01*
X61187Y156964D01*
X60328Y156304D01*
X59668Y155445D01*
X59254Y154444D01*
X59113Y153370D01*
X59254Y152296D01*
X59668Y151295D01*
X60328Y150436D01*
X61187Y149776D01*
X62188Y149362D01*
X63262Y149220D01*
X64336Y149362D01*
X65098Y149678D01*
X65798Y148978D01*
X65551Y148518D01*
X65354Y148557D01*
X59488D01*
X58986Y148457D01*
X58560Y148172D01*
X56193Y145806D01*
X55769Y146089D01*
X56089Y146861D01*
X56231Y147935D01*
X56089Y149009D01*
X55675Y150010D01*
X55015Y150869D01*
X54156Y151529D01*
X53155Y151943D01*
X52081Y152085D01*
X51007Y151943D01*
X50006Y151529D01*
X49147Y150869D01*
X48487Y150010D01*
X48073Y149009D01*
X47931Y147935D01*
X48073Y146861D01*
X48487Y145860D01*
X49147Y145001D01*
X50006Y144341D01*
X50076Y144313D01*
X49976Y143813D01*
X44809D01*
X44494Y144575D01*
X43834Y145434D01*
X42975Y146094D01*
X41974Y146508D01*
X40900Y146650D01*
X39826Y146508D01*
X38825Y146094D01*
X37966Y145434D01*
X37306Y144575D01*
X36892Y143574D01*
X36750Y142500D01*
X36892Y141426D01*
X37306Y140425D01*
X37966Y139566D01*
X38825Y138906D01*
X39826Y138492D01*
X40900Y138350D01*
X41974Y138492D01*
X42975Y138906D01*
X43834Y139566D01*
X44494Y140425D01*
X44809Y141187D01*
X49976D01*
X50076Y140687D01*
X50006Y140659D01*
X49147Y139999D01*
X48487Y139140D01*
X48073Y138139D01*
X47931Y137065D01*
X48073Y135991D01*
X48487Y134990D01*
X49147Y134131D01*
X50006Y133471D01*
X50076Y133443D01*
X49976Y132943D01*
X44809D01*
X44494Y133705D01*
X43834Y134564D01*
X42975Y135224D01*
X41974Y135638D01*
X40900Y135780D01*
X39826Y135638D01*
X38825Y135224D01*
X37966Y134564D01*
X37306Y133705D01*
X36892Y132704D01*
X36750Y131630D01*
X36892Y130556D01*
X37306Y129555D01*
X37966Y128696D01*
X38825Y128036D01*
X39826Y127622D01*
X40900Y127480D01*
X41974Y127622D01*
X42975Y128036D01*
X43834Y128696D01*
X44494Y129555D01*
X44809Y130317D01*
X49525D01*
X49694Y129817D01*
X48995Y129281D01*
X48302Y128377D01*
X47866Y127324D01*
X47783Y126695D01*
X56379D01*
X56296Y127324D01*
X55861Y128377D01*
X55167Y129281D01*
X54468Y129817D01*
X54637Y130317D01*
X55772D01*
X56274Y130417D01*
X56700Y130702D01*
X58757Y132759D01*
X59230Y132525D01*
X59113Y131630D01*
X59254Y130556D01*
X59668Y129555D01*
X60328Y128696D01*
X61187Y128036D01*
X62188Y127622D01*
X63262Y127480D01*
X64336Y127622D01*
X65098Y127937D01*
X112074Y80962D01*
X112500Y80677D01*
X113002Y80577D01*
X168433D01*
X168898Y80485D01*
X169362Y80577D01*
X266465D01*
X266929Y80485D01*
X267393Y80577D01*
X340945D01*
X341447Y80677D01*
X341873Y80962D01*
X395032Y134121D01*
X468040D01*
X468504Y134028D01*
X469042Y134135D01*
X469482Y134430D01*
X618111D01*
Y133663D01*
X618498D01*
Y132785D01*
X622835D01*
X627172D01*
Y133663D01*
X627560D01*
Y136813D01*
Y140356D01*
X627172D01*
Y141234D01*
X622835D01*
X618498D01*
Y140356D01*
X618111D01*
Y139586D01*
X469482D01*
X469042Y139881D01*
X468504Y139988D01*
X468040Y139895D01*
X391142D01*
X390639Y139795D01*
X390214Y139511D01*
X343748Y93045D01*
X267393D01*
X266929Y93137D01*
X266465Y93045D01*
X169362D01*
X168898Y93137D01*
X168433Y93045D01*
X114323D01*
X69826Y137542D01*
X69400Y137827D01*
X68898Y137927D01*
X63876D01*
X63843Y138427D01*
X64336Y138492D01*
X65337Y138906D01*
X66197Y139566D01*
X66856Y140425D01*
X67270Y141426D01*
X67412Y142500D01*
X67387Y142685D01*
X67836Y142906D01*
X109702Y101040D01*
X110128Y100756D01*
X110630Y100656D01*
X168433D01*
X168898Y100564D01*
X169362Y100656D01*
X266465D01*
X266929Y100564D01*
X267393Y100656D01*
X341535D01*
X342038Y100756D01*
X342464Y101040D01*
X394441Y153018D01*
X468040D01*
X468504Y152926D01*
X469042Y153033D01*
X469482Y153327D01*
X618111D01*
Y152561D01*
X618498D01*
Y151683D01*
X622835D01*
X627172D01*
Y152561D01*
X627560D01*
Y156104D01*
X627172D01*
Y156982D01*
X622835D01*
X618498D01*
Y156104D01*
X618111D01*
Y155334D01*
X469482D01*
X469042Y155629D01*
X468504Y155736D01*
X468040Y155643D01*
X393898D01*
X393395Y155543D01*
X392969Y155259D01*
X340992Y103281D01*
X267393D01*
X266929Y103374D01*
X266465Y103281D01*
X169362D01*
X168898Y103374D01*
X168433Y103281D01*
X111174D01*
X104378Y110077D01*
X104624Y110538D01*
X104821Y110498D01*
X168433D01*
X168898Y110406D01*
X169362Y110498D01*
X266465D01*
X266929Y110406D01*
X267393Y110498D01*
X343307D01*
X343809Y110598D01*
X344235Y110883D01*
X392670Y159317D01*
X468040D01*
X468504Y159225D01*
X469042Y159332D01*
X469482Y159626D01*
X618111D01*
Y158860D01*
X618498D01*
Y157982D01*
X622835D01*
X627172D01*
Y158860D01*
X627560D01*
Y162403D01*
X627172D01*
Y163281D01*
X622835D01*
X618498D01*
Y162403D01*
X618111D01*
Y161633D01*
X469482D01*
X469042Y161928D01*
X468504Y162035D01*
X468040Y161943D01*
X392126D01*
X391624Y161843D01*
X391198Y161558D01*
X342763Y113124D01*
X267393D01*
X266929Y113216D01*
X266465Y113124D01*
X169362D01*
X168898Y113216D01*
X168433Y113124D01*
X105365D01*
X66955Y151534D01*
X67270Y152296D01*
X67412Y153370D01*
X67270Y154444D01*
X66856Y155445D01*
X66197Y156304D01*
X65337Y156964D01*
X65268Y156992D01*
X65367Y157492D01*
X68210D01*
X104977Y120725D01*
X105403Y120441D01*
X105905Y120341D01*
X168433D01*
X168898Y120249D01*
X169362Y120341D01*
X266380D01*
X266882Y120441D01*
X267292Y120714D01*
X267393Y120735D01*
X345276D01*
X345778Y120835D01*
X346204Y121119D01*
X390701Y165617D01*
X468040D01*
X468504Y165524D01*
X469042Y165631D01*
X469482Y165926D01*
X618111D01*
Y165159D01*
X618498D01*
Y164281D01*
X622835D01*
X627172D01*
Y165159D01*
X627560D01*
Y168702D01*
X627172D01*
Y169580D01*
D02*
G37*
G36*
X40900Y168390D02*
X39826Y168248D01*
X38825Y167834D01*
X37966Y167174D01*
X37306Y166315D01*
X36892Y165314D01*
X36750Y164240D01*
X36892Y163166D01*
X37306Y162165D01*
X37966Y161306D01*
X38825Y160646D01*
X39826Y160232D01*
X40900Y160090D01*
X41974Y160232D01*
X42975Y160646D01*
X43834Y161306D01*
X44494Y162165D01*
X44908Y163166D01*
X45050Y164240D01*
X44908Y165314D01*
X44494Y166315D01*
X43834Y167174D01*
X42975Y167834D01*
X41974Y168248D01*
X40900Y168390D01*
D02*
G37*
G36*
Y157520D02*
X39826Y157378D01*
X38825Y156964D01*
X37966Y156304D01*
X37306Y155445D01*
X36892Y154444D01*
X36750Y153370D01*
X36892Y152296D01*
X37306Y151295D01*
X37966Y150436D01*
X38825Y149776D01*
X39826Y149362D01*
X40900Y149220D01*
X41974Y149362D01*
X42975Y149776D01*
X43834Y150436D01*
X44494Y151295D01*
X44908Y152296D01*
X45050Y153370D01*
X44908Y154444D01*
X44494Y155445D01*
X43834Y156304D01*
X42975Y156964D01*
X41974Y157378D01*
X40900Y157520D01*
D02*
G37*
G36*
X627172Y150683D02*
X622835D01*
X618498D01*
Y149805D01*
X618111D01*
Y149035D01*
X469482D01*
X469042Y149329D01*
X468504Y149436D01*
X467966Y149329D01*
X467511Y149025D01*
X467206Y148569D01*
X467099Y148031D01*
X467206Y147494D01*
X467511Y147038D01*
X467966Y146733D01*
X468076Y146712D01*
Y146202D01*
X467966Y146180D01*
X467511Y145875D01*
X467206Y145420D01*
X467099Y144882D01*
X467206Y144344D01*
X467511Y143888D01*
X467966Y143584D01*
X468504Y143477D01*
X469042Y143584D01*
X469482Y143878D01*
X618111D01*
Y143112D01*
X618498D01*
Y142234D01*
X622835D01*
X627172D01*
Y143112D01*
X627560D01*
Y146261D01*
Y149805D01*
X627172D01*
Y150683D01*
D02*
G37*
G36*
Y131785D02*
X622835D01*
X618498D01*
Y130907D01*
X618111D01*
Y130137D01*
X469482D01*
X469042Y130432D01*
X468504Y130539D01*
X468040Y130447D01*
X396457D01*
X395954Y130347D01*
X395529Y130062D01*
X338433Y72966D01*
X267393D01*
X267292Y72986D01*
X266882Y73260D01*
X266380Y73360D01*
X169362D01*
X168898Y73452D01*
X168433Y73360D01*
X112519D01*
X66955Y118924D01*
X67270Y119686D01*
X67412Y120760D01*
X67270Y121834D01*
X66856Y122835D01*
X66197Y123694D01*
X65337Y124354D01*
X64336Y124768D01*
X63262Y124909D01*
X62188Y124768D01*
X61187Y124354D01*
X60328Y123694D01*
X59668Y122835D01*
X59254Y121834D01*
X59113Y120760D01*
X59254Y119686D01*
X59668Y118685D01*
X60328Y117826D01*
X61187Y117166D01*
X61257Y117137D01*
X61157Y116637D01*
X55990D01*
X55675Y117400D01*
X55015Y118259D01*
X54156Y118919D01*
X53155Y119333D01*
X52081Y119474D01*
X51007Y119333D01*
X50006Y118919D01*
X49147Y118259D01*
X48487Y117400D01*
X48073Y116399D01*
X47931Y115325D01*
X48073Y114251D01*
X48487Y113250D01*
X49147Y112391D01*
X50006Y111731D01*
X51007Y111317D01*
X52081Y111175D01*
X53155Y111317D01*
X54156Y111731D01*
X55015Y112391D01*
X55675Y113250D01*
X55990Y114012D01*
X61157D01*
X61257Y113512D01*
X61187Y113484D01*
X60328Y112824D01*
X59668Y111965D01*
X59254Y110964D01*
X59113Y109890D01*
X59254Y108816D01*
X59668Y107815D01*
X60328Y106956D01*
X61187Y106296D01*
X62188Y105882D01*
X63262Y105740D01*
X64336Y105882D01*
X65098Y106197D01*
X120255Y51040D01*
X120681Y50756D01*
X121184Y50656D01*
X168433D01*
X168898Y50564D01*
X169362Y50656D01*
X266465D01*
X266929Y50564D01*
X267434Y50664D01*
X349606D01*
X350106Y50763D01*
X350529Y51046D01*
X411564Y112081D01*
X467999D01*
X468504Y111981D01*
X469042Y112088D01*
X469482Y112382D01*
X618111D01*
Y111616D01*
X627560D01*
Y115159D01*
X627172D01*
Y116037D01*
X622835D01*
X618498D01*
Y115159D01*
X618111D01*
Y114389D01*
X469482D01*
X469042Y114684D01*
X468504Y114791D01*
X467999Y114690D01*
X411024D01*
X410524Y114591D01*
X410101Y114308D01*
X349066Y53273D01*
X267434D01*
X266929Y53373D01*
X266465Y53281D01*
X169362D01*
X168898Y53373D01*
X168433Y53281D01*
X121727D01*
X66955Y108054D01*
X67270Y108816D01*
X67412Y109890D01*
X67344Y110408D01*
X67817Y110641D01*
X117576Y60883D01*
X118002Y60598D01*
X118504Y60498D01*
X168433D01*
X168898Y60406D01*
X169362Y60498D01*
X266465D01*
X266929Y60406D01*
X267393Y60498D01*
X354724D01*
X355227Y60598D01*
X355653Y60883D01*
X413142Y118372D01*
X468040D01*
X468504Y118280D01*
X469042Y118387D01*
X469482Y118682D01*
X618111D01*
Y117915D01*
X618498D01*
Y117037D01*
X622835D01*
X627172D01*
Y117915D01*
X627560D01*
Y121065D01*
Y124214D01*
Y127364D01*
Y130907D01*
X627172D01*
Y131785D01*
D02*
G37*
G36*
X56379Y125695D02*
X52581D01*
Y121897D01*
X53211Y121979D01*
X54263Y122415D01*
X55167Y123109D01*
X55861Y124013D01*
X56296Y125065D01*
X56379Y125695D01*
D02*
G37*
G36*
X51581D02*
X47783D01*
X47866Y125065D01*
X48302Y124013D01*
X48995Y123109D01*
X49899Y122415D01*
X50952Y121979D01*
X51581Y121897D01*
Y125695D01*
D02*
G37*
G36*
X40900Y124909D02*
X39826Y124768D01*
X38825Y124354D01*
X37966Y123694D01*
X37306Y122835D01*
X36892Y121834D01*
X36750Y120760D01*
X36892Y119686D01*
X37306Y118685D01*
X37966Y117826D01*
X38825Y117166D01*
X39826Y116752D01*
X40900Y116610D01*
X41974Y116752D01*
X42975Y117166D01*
X43834Y117826D01*
X44494Y118685D01*
X44908Y119686D01*
X45050Y120760D01*
X44908Y121834D01*
X44494Y122835D01*
X43834Y123694D01*
X42975Y124354D01*
X41974Y124768D01*
X40900Y124909D01*
D02*
G37*
G36*
Y114039D02*
X39826Y113898D01*
X38825Y113484D01*
X37966Y112824D01*
X37306Y111965D01*
X36892Y110964D01*
X36750Y109890D01*
X36892Y108816D01*
X37306Y107815D01*
X37966Y106956D01*
X38825Y106296D01*
X39826Y105882D01*
X40900Y105740D01*
X41974Y105882D01*
X42975Y106296D01*
X43834Y106956D01*
X44494Y107815D01*
X44908Y108816D01*
X45050Y109890D01*
X44908Y110964D01*
X44494Y111965D01*
X43834Y112824D01*
X42975Y113484D01*
X41974Y113898D01*
X40900Y114039D01*
D02*
G37*
G36*
X457207Y110797D02*
X456349Y110684D01*
X455549Y110353D01*
X454862Y109826D01*
X454335Y109139D01*
X454004Y108339D01*
X453891Y107481D01*
X454004Y106623D01*
X454335Y105823D01*
X454862Y105137D01*
X455549Y104610D01*
X456349Y104278D01*
X457207Y104165D01*
X458065Y104278D01*
X458865Y104610D01*
X459552Y105137D01*
X460079Y105823D01*
X460410Y106623D01*
X460523Y107481D01*
X460410Y108339D01*
X460079Y109139D01*
X459552Y109826D01*
X458865Y110353D01*
X458065Y110684D01*
X457207Y110797D01*
D02*
G37*
G36*
X624804Y91537D02*
X615355D01*
Y86025D01*
X624804D01*
Y91537D01*
D02*
G37*
%LPD*%
G36*
X292773Y254190D02*
X293198Y253905D01*
X293701Y253805D01*
X468040D01*
X468504Y253713D01*
X469042Y253820D01*
X469482Y254115D01*
X485411D01*
X489241Y250284D01*
X489050Y249822D01*
X469482D01*
X469042Y250117D01*
X468504Y250224D01*
X468040Y250132D01*
X290701D01*
X268185Y272647D01*
X267923Y273041D01*
X267467Y273345D01*
X266929Y273452D01*
X266391Y273345D01*
X265936Y273041D01*
X265930Y273032D01*
X265845Y272975D01*
X265836Y272966D01*
X169362D01*
X168898Y273059D01*
X168433Y272966D01*
X80315D01*
X79813Y272866D01*
X79387Y272582D01*
X67771Y260966D01*
X67297Y261199D01*
X67412Y262071D01*
X67270Y263145D01*
X66955Y263907D01*
X83625Y280577D01*
X168433D01*
X168898Y280485D01*
X169362Y280577D01*
X266385D01*
X292773Y254190D01*
D02*
G37*
G36*
X481307Y271879D02*
X481326Y271709D01*
X479139Y269523D01*
X438164D01*
X437472Y269385D01*
X436886Y268994D01*
X435053Y267161D01*
X433799D01*
X433721Y267257D01*
X433824Y267927D01*
X433954Y268014D01*
X438150Y272209D01*
X481154D01*
X481307Y271879D01*
D02*
G37*
G36*
X618111Y136437D02*
X469482D01*
X469042Y136731D01*
X468931Y136753D01*
Y137263D01*
X469042Y137285D01*
X469482Y137579D01*
X618111D01*
Y136437D01*
D02*
G37*
G36*
X59855Y145640D02*
X60056Y145080D01*
X59668Y144575D01*
X59254Y143574D01*
X59113Y142500D01*
X59254Y141426D01*
X59668Y140425D01*
X60328Y139566D01*
X61187Y138906D01*
X62188Y138492D01*
X62682Y138427D01*
X62649Y137927D01*
X60756D01*
X60254Y137827D01*
X59828Y137542D01*
X55228Y132943D01*
X54186D01*
X54087Y133443D01*
X54156Y133471D01*
X55015Y134131D01*
X55675Y134990D01*
X56089Y135991D01*
X56231Y137065D01*
X56089Y138139D01*
X55675Y139140D01*
X55015Y139999D01*
X54156Y140659D01*
X54087Y140687D01*
X54186Y141187D01*
X54744D01*
X55246Y141287D01*
X55672Y141572D01*
X59762Y145661D01*
X59855Y145640D01*
D02*
G37*
G36*
X467604Y136770D02*
X467579Y136746D01*
X394488D01*
X393986Y136646D01*
X393560Y136361D01*
X340401Y83202D01*
X267393D01*
X266929Y83295D01*
X266465Y83202D01*
X169362D01*
X168898Y83295D01*
X168433Y83202D01*
X113546D01*
X66955Y129794D01*
X67270Y130556D01*
X67412Y131630D01*
X67270Y132704D01*
X66856Y133705D01*
X66197Y134564D01*
X65887Y134801D01*
X66057Y135301D01*
X68354D01*
X112851Y90804D01*
X113277Y90520D01*
X113779Y90420D01*
X168433D01*
X168898Y90327D01*
X169362Y90420D01*
X266465D01*
X266929Y90327D01*
X267393Y90420D01*
X344291D01*
X344794Y90520D01*
X345219Y90804D01*
X391685Y137270D01*
X467401D01*
X467604Y136770D01*
D02*
G37*
G36*
X618111Y145885D02*
X469482D01*
X469042Y146180D01*
X468931Y146202D01*
Y146712D01*
X469042Y146733D01*
X469482Y147028D01*
X618111D01*
Y145885D01*
D02*
G37*
G36*
Y126988D02*
X469482D01*
X469042Y127282D01*
X468931Y127304D01*
Y127814D01*
X469042Y127836D01*
X469482Y128130D01*
X618111D01*
Y126988D01*
D02*
G37*
G36*
Y123838D02*
X469482D01*
X469042Y124133D01*
X468931Y124154D01*
Y124664D01*
X469042Y124686D01*
X469482Y124981D01*
X618111D01*
Y123838D01*
D02*
G37*
G36*
Y120689D02*
X469482D01*
X469042Y120983D01*
X468931Y121005D01*
Y121515D01*
X469042Y121537D01*
X469482Y121831D01*
X618111D01*
Y120689D01*
D02*
G37*
G36*
X468076Y127814D02*
Y127304D01*
X467966Y127282D01*
X467511Y126978D01*
X467206Y126522D01*
X467099Y125984D01*
X467206Y125447D01*
X467511Y124991D01*
X467966Y124686D01*
X468076Y124664D01*
Y124154D01*
X467966Y124133D01*
X467511Y123828D01*
X467206Y123372D01*
X467099Y122835D01*
X467206Y122297D01*
X467511Y121841D01*
X467640Y121755D01*
X467703Y121118D01*
X467579Y120998D01*
X412598D01*
X412096Y120898D01*
X411670Y120613D01*
X354181Y63124D01*
X267393D01*
X266929Y63216D01*
X266465Y63124D01*
X169362D01*
X168898Y63216D01*
X168433Y63124D01*
X119048D01*
X111919Y70253D01*
X111923Y70288D01*
X112144Y70735D01*
X168433D01*
X168898Y70642D01*
X169362Y70735D01*
X265836D01*
X265845Y70725D01*
X265930Y70669D01*
X265936Y70660D01*
X266391Y70355D01*
X266929Y70249D01*
X267393Y70341D01*
X338976D01*
X339479Y70441D01*
X339904Y70725D01*
X397000Y127821D01*
X468040D01*
X468076Y127814D01*
D02*
G37*
D12*
X230709Y341732D02*
X269685D01*
X437402Y274016D02*
X483307D01*
X432677Y269291D02*
X437402Y274016D01*
X320079Y269291D02*
X432677Y269291D01*
X230709Y341681D02*
Y341732D01*
X228741Y339714D02*
X230709Y341681D01*
X228741Y339607D02*
Y339714D01*
X230709Y341732D02*
Y341863D01*
X228741Y343831D02*
X230709Y341863D01*
X228741Y343831D02*
Y343938D01*
X269685Y341732D02*
X278346Y333071D01*
Y311024D02*
Y333071D01*
Y311024D02*
X320079Y269291D01*
X268504Y322047D02*
X272835Y317717D01*
X230736Y322047D02*
X268504D01*
X315354Y265354D02*
X435802D01*
X272835Y307874D02*
X315354Y265354D01*
X438164Y267717D02*
X479888D01*
X435802Y265354D02*
X438164Y267717D01*
X479888D02*
X482644Y270472D01*
X309842Y261417D02*
X481755D01*
X489629Y253543D01*
X269291Y301969D02*
X309842Y261417D01*
X483307Y274016D02*
X496693Y287402D01*
X230736Y321709D02*
Y322047D01*
X228740Y319713D02*
X230736Y321709D01*
X228740Y319606D02*
Y319713D01*
X228847Y323937D02*
X230736Y322047D01*
X228740Y323937D02*
X228847D01*
X230709Y301969D02*
X267323D01*
X230709Y301681D02*
Y301969D01*
X228740Y299713D02*
X230709Y301681D01*
X228740Y299606D02*
Y299713D01*
Y303937D02*
X230709Y301969D01*
X228740Y303937D02*
Y303937D01*
X267323Y301969D02*
X269291D01*
X267323Y300394D02*
Y301969D01*
Y303543D01*
X272835Y307874D02*
Y317717D01*
X482644Y270472D02*
X496693D01*
X489629Y253543D02*
X496693D01*
D17*
X617324Y261418D02*
X617324Y261419D01*
X622835D01*
X622835Y261419D01*
X617324Y267717D02*
X617324Y267718D01*
X622835D01*
X622835Y267718D01*
X617324Y274016D02*
X617324Y274017D01*
X622835D01*
X383465Y329921D02*
X429528D01*
X322047D02*
X369685D01*
X293701Y255118D02*
X468504D01*
X290158Y248819D02*
X468504D01*
X268898Y223622D02*
X468504D01*
X266929Y221654D02*
X268898Y223622D01*
X617324Y116536D02*
X617324Y116537D01*
X622835D01*
X622835Y116537D01*
X617324Y132284D02*
X617324Y132285D01*
X622835D01*
X622835Y132285D01*
X617324Y141733D02*
X617324Y141734D01*
X622835D01*
X622835Y141734D01*
X617324Y151182D02*
X617324Y151182D01*
X622835D01*
X622835Y151183D01*
X617324Y157481D02*
X617324Y157482D01*
X622835D01*
X622835Y157482D01*
X617324Y163780D02*
X617324Y163781D01*
X622835D01*
X622835Y163781D01*
X617324Y170080D02*
X617324Y170080D01*
X622835D01*
X622835Y170080D01*
X617324Y176379D02*
X617324Y176379D01*
X622835D01*
X622835Y176380D01*
X617324Y182678D02*
X617324Y182678D01*
X622835D01*
X622835Y182679D01*
X617324Y201576D02*
X617324Y201576D01*
X622835D01*
X622835Y201576D01*
X617324Y207875D02*
X617324Y207875D01*
X622835D01*
X622835Y207876D01*
X617324Y214174D02*
X617324Y214174D01*
X622835D01*
X622835Y214175D01*
X617324Y220473D02*
X617324Y220474D01*
X622835D01*
X622835Y220474D01*
X617324Y226772D02*
X617324Y226773D01*
X622835D01*
X622835Y226773D01*
X617324Y233072D02*
X617324Y233072D01*
X622835D01*
X622835Y233072D01*
X617324Y239371D02*
X617324Y239371D01*
X622835D01*
X622835Y239372D01*
X617324Y245670D02*
X617324Y245671D01*
X622835D01*
X622835Y245671D01*
X617324Y251969D02*
X617324Y251970D01*
X622835D01*
X622835Y251970D01*
X617324Y258268D02*
X617324Y258269D01*
X622835D01*
X622835Y258269D01*
X617324Y264568D02*
X617324Y264568D01*
X622835D01*
X622835Y264568D01*
X617324Y270867D02*
X617324Y270867D01*
X622835D01*
X622835Y270868D01*
X617323Y277165D02*
X617324Y277166D01*
X622835D01*
X622835Y277167D01*
X617323Y280315D02*
X617324Y280316D01*
X622835D01*
X622835Y280316D01*
X121184Y51968D02*
X168898D01*
X63262Y109890D02*
X121184Y51968D01*
X52081Y115325D02*
X64990D01*
X118504Y61811D01*
X168898D01*
X63262Y120760D02*
X111975Y72047D01*
X168898D01*
X63262Y131630D02*
X113002Y81890D01*
X168898D01*
X55772Y131630D02*
X60756Y136614D01*
X68898D01*
X113779Y91732D02*
X168898D01*
X68898Y136614D02*
X113779Y91732D01*
X54744Y142500D02*
X59488Y147244D01*
X65354D01*
X110630Y101969D02*
X168898D01*
X65354Y147244D02*
X110630Y101969D01*
X40900Y131630D02*
X55772D01*
X40900Y142500D02*
X54744D01*
X63262Y153370D02*
X104821Y111811D01*
X168898D01*
X52081Y158805D02*
X68754D01*
X105905Y121653D01*
X168898D01*
X52081Y169675D02*
X66545D01*
X94488Y141732D01*
X168898D01*
X94095Y151575D02*
X168898D01*
X65748Y179921D02*
X94095Y151575D01*
X59449Y179921D02*
X65748D01*
X87432Y161811D02*
X168898D01*
X63262Y185980D02*
X87432Y161811D01*
X40900Y175110D02*
X54638D01*
X59449Y179921D01*
X63262Y196850D02*
X78223Y181890D01*
X168898D01*
X68974Y202285D02*
X79528Y191732D01*
X52081Y202285D02*
X68974D01*
X79528Y191732D02*
X168898D01*
X40900Y207720D02*
X54571D01*
X59842Y212992D01*
X67716D01*
X79134Y201575D01*
X168898D01*
X40900Y218591D02*
X54811D01*
X59842Y223622D01*
X68110D01*
X70079Y221654D01*
X168898D01*
X65691Y231890D02*
X168898D01*
X63262Y229461D02*
X65691Y231890D01*
X52081Y234896D02*
X69148D01*
X75984Y241732D01*
X168898D01*
X52081Y245766D02*
X67813D01*
X83465Y261417D01*
X168898D01*
X40900Y251201D02*
X55138D01*
X60236Y256299D01*
X64961D01*
X80315Y271654D01*
X168898D01*
X63262Y262071D02*
X83081Y281890D01*
X168898D01*
Y51968D02*
X266929D01*
X168898Y61811D02*
X266929D01*
X266774Y71653D02*
X266929D01*
X266380Y72047D02*
X266774Y71653D01*
X168898Y72047D02*
X266380D01*
X168898Y81890D02*
X266929D01*
X168898Y91732D02*
X266929D01*
X168898Y101969D02*
X266929D01*
X168898Y111811D02*
X266929D01*
X266774Y122047D02*
X266929D01*
X266380Y121653D02*
X266774Y122047D01*
X168898Y121653D02*
X266380D01*
X168898Y141732D02*
X266929D01*
X168898Y151575D02*
X266929D01*
X168898Y161811D02*
X266929D01*
X168898Y181890D02*
X266929D01*
X168898Y191732D02*
X266929D01*
X168898Y201575D02*
X266929D01*
X168898Y221654D02*
X266929D01*
X168898Y231890D02*
X266929D01*
X168898Y241732D02*
X266929D01*
X266774Y261811D02*
X266929D01*
X266380Y261417D02*
X266774Y261811D01*
X168898Y261417D02*
X266380D01*
X266774Y272047D02*
X266929D01*
X266380Y271654D02*
X266774Y272047D01*
X168898Y271654D02*
X266380D01*
X168898Y281890D02*
X266929D01*
X381693Y179528D02*
X468504D01*
X266929Y281890D02*
X293701Y255118D01*
X266929Y272047D02*
X290158Y248819D01*
X286221Y242520D02*
X468504D01*
X266929Y261811D02*
X286221Y242520D01*
X272441Y236221D02*
X468504D01*
X266929Y241732D02*
X272441Y236221D01*
X268898Y229921D02*
X468504D01*
X266929Y231890D02*
X268898Y229921D01*
X375590Y217323D02*
X468504D01*
X359842Y201575D02*
X375590Y217323D01*
X266929Y201575D02*
X359842D01*
X377362Y211024D02*
X468504D01*
X358071Y191732D02*
X377362Y211024D01*
X266929Y191732D02*
X358071D01*
X379134Y204724D02*
X468504D01*
X356299Y181890D02*
X379134Y204724D01*
X266929Y181890D02*
X356299D01*
X386024Y198425D02*
X468504D01*
X349410Y161811D02*
X386024Y198425D01*
X266929Y161811D02*
X349410D01*
X353740Y151575D02*
X381693Y179528D01*
X266929Y151575D02*
X353740D01*
X383465Y173228D02*
X468504D01*
X351969Y141732D02*
X383465Y173228D01*
X266929Y141732D02*
X351969D01*
X390158Y166929D02*
X468504D01*
X345276Y122047D02*
X390158Y166929D01*
X266929Y122047D02*
X345276D01*
X392126Y160630D02*
X468504D01*
X343307Y111811D02*
X392126Y160630D01*
X266929Y111811D02*
X343307D01*
X393898Y154331D02*
X468504D01*
X341535Y101969D02*
X393898Y154331D01*
X266929Y101969D02*
X341535D01*
X391142Y138583D02*
X468504D01*
X344291Y91732D02*
X391142Y138583D01*
X266929Y91732D02*
X344291D01*
X394488Y135433D02*
X468504D01*
X340945Y81890D02*
X394488Y135433D01*
X266929Y81890D02*
X340945D01*
X396457Y129134D02*
X468504D01*
X338976Y71653D02*
X396457Y129134D01*
X266929Y71653D02*
X338976D01*
X354724Y61811D02*
X412598Y119685D01*
X468504D01*
X266929Y61811D02*
X354724D01*
D20*
X622835Y113387D02*
D03*
Y116537D02*
D03*
Y119687D02*
D03*
Y122836D02*
D03*
Y125986D02*
D03*
Y129135D02*
D03*
Y132285D02*
D03*
Y135435D02*
D03*
Y138584D02*
D03*
Y141734D02*
D03*
Y144884D02*
D03*
Y148033D02*
D03*
Y151183D02*
D03*
Y154332D02*
D03*
Y157482D02*
D03*
Y160632D02*
D03*
Y163781D02*
D03*
Y166931D02*
D03*
Y170080D02*
D03*
Y173230D02*
D03*
Y176380D02*
D03*
Y179529D02*
D03*
Y182679D02*
D03*
Y198427D02*
D03*
Y201576D02*
D03*
Y204726D02*
D03*
Y207876D02*
D03*
Y211025D02*
D03*
Y214175D02*
D03*
Y217324D02*
D03*
Y220474D02*
D03*
Y223624D02*
D03*
Y226773D02*
D03*
Y229923D02*
D03*
Y233072D02*
D03*
Y236222D02*
D03*
Y239372D02*
D03*
Y242521D02*
D03*
Y245671D02*
D03*
Y248820D02*
D03*
Y251970D02*
D03*
Y255120D02*
D03*
Y258269D02*
D03*
Y261419D02*
D03*
Y264568D02*
D03*
Y267718D02*
D03*
Y270868D02*
D03*
Y274017D02*
D03*
Y277167D02*
D03*
Y280316D02*
D03*
D21*
X620080Y88781D02*
D03*
Y304923D02*
D03*
D36*
X19685Y19685D02*
D03*
X610236D02*
D03*
Y374016D02*
D03*
X19685D02*
D03*
D37*
X40900Y109890D02*
D03*
Y120760D02*
D03*
Y131630D02*
D03*
Y142500D02*
D03*
Y153370D02*
D03*
Y164240D02*
D03*
Y175110D02*
D03*
Y185980D02*
D03*
Y196850D02*
D03*
Y207720D02*
D03*
Y218591D02*
D03*
Y229461D02*
D03*
Y240331D02*
D03*
Y251201D02*
D03*
Y262071D02*
D03*
Y272941D02*
D03*
Y283811D02*
D03*
X52081Y115325D02*
D03*
Y126195D02*
D03*
Y137065D02*
D03*
Y147935D02*
D03*
Y158805D02*
D03*
Y169675D02*
D03*
Y180545D02*
D03*
Y191415D02*
D03*
Y202285D02*
D03*
Y213156D02*
D03*
Y224026D02*
D03*
Y234896D02*
D03*
Y245766D02*
D03*
Y256636D02*
D03*
Y267506D02*
D03*
Y278376D02*
D03*
X63262Y109890D02*
D03*
Y120760D02*
D03*
Y131630D02*
D03*
Y142500D02*
D03*
Y153370D02*
D03*
Y272941D02*
D03*
Y262071D02*
D03*
Y251201D02*
D03*
Y240331D02*
D03*
Y229461D02*
D03*
Y218591D02*
D03*
Y207720D02*
D03*
Y196850D02*
D03*
Y185980D02*
D03*
Y175110D02*
D03*
Y164240D02*
D03*
D38*
X52081Y76555D02*
D03*
Y317146D02*
D03*
D39*
X63262Y283811D02*
D03*
D40*
X487874Y361653D02*
D03*
X527874D02*
D03*
X487874Y321654D02*
D03*
X527874D02*
D03*
X542992Y361653D02*
D03*
X582992D02*
D03*
X542992Y321654D02*
D03*
X582992D02*
D03*
D41*
X507874Y336614D02*
D03*
X562992D02*
D03*
D43*
X468504Y255118D02*
X485827D01*
X468504Y248819D02*
X622834D01*
X468504Y179528D02*
X622834D01*
X468504Y144882D02*
X622834D01*
X468504Y211024D02*
X622834D01*
X622835Y211025D01*
X622834Y179528D02*
X622835Y179529D01*
X491339Y249606D02*
X520472D01*
X485827Y255118D02*
X491339Y249606D01*
X520472D02*
X525986Y255120D01*
X622835D01*
X622834Y248819D02*
X622835Y248820D01*
X622834Y242520D02*
X622835Y242521D01*
X468504Y242520D02*
X622834D01*
X622834Y236221D02*
X622835Y236222D01*
X468504Y236221D02*
X622834D01*
Y229921D02*
X622835Y229923D01*
X468504Y229921D02*
X622834D01*
X622834Y223622D02*
X622835Y223624D01*
X468504Y223622D02*
X622834D01*
X622834Y217323D02*
X622835Y217324D01*
X468504Y217323D02*
X622834D01*
Y204724D02*
X622835Y204726D01*
X468504Y204724D02*
X622834D01*
X622834Y198425D02*
X622835Y198427D01*
X468504Y198425D02*
X622834D01*
Y173228D02*
X622835Y173230D01*
X468504Y173228D02*
X622834D01*
X622834Y166929D02*
X622835Y166931D01*
X468504Y166929D02*
X622834D01*
Y160630D02*
X622835Y160632D01*
X468504Y160630D02*
X622834D01*
X622834Y154331D02*
X622835Y154332D01*
X468504Y154331D02*
X622834D01*
Y148031D02*
X622835Y148033D01*
X468504Y148031D02*
X622834D01*
X622834Y144882D02*
X622835Y144884D01*
X622834Y138583D02*
X622835Y138584D01*
X468504Y138583D02*
X622834D01*
X622834Y135433D02*
X622835Y135435D01*
X468504Y135433D02*
X622834D01*
X622834Y129134D02*
X622835Y129135D01*
X468504Y129134D02*
X622834D01*
X622834Y125984D02*
X622835Y125986D01*
X468504Y125984D02*
X622834D01*
X622834Y122835D02*
X622835Y122836D01*
X468504Y122835D02*
X622834D01*
X622834Y119685D02*
X622835Y119687D01*
X468504Y119685D02*
X622834D01*
X622834Y113386D02*
X622835Y113387D01*
X468504Y113386D02*
X622834D01*
D45*
X349606Y51968D02*
X411024Y113386D01*
X468504D01*
X266929Y51968D02*
X349606D01*
D46*
X405748Y275197D02*
D03*
X415748D02*
D03*
X395748D02*
D03*
X345905D02*
D03*
X355906D02*
D03*
X335906D02*
D03*
X506693Y270472D02*
D03*
X496693D02*
D03*
X516693D02*
D03*
X506693Y287402D02*
D03*
X496693D02*
D03*
X516693D02*
D03*
X506693Y253543D02*
D03*
X496693D02*
D03*
X516693D02*
D03*
X377000Y361800D02*
D03*
Y351800D02*
D03*
Y371800D02*
D03*
X316600Y362800D02*
D03*
Y352800D02*
D03*
Y372800D02*
D03*
X444400Y354500D02*
D03*
X454400D02*
D03*
X464400D02*
D03*
X444400Y344500D02*
D03*
X454400D02*
D03*
X464400D02*
D03*
D47*
X617324Y261418D02*
D03*
Y267717D02*
D03*
Y274016D02*
D03*
X429528Y329921D02*
D03*
X383465D02*
D03*
X369685D02*
D03*
X322047D02*
D03*
X454724Y258268D02*
D03*
X446063D02*
D03*
X468110D02*
D03*
X459449D02*
D03*
X468504Y255118D02*
D03*
X454724Y251969D02*
D03*
X446063D02*
D03*
X468110D02*
D03*
X468504Y248819D02*
D03*
X468110Y245669D02*
D03*
X446063Y270866D02*
D03*
Y280315D02*
D03*
X454724D02*
D03*
X382677Y337795D02*
D03*
X319685D02*
D03*
X459449Y280315D02*
D03*
X468110D02*
D03*
X446063Y277165D02*
D03*
X454724D02*
D03*
X459449D02*
D03*
X468110D02*
D03*
X454724Y270866D02*
D03*
X459449D02*
D03*
X468110D02*
D03*
X446063Y264567D02*
D03*
X454724D02*
D03*
X459449D02*
D03*
X468110D02*
D03*
X459449Y251969D02*
D03*
X446063Y245669D02*
D03*
X454724D02*
D03*
X459449D02*
D03*
X446063Y239370D02*
D03*
X454724D02*
D03*
X459449D02*
D03*
X468110D02*
D03*
X446063Y233071D02*
D03*
X454724D02*
D03*
X459449D02*
D03*
X468110D02*
D03*
X446063Y226772D02*
D03*
X454724D02*
D03*
X459449D02*
D03*
X468110D02*
D03*
X446063Y220472D02*
D03*
X454724D02*
D03*
X459449D02*
D03*
X468110D02*
D03*
X446063Y214173D02*
D03*
X454724D02*
D03*
X459449D02*
D03*
X468110D02*
D03*
X446063Y207874D02*
D03*
X454724D02*
D03*
X459449D02*
D03*
X468110D02*
D03*
X446063Y201575D02*
D03*
X454724D02*
D03*
X459449D02*
D03*
X468110D02*
D03*
X617324Y116536D02*
D03*
Y132284D02*
D03*
Y141733D02*
D03*
Y151182D02*
D03*
Y157481D02*
D03*
Y163780D02*
D03*
Y170080D02*
D03*
Y176379D02*
D03*
Y182678D02*
D03*
Y201576D02*
D03*
Y207875D02*
D03*
Y214174D02*
D03*
Y220473D02*
D03*
Y226772D02*
D03*
Y233072D02*
D03*
Y239371D02*
D03*
Y245670D02*
D03*
Y251969D02*
D03*
Y258268D02*
D03*
Y264568D02*
D03*
Y270867D02*
D03*
X617323Y277165D02*
D03*
Y280315D02*
D03*
X468110Y116535D02*
D03*
X459449D02*
D03*
X454724D02*
D03*
X446063D02*
D03*
X454724Y132283D02*
D03*
X446063D02*
D03*
X468110D02*
D03*
X459449D02*
D03*
X468110Y141732D02*
D03*
X459449D02*
D03*
X454724D02*
D03*
X446063D02*
D03*
X468110Y151181D02*
D03*
X459449D02*
D03*
X454724D02*
D03*
X446063D02*
D03*
X454724Y157480D02*
D03*
X446063D02*
D03*
X468110D02*
D03*
X459449D02*
D03*
X468110Y163779D02*
D03*
X459449D02*
D03*
X454724D02*
D03*
X446063D02*
D03*
X454724Y170079D02*
D03*
X446063D02*
D03*
X468110D02*
D03*
X459449D02*
D03*
X468110Y182677D02*
D03*
X459449D02*
D03*
X468110Y176378D02*
D03*
X459449D02*
D03*
X446063D02*
D03*
X454724D02*
D03*
Y182677D02*
D03*
X446063D02*
D03*
X168898Y281890D02*
D03*
Y271654D02*
D03*
Y261417D02*
D03*
Y241732D02*
D03*
Y231890D02*
D03*
Y221654D02*
D03*
Y201575D02*
D03*
Y191732D02*
D03*
Y181890D02*
D03*
Y161811D02*
D03*
Y151575D02*
D03*
Y141732D02*
D03*
Y121653D02*
D03*
Y111811D02*
D03*
Y101969D02*
D03*
Y91732D02*
D03*
Y81890D02*
D03*
Y72047D02*
D03*
Y61811D02*
D03*
Y51968D02*
D03*
X468504Y179528D02*
D03*
Y144882D02*
D03*
X266929Y281890D02*
D03*
Y272047D02*
D03*
Y261811D02*
D03*
Y231890D02*
D03*
Y241732D02*
D03*
Y221654D02*
D03*
Y201575D02*
D03*
Y191732D02*
D03*
Y181890D02*
D03*
Y161811D02*
D03*
Y151575D02*
D03*
Y141732D02*
D03*
Y122047D02*
D03*
Y111811D02*
D03*
Y101969D02*
D03*
Y91732D02*
D03*
Y81890D02*
D03*
Y71653D02*
D03*
Y61811D02*
D03*
Y51968D02*
D03*
X468504Y242520D02*
D03*
Y236221D02*
D03*
Y229921D02*
D03*
Y223622D02*
D03*
Y217323D02*
D03*
Y211024D02*
D03*
Y204724D02*
D03*
Y198425D02*
D03*
Y173228D02*
D03*
Y166929D02*
D03*
Y160630D02*
D03*
Y154331D02*
D03*
Y148031D02*
D03*
Y138583D02*
D03*
Y135433D02*
D03*
Y129134D02*
D03*
Y125984D02*
D03*
Y122835D02*
D03*
Y119685D02*
D03*
Y113386D02*
D03*
D48*
X343202Y310799D02*
D03*
X346702Y305799D02*
D03*
X343202Y307549D02*
D03*
X346702Y302299D02*
D03*
X343202Y304299D02*
D03*
X391102Y377165D02*
D03*
X388740Y374803D02*
D03*
X386378Y377165D02*
D03*
X388740Y379528D02*
D03*
X386378Y372441D02*
D03*
X388740Y370079D02*
D03*
X391102Y372441D02*
D03*
X386378Y367717D02*
D03*
X388740Y365354D02*
D03*
X391102Y367717D02*
D03*
X386378Y362992D02*
D03*
X388740Y360630D02*
D03*
X391102Y362992D02*
D03*
X386378Y358268D02*
D03*
X388740Y355906D02*
D03*
X391102Y358268D02*
D03*
X388740Y351181D02*
D03*
X391102Y353543D02*
D03*
X386378D02*
D03*
Y348819D02*
D03*
X388740Y346457D02*
D03*
X391102Y348819D02*
D03*
X421003Y377221D02*
D03*
X423366Y379584D02*
D03*
X425728Y377221D02*
D03*
Y372497D02*
D03*
X421003D02*
D03*
X423366Y374859D02*
D03*
X421003Y367772D02*
D03*
X423366Y370135D02*
D03*
X425728Y367772D02*
D03*
X421003Y363048D02*
D03*
X423366Y365410D02*
D03*
X425728Y363048D02*
D03*
X421003Y358324D02*
D03*
X423366Y360686D02*
D03*
X425728Y358324D02*
D03*
X421003Y353599D02*
D03*
X423366Y355961D02*
D03*
X425728Y353599D02*
D03*
X423366Y346513D02*
D03*
X425728Y348875D02*
D03*
X423366Y351237D02*
D03*
X421003Y348875D02*
D03*
X361003D02*
D03*
X363366Y351237D02*
D03*
X365728Y348875D02*
D03*
X363366Y346513D02*
D03*
X365728Y353599D02*
D03*
X363366Y355961D02*
D03*
X361003Y353599D02*
D03*
X365728Y358324D02*
D03*
X363366Y360686D02*
D03*
X361003Y358324D02*
D03*
X365728Y363048D02*
D03*
X363366Y365410D02*
D03*
X361003Y363048D02*
D03*
X365728Y367772D02*
D03*
X363366Y370135D02*
D03*
X361003Y367772D02*
D03*
X363366Y374859D02*
D03*
X361003Y372497D02*
D03*
X365728D02*
D03*
Y377221D02*
D03*
X363366Y379584D02*
D03*
X361003Y377221D02*
D03*
X331102Y348819D02*
D03*
X328740Y346457D02*
D03*
X326378Y348819D02*
D03*
Y353543D02*
D03*
X331102D02*
D03*
X328740Y351181D02*
D03*
X331102Y358268D02*
D03*
X328740Y355906D02*
D03*
X326378Y358268D02*
D03*
X331102Y362992D02*
D03*
X328740Y360630D02*
D03*
X326378Y362992D02*
D03*
X331102Y367717D02*
D03*
X328740Y365354D02*
D03*
X326378Y367717D02*
D03*
X331102Y372441D02*
D03*
X328740Y370079D02*
D03*
X326378Y372441D02*
D03*
X328740Y379528D02*
D03*
X326378Y377165D02*
D03*
X328740Y374803D02*
D03*
X331102Y377165D02*
D03*
X323071Y318110D02*
D03*
X320315D02*
D03*
X317559D02*
D03*
X377559D02*
D03*
X380315D02*
D03*
X383071D02*
D03*
X267323Y323622D02*
D03*
Y300394D02*
D03*
Y303543D02*
D03*
X228740Y303937D02*
D03*
Y299606D02*
D03*
Y64173D02*
D03*
Y59449D02*
D03*
Y133386D02*
D03*
Y130236D02*
D03*
X267323Y130315D02*
D03*
Y133465D02*
D03*
Y170315D02*
D03*
Y173465D02*
D03*
X228740Y173386D02*
D03*
Y170236D02*
D03*
Y213386D02*
D03*
Y210236D02*
D03*
X267323Y210315D02*
D03*
Y213465D02*
D03*
Y250315D02*
D03*
Y253465D02*
D03*
X228740Y253386D02*
D03*
Y250236D02*
D03*
X267323Y290315D02*
D03*
Y293465D02*
D03*
X228740Y293386D02*
D03*
Y290236D02*
D03*
Y333386D02*
D03*
Y330236D02*
D03*
X267323Y330315D02*
D03*
Y333465D02*
D03*
Y310315D02*
D03*
Y313465D02*
D03*
X267324Y343544D02*
D03*
Y340394D02*
D03*
X228741Y343938D02*
D03*
Y339607D02*
D03*
X267323Y320394D02*
D03*
X228740Y323937D02*
D03*
Y319606D02*
D03*
Y310236D02*
D03*
Y313386D02*
D03*
X118898Y65748D02*
D03*
X140945D02*
D03*
X117323Y132992D02*
D03*
Y130236D02*
D03*
X169291Y133386D02*
D03*
Y130236D02*
D03*
X117323Y172992D02*
D03*
Y170236D02*
D03*
X169291Y173386D02*
D03*
Y170236D02*
D03*
X117323Y332992D02*
D03*
Y330236D02*
D03*
X169291Y333386D02*
D03*
Y330236D02*
D03*
X117323Y312992D02*
D03*
Y310236D02*
D03*
X169291Y313386D02*
D03*
Y310236D02*
D03*
X117323Y292992D02*
D03*
Y290236D02*
D03*
X169291Y293386D02*
D03*
Y290236D02*
D03*
X117323Y252992D02*
D03*
Y250236D02*
D03*
X169291Y253386D02*
D03*
Y250236D02*
D03*
Y210236D02*
D03*
Y213386D02*
D03*
X117323Y210236D02*
D03*
Y212992D02*
D03*
X343202Y301049D02*
D03*
Y297799D02*
D03*
X346702Y308799D02*
D03*
Y298799D02*
D03*
X348044Y314303D02*
D03*
X403202Y310799D02*
D03*
Y307549D02*
D03*
Y304299D02*
D03*
Y301049D02*
D03*
Y297799D02*
D03*
X406702Y308799D02*
D03*
Y305799D02*
D03*
Y302299D02*
D03*
Y298799D02*
D03*
X408044Y314303D02*
D03*
M02*
