G04*
G04 #@! TF.GenerationSoftware,Altium Limited,Altium Designer,22.7.1 (60)*
G04*
G04 Layer_Physical_Order=1*
G04 Layer_Color=255*
%FSLAX25Y25*%
%MOIN*%
G70*
G04*
G04 #@! TF.SameCoordinates,A659FADA-541E-4391-AA53-56A1AA442C38*
G04*
G04*
G04 #@! TF.FilePolarity,Positive*
G04*
G01*
G75*
%ADD11C,0.00787*%
%ADD12C,0.01968*%
%ADD15C,0.00591*%
%ADD17C,0.01000*%
%ADD18R,0.03150X0.03150*%
G04:AMPARAMS|DCode=19|XSize=19.68mil|YSize=35.43mil|CornerRadius=3.25mil|HoleSize=0mil|Usage=FLASHONLY|Rotation=270.000|XOffset=0mil|YOffset=0mil|HoleType=Round|Shape=RoundedRectangle|*
%AMROUNDEDRECTD19*
21,1,0.01968,0.02894,0,0,270.0*
21,1,0.01319,0.03543,0,0,270.0*
1,1,0.00650,-0.01447,-0.00659*
1,1,0.00650,-0.01447,0.00659*
1,1,0.00650,0.01447,0.00659*
1,1,0.00650,0.01447,-0.00659*
%
%ADD19ROUNDEDRECTD19*%
%ADD20R,0.07874X0.01968*%
%ADD21R,0.07874X0.03937*%
G04:AMPARAMS|DCode=22|XSize=47.24mil|YSize=19.68mil|CornerRadius=2.95mil|HoleSize=0mil|Usage=FLASHONLY|Rotation=0.000|XOffset=0mil|YOffset=0mil|HoleType=Round|Shape=RoundedRectangle|*
%AMROUNDEDRECTD22*
21,1,0.04724,0.01378,0,0,0.0*
21,1,0.04134,0.01968,0,0,0.0*
1,1,0.00591,0.02067,-0.00689*
1,1,0.00591,-0.02067,-0.00689*
1,1,0.00591,-0.02067,0.00689*
1,1,0.00591,0.02067,0.00689*
%
%ADD22ROUNDEDRECTD22*%
%ADD23O,0.03504X0.12047*%
%ADD24R,0.21063X0.33622*%
G04:AMPARAMS|DCode=25|XSize=47.64mil|YSize=71.65mil|CornerRadius=7.86mil|HoleSize=0mil|Usage=FLASHONLY|Rotation=180.000|XOffset=0mil|YOffset=0mil|HoleType=Round|Shape=RoundedRectangle|*
%AMROUNDEDRECTD25*
21,1,0.04764,0.05593,0,0,180.0*
21,1,0.03192,0.07165,0,0,180.0*
1,1,0.01572,-0.01596,0.02797*
1,1,0.01572,0.01596,0.02797*
1,1,0.01572,0.01596,-0.02797*
1,1,0.01572,-0.01596,-0.02797*
%
%ADD25ROUNDEDRECTD25*%
G04:AMPARAMS|DCode=26|XSize=39.37mil|YSize=51.58mil|CornerRadius=6.5mil|HoleSize=0mil|Usage=FLASHONLY|Rotation=90.000|XOffset=0mil|YOffset=0mil|HoleType=Round|Shape=RoundedRectangle|*
%AMROUNDEDRECTD26*
21,1,0.03937,0.03858,0,0,90.0*
21,1,0.02638,0.05158,0,0,90.0*
1,1,0.01299,0.01929,0.01319*
1,1,0.01299,0.01929,-0.01319*
1,1,0.01299,-0.01929,-0.01319*
1,1,0.01299,-0.01929,0.01319*
%
%ADD26ROUNDEDRECTD26*%
G04:AMPARAMS|DCode=27|XSize=19.68mil|YSize=35.43mil|CornerRadius=3.25mil|HoleSize=0mil|Usage=FLASHONLY|Rotation=0.000|XOffset=0mil|YOffset=0mil|HoleType=Round|Shape=RoundedRectangle|*
%AMROUNDEDRECTD27*
21,1,0.01968,0.02894,0,0,0.0*
21,1,0.01319,0.03543,0,0,0.0*
1,1,0.00650,0.00659,-0.01447*
1,1,0.00650,-0.00659,-0.01447*
1,1,0.00650,-0.00659,0.01447*
1,1,0.00650,0.00659,0.01447*
%
%ADD27ROUNDEDRECTD27*%
G04:AMPARAMS|DCode=28|XSize=27.95mil|YSize=34.65mil|CornerRadius=4.61mil|HoleSize=0mil|Usage=FLASHONLY|Rotation=270.000|XOffset=0mil|YOffset=0mil|HoleType=Round|Shape=RoundedRectangle|*
%AMROUNDEDRECTD28*
21,1,0.02795,0.02542,0,0,270.0*
21,1,0.01873,0.03465,0,0,270.0*
1,1,0.00922,-0.01271,-0.00936*
1,1,0.00922,-0.01271,0.00936*
1,1,0.00922,0.01271,0.00936*
1,1,0.00922,0.01271,-0.00936*
%
%ADD28ROUNDEDRECTD28*%
G04:AMPARAMS|DCode=29|XSize=27.95mil|YSize=34.65mil|CornerRadius=4.61mil|HoleSize=0mil|Usage=FLASHONLY|Rotation=180.000|XOffset=0mil|YOffset=0mil|HoleType=Round|Shape=RoundedRectangle|*
%AMROUNDEDRECTD29*
21,1,0.02795,0.02542,0,0,180.0*
21,1,0.01873,0.03465,0,0,180.0*
1,1,0.00922,-0.00936,0.01271*
1,1,0.00922,0.00936,0.01271*
1,1,0.00922,0.00936,-0.01271*
1,1,0.00922,-0.00936,-0.01271*
%
%ADD29ROUNDEDRECTD29*%
%ADD30R,0.14488X0.05000*%
%ADD31R,0.20000X0.05000*%
%ADD32R,0.25197X0.03937*%
%ADD33R,0.25197X0.03937*%
%ADD35C,0.03937*%
%ADD36C,0.21654*%
%ADD37C,0.06653*%
%ADD38C,0.18740*%
%ADD39R,0.06653X0.06653*%
%ADD40C,0.07087*%
%ADD41C,0.15748*%
%ADD43C,0.00394*%
%ADD44C,0.03937*%
%ADD45C,0.00984*%
%ADD46C,0.06000*%
%ADD47C,0.01968*%
%ADD48C,0.01575*%
%ADD49C,0.02362*%
G36*
X628711Y391703D02*
X628711Y299734D01*
X615747Y299734D01*
X615708Y299726D01*
X615668Y299732D01*
X615369Y299717D01*
X615254Y299688D01*
X615135D01*
X614549Y299571D01*
X614403Y299511D01*
X614248Y299480D01*
X613696Y299252D01*
X613564Y299164D01*
X613418Y299103D01*
X612921Y298771D01*
X612810Y298659D01*
X612678Y298572D01*
X612256Y298149D01*
X612168Y298018D01*
X612056Y297906D01*
X611724Y297409D01*
X611663Y297263D01*
X611576Y297131D01*
X611347Y296579D01*
X611316Y296424D01*
X611256Y296278D01*
X611139Y295692D01*
Y295573D01*
X611110Y295458D01*
X611096Y295159D01*
X611107Y295080D01*
X611096Y295002D01*
X611110Y294703D01*
X611139Y294587D01*
Y294468D01*
X611256Y293882D01*
X611316Y293736D01*
X611347Y293581D01*
X611576Y293029D01*
X611663Y292898D01*
X611724Y292752D01*
X612056Y292255D01*
X612168Y292143D01*
X612256Y292011D01*
X612678Y291589D01*
X612810Y291501D01*
X612921Y291389D01*
X613418Y291057D01*
X613564Y290997D01*
X613696Y290909D01*
X614248Y290680D01*
X614403Y290650D01*
X614549Y290589D01*
X615135Y290473D01*
X615254D01*
X615369Y290444D01*
X615668Y290429D01*
X615708Y290435D01*
X615747Y290427D01*
X628711Y290427D01*
X628711Y1210D01*
X1210D01*
X1210Y391703D01*
X628711Y391703D01*
D02*
G37*
%LPC*%
G36*
X317100Y376769D02*
Y373300D01*
X320569D01*
X320497Y373844D01*
X320094Y374817D01*
X319453Y375653D01*
X318617Y376294D01*
X317644Y376697D01*
X317100Y376769D01*
D02*
G37*
G36*
X316100D02*
X315556Y376697D01*
X314583Y376294D01*
X313747Y375653D01*
X313106Y374817D01*
X312703Y373844D01*
X312631Y373300D01*
X316100D01*
Y376769D01*
D02*
G37*
G36*
X377500Y375769D02*
Y372300D01*
X380969D01*
X380897Y372844D01*
X380494Y373817D01*
X379853Y374653D01*
X379017Y375294D01*
X378044Y375697D01*
X377500Y375769D01*
D02*
G37*
G36*
X376500D02*
X375956Y375697D01*
X374983Y375294D01*
X374147Y374653D01*
X373506Y373817D01*
X373103Y372844D01*
X373031Y372300D01*
X376500D01*
Y375769D01*
D02*
G37*
G36*
X320569Y372300D02*
X317100D01*
Y368831D01*
X317644Y368903D01*
X318617Y369306D01*
X319453Y369947D01*
X320094Y370783D01*
X320497Y371756D01*
X320569Y372300D01*
D02*
G37*
G36*
X316100D02*
X312631D01*
X312703Y371756D01*
X313106Y370783D01*
X313747Y369947D01*
X314583Y369306D01*
X315556Y368903D01*
X316100Y368831D01*
Y372300D01*
D02*
G37*
G36*
X380969Y371300D02*
X377500D01*
Y367831D01*
X378044Y367903D01*
X379017Y368306D01*
X379853Y368947D01*
X380494Y369783D01*
X380897Y370756D01*
X380969Y371300D01*
D02*
G37*
G36*
X376500D02*
X373031D01*
X373103Y370756D01*
X373506Y369783D01*
X374147Y368947D01*
X374983Y368306D01*
X375956Y367903D01*
X376500Y367831D01*
Y371300D01*
D02*
G37*
G36*
X418641Y379087D02*
X393444D01*
X393137Y379026D01*
X392876Y378852D01*
X392702Y378591D01*
X392641Y378284D01*
Y374347D01*
X392702Y374040D01*
X392876Y373780D01*
X393137Y373605D01*
X393444Y373544D01*
X395111D01*
Y361973D01*
X416974D01*
Y373544D01*
X418641D01*
X418948Y373605D01*
X419208Y373780D01*
X419382Y374040D01*
X419444Y374347D01*
Y378284D01*
X419382Y378591D01*
X419208Y378852D01*
X418948Y379026D01*
X418641Y379087D01*
D02*
G37*
G36*
X358641D02*
X333444D01*
X333137Y379026D01*
X332876Y378852D01*
X332702Y378591D01*
X332641Y378284D01*
Y374347D01*
X332702Y374040D01*
X332876Y373780D01*
X333137Y373605D01*
X333444Y373544D01*
X335111D01*
Y361973D01*
X356974D01*
Y373544D01*
X358641D01*
X358948Y373605D01*
X359208Y373780D01*
X359382Y374040D01*
X359443Y374347D01*
Y378284D01*
X359382Y378591D01*
X359208Y378852D01*
X358948Y379026D01*
X358641Y379087D01*
D02*
G37*
G36*
X582992Y366022D02*
X581862Y365873D01*
X580808Y365436D01*
X579903Y364742D01*
X579209Y363838D01*
X578773Y362784D01*
X578624Y361653D01*
X578773Y360523D01*
X579209Y359470D01*
X579903Y358565D01*
X580808Y357871D01*
X581862Y357434D01*
X582992Y357285D01*
X584123Y357434D01*
X585176Y357871D01*
X586081Y358565D01*
X586775Y359470D01*
X587211Y360523D01*
X587360Y361653D01*
X587211Y362784D01*
X586775Y363838D01*
X586081Y364742D01*
X585176Y365436D01*
X584123Y365873D01*
X582992Y366022D01*
D02*
G37*
G36*
X542992D02*
X541862Y365873D01*
X540808Y365436D01*
X539903Y364742D01*
X539209Y363838D01*
X538773Y362784D01*
X538624Y361653D01*
X538773Y360523D01*
X539209Y359470D01*
X539903Y358565D01*
X540808Y357871D01*
X541862Y357434D01*
X542992Y357285D01*
X544123Y357434D01*
X545176Y357871D01*
X546081Y358565D01*
X546775Y359470D01*
X547211Y360523D01*
X547360Y361653D01*
X547211Y362784D01*
X546775Y363838D01*
X546081Y364742D01*
X545176Y365436D01*
X544123Y365873D01*
X542992Y366022D01*
D02*
G37*
G36*
X527874D02*
X526744Y365873D01*
X525690Y365436D01*
X524785Y364742D01*
X524091Y363838D01*
X523655Y362784D01*
X523506Y361653D01*
X523655Y360523D01*
X524091Y359470D01*
X524785Y358565D01*
X525690Y357871D01*
X526744Y357434D01*
X527874Y357285D01*
X529005Y357434D01*
X530058Y357871D01*
X530963Y358565D01*
X531657Y359470D01*
X532093Y360523D01*
X532242Y361653D01*
X532093Y362784D01*
X531657Y363838D01*
X530963Y364742D01*
X530058Y365436D01*
X529005Y365873D01*
X527874Y366022D01*
D02*
G37*
G36*
X487874D02*
X486743Y365873D01*
X485690Y365436D01*
X484785Y364742D01*
X484091Y363838D01*
X483655Y362784D01*
X483506Y361653D01*
X483655Y360523D01*
X484091Y359470D01*
X484785Y358565D01*
X485690Y357871D01*
X486743Y357434D01*
X487874Y357285D01*
X489005Y357434D01*
X490058Y357871D01*
X490963Y358565D01*
X491657Y359470D01*
X492093Y360523D01*
X492242Y361653D01*
X492093Y362784D01*
X491657Y363838D01*
X490963Y364742D01*
X490058Y365436D01*
X489005Y365873D01*
X487874Y366022D01*
D02*
G37*
G36*
X464900Y358469D02*
Y355000D01*
X468369D01*
X468297Y355544D01*
X467894Y356517D01*
X467253Y357353D01*
X466417Y357994D01*
X465444Y358397D01*
X464900Y358469D01*
D02*
G37*
G36*
X463900D02*
X463356Y358397D01*
X462383Y357994D01*
X461547Y357353D01*
X460906Y356517D01*
X460503Y355544D01*
X460431Y355000D01*
X463900D01*
Y358469D01*
D02*
G37*
G36*
X454900D02*
Y355000D01*
X458369D01*
X458297Y355544D01*
X457894Y356517D01*
X457253Y357353D01*
X456417Y357994D01*
X455444Y358397D01*
X454900Y358469D01*
D02*
G37*
G36*
X453900D02*
X453356Y358397D01*
X452383Y357994D01*
X451547Y357353D01*
X450906Y356517D01*
X450503Y355544D01*
X450431Y355000D01*
X453900D01*
Y358469D01*
D02*
G37*
G36*
X444900D02*
Y355000D01*
X448369D01*
X448297Y355544D01*
X447894Y356517D01*
X447253Y357353D01*
X446417Y357994D01*
X445444Y358397D01*
X444900Y358469D01*
D02*
G37*
G36*
X443900D02*
X443356Y358397D01*
X442383Y357994D01*
X441547Y357353D01*
X440906Y356517D01*
X440503Y355544D01*
X440431Y355000D01*
X443900D01*
Y358469D01*
D02*
G37*
G36*
X316600Y366620D02*
X315611Y366490D01*
X314690Y366108D01*
X313899Y365501D01*
X313292Y364710D01*
X312910Y363789D01*
X312780Y362800D01*
X312910Y361811D01*
X313292Y360890D01*
X313899Y360099D01*
X314690Y359492D01*
X315611Y359110D01*
X316600Y358980D01*
X317589Y359110D01*
X318186Y359358D01*
X320735Y356809D01*
Y354022D01*
X320235Y353922D01*
X319908Y354710D01*
X319301Y355501D01*
X318510Y356108D01*
X317589Y356490D01*
X316600Y356620D01*
X315611Y356490D01*
X314690Y356108D01*
X313899Y355501D01*
X313292Y354710D01*
X312910Y353789D01*
X312780Y352800D01*
X312910Y351811D01*
X313292Y350890D01*
X313899Y350099D01*
X314690Y349492D01*
X315611Y349110D01*
X316600Y348980D01*
X317589Y349110D01*
X318510Y349492D01*
X319301Y350099D01*
X319908Y350890D01*
X320235Y351678D01*
X320735Y351578D01*
Y348031D01*
X320834Y347529D01*
X321119Y347103D01*
X325844Y342379D01*
X326269Y342094D01*
X326772Y341995D01*
X337645D01*
X339730Y339910D01*
Y339162D01*
X339212Y338816D01*
X338651Y337976D01*
X338600Y337722D01*
X338090D01*
X338070Y337825D01*
X337594Y338537D01*
X336882Y339012D01*
X336543Y339080D01*
Y332713D01*
X335543D01*
Y339080D01*
X335203Y339012D01*
X334491Y338537D01*
X334236Y338154D01*
X333735Y338305D01*
Y338883D01*
X333674Y339190D01*
X333500Y339451D01*
X333240Y339625D01*
X332933Y339686D01*
X324921D01*
X324614Y339625D01*
X324353Y339451D01*
X324179Y339190D01*
X324118Y338883D01*
Y320097D01*
X323618Y319808D01*
X323071Y319917D01*
X322380Y319779D01*
X321794Y319388D01*
X321693Y319327D01*
X321592Y319388D01*
X321006Y319779D01*
X320315Y319917D01*
X319624Y319779D01*
X319038Y319388D01*
X318560Y319572D01*
X318250Y319779D01*
X317559Y319917D01*
X316868Y319779D01*
X316282Y319388D01*
X315890Y318801D01*
X315753Y318110D01*
X315828Y317732D01*
Y317358D01*
X315966Y316667D01*
X316357Y316080D01*
X317089Y315348D01*
Y313190D01*
X317201Y312629D01*
X317380Y312361D01*
X317267Y312285D01*
X317092Y312025D01*
X317031Y311718D01*
Y302269D01*
X317092Y301962D01*
X317267Y301701D01*
X317527Y301527D01*
X317834Y301466D01*
X324118Y301466D01*
Y285812D01*
X324179Y285505D01*
X324353Y285244D01*
X324614Y285070D01*
X324921Y285009D01*
X332933D01*
X333240Y285070D01*
X333500Y285244D01*
X333598Y285391D01*
X334098Y285268D01*
X334098Y283844D01*
X334159Y283536D01*
X334333Y283276D01*
X334594Y283102D01*
X334901Y283041D01*
X339723Y283041D01*
X339915Y282579D01*
X336301Y278965D01*
X335906Y279017D01*
X334917Y278887D01*
X333996Y278505D01*
X333204Y277898D01*
X332597Y277107D01*
X332216Y276186D01*
X332085Y275197D01*
X332216Y274208D01*
X332597Y273287D01*
X333204Y272496D01*
X333996Y271889D01*
X334917Y271507D01*
X335906Y271377D01*
X336894Y271507D01*
X337815Y271889D01*
X338607Y272496D01*
X339214Y273287D01*
X339595Y274208D01*
X339624Y274426D01*
X341880Y276682D01*
X342304Y276399D01*
X342216Y276186D01*
X342085Y275197D01*
X342216Y274208D01*
X342597Y273287D01*
X343204Y272496D01*
X343995Y271889D01*
X344917Y271507D01*
X345905Y271377D01*
X346894Y271507D01*
X347815Y271889D01*
X348607Y272496D01*
X349214Y273287D01*
X349595Y274208D01*
X349726Y275197D01*
X349595Y276186D01*
X349214Y277107D01*
X348665Y277823D01*
X348795Y278323D01*
X353016D01*
X353147Y277823D01*
X352597Y277107D01*
X352216Y276186D01*
X352085Y275197D01*
X352216Y274208D01*
X352597Y273287D01*
X353204Y272496D01*
X353995Y271889D01*
X354917Y271507D01*
X355906Y271377D01*
X356894Y271507D01*
X357816Y271889D01*
X358504Y272417D01*
X379951D01*
X385830Y266538D01*
X386405Y266097D01*
X387076Y265819D01*
X387795Y265724D01*
X432283D01*
X433003Y265819D01*
X433673Y266097D01*
X434249Y266538D01*
X442123Y274412D01*
X442565Y274988D01*
X442842Y275658D01*
X442937Y276378D01*
Y302392D01*
X466365Y325820D01*
X466807Y326396D01*
X467085Y327066D01*
X467180Y327786D01*
Y341901D01*
X467708Y342590D01*
X468090Y343511D01*
X468220Y344500D01*
X468090Y345489D01*
X467708Y346410D01*
X467101Y347201D01*
X466310Y347808D01*
X465389Y348190D01*
X464400Y348320D01*
X463411Y348190D01*
X462490Y347808D01*
X461699Y347201D01*
X461092Y346410D01*
X460710Y345489D01*
X460580Y344500D01*
X460710Y343511D01*
X461092Y342590D01*
X461620Y341901D01*
Y328937D01*
X457350Y324667D01*
X456926Y324950D01*
X457085Y325334D01*
X457180Y326054D01*
Y341901D01*
X457708Y342590D01*
X458090Y343511D01*
X458220Y344500D01*
X458090Y345489D01*
X457708Y346410D01*
X457101Y347201D01*
X456310Y347808D01*
X455389Y348190D01*
X454400Y348320D01*
X453411Y348190D01*
X452490Y347808D01*
X451699Y347201D01*
X451092Y346410D01*
X450710Y345489D01*
X450580Y344500D01*
X450710Y343511D01*
X451092Y342590D01*
X451620Y341901D01*
Y327205D01*
X432286Y307871D01*
X431845Y307295D01*
X431567Y306625D01*
X431472Y305906D01*
Y283041D01*
X426408Y277976D01*
X419859D01*
X419760Y278477D01*
X420288Y278695D01*
X420863Y279137D01*
X424013Y282286D01*
X424454Y282862D01*
X424529Y283041D01*
X428366Y283041D01*
X428673Y283102D01*
X428933Y283276D01*
X429107Y283536D01*
X429169Y283844D01*
X429169Y316917D01*
X429669Y317185D01*
X430142Y316989D01*
X430861Y316894D01*
X431581Y316989D01*
X432251Y317267D01*
X432827Y317708D01*
X433269Y318284D01*
X433546Y318955D01*
X433641Y319674D01*
X433546Y320393D01*
X433269Y321064D01*
X432827Y321640D01*
X432251Y322081D01*
X431581Y322359D01*
X430861Y322454D01*
X430142Y322359D01*
X429669Y322163D01*
X429169Y322431D01*
X429169Y328609D01*
X429528D01*
X430030Y328709D01*
X430456Y328993D01*
X430740Y329419D01*
X430840Y329921D01*
X430740Y330424D01*
X430456Y330849D01*
X430030Y331134D01*
X429528Y331234D01*
X429169D01*
X429169Y338883D01*
X429107Y339190D01*
X428933Y339451D01*
X428673Y339625D01*
X428366Y339686D01*
X419311D01*
X419003Y339625D01*
X418743Y339451D01*
X418569Y339190D01*
X418508Y338883D01*
Y338767D01*
X418008Y338615D01*
X417873Y338816D01*
X417034Y339377D01*
X416043Y339574D01*
X415052Y339377D01*
X414212Y338816D01*
X413843Y338264D01*
X413242D01*
X412874Y338816D01*
X412034Y339377D01*
X411043Y339574D01*
X410052Y339377D01*
X409212Y338816D01*
X408651Y337976D01*
X408600Y337722D01*
X408090D01*
X408070Y337825D01*
X407594Y338537D01*
X406882Y339012D01*
X406543Y339080D01*
Y332713D01*
X405543D01*
Y339080D01*
X405203Y339012D01*
X404491Y338537D01*
X404016Y337825D01*
X403995Y337722D01*
X403485D01*
X403435Y337976D01*
X402874Y338816D01*
X402355Y339162D01*
Y340296D01*
X402255Y340798D01*
X401971Y341224D01*
X399834Y343361D01*
X400041Y343861D01*
X418641D01*
X418948Y343922D01*
X419209Y344096D01*
X419383Y344356D01*
X419444Y344663D01*
Y348600D01*
X419383Y348908D01*
X419209Y349168D01*
X418948Y349342D01*
X418641Y349403D01*
X416974D01*
Y360973D01*
X395111D01*
Y349403D01*
X393444D01*
X393137Y349342D01*
X392877Y349168D01*
X392703Y348908D01*
X392641Y348600D01*
Y344663D01*
X392234Y344226D01*
X389126D01*
X384384Y348969D01*
Y355906D01*
X384284Y356408D01*
X383999Y356834D01*
X380494Y360339D01*
X380690Y360811D01*
X380820Y361800D01*
X380690Y362789D01*
X380308Y363710D01*
X379701Y364501D01*
X378910Y365108D01*
X377989Y365490D01*
X377000Y365620D01*
X376011Y365490D01*
X375090Y365108D01*
X374299Y364501D01*
X373692Y363710D01*
X373310Y362789D01*
X373180Y361800D01*
X373310Y360811D01*
X373692Y359890D01*
X374299Y359099D01*
X375090Y358492D01*
X376011Y358110D01*
X377000Y357980D01*
X377989Y358110D01*
X378711Y358409D01*
X381758Y355362D01*
Y348425D01*
X381858Y347923D01*
X382143Y347497D01*
X387654Y341985D01*
X388080Y341701D01*
X388583Y341601D01*
X397882D01*
X399730Y339752D01*
Y339162D01*
X399212Y338816D01*
X398651Y337976D01*
X398600Y337722D01*
X398090D01*
X398070Y337825D01*
X397594Y338537D01*
X396882Y339012D01*
X396543Y339080D01*
Y332713D01*
X395543D01*
Y339080D01*
X395203Y339012D01*
X394491Y338537D01*
X394235Y338154D01*
X393736Y338305D01*
Y338883D01*
X393674Y339190D01*
X393500Y339451D01*
X393240Y339625D01*
X392933Y339686D01*
X384921D01*
X384614Y339625D01*
X384353Y339451D01*
X384179Y339190D01*
X384118Y338883D01*
Y338856D01*
X383618Y338704D01*
X383605Y338723D01*
X383179Y339008D01*
X382677Y339108D01*
X382175Y339008D01*
X381749Y338723D01*
X381465Y338298D01*
X381461Y338280D01*
X381446Y338265D01*
X381161Y337839D01*
X381061Y337337D01*
Y337014D01*
X379521D01*
Y335539D01*
X381496D01*
Y335039D01*
X381996D01*
Y333065D01*
X383471D01*
Y335324D01*
X383618Y335491D01*
X384118Y335302D01*
Y331589D01*
X383618Y331203D01*
X383465Y331234D01*
X383014D01*
Y331368D01*
X382928Y331802D01*
X382682Y332170D01*
X382314Y332416D01*
X381880Y332502D01*
X380561D01*
X380127Y332416D01*
X379759Y332170D01*
X379513Y331802D01*
X379427Y331368D01*
Y328474D01*
X379513Y328041D01*
X379759Y327673D01*
X380127Y327427D01*
X380561Y327340D01*
X381880D01*
X382314Y327427D01*
X382682Y327673D01*
X382928Y328041D01*
X383014Y328474D01*
Y328609D01*
X383465D01*
X383618Y328639D01*
X384118Y328254D01*
Y320097D01*
X383618Y319808D01*
X383071Y319917D01*
X382380Y319779D01*
X381794Y319388D01*
X381693Y319327D01*
X381592Y319388D01*
X381006Y319779D01*
X380315Y319917D01*
X379624Y319779D01*
X379038Y319388D01*
X378560Y319572D01*
X378250Y319779D01*
X377559Y319917D01*
X376868Y319779D01*
X376282Y319388D01*
X375890Y318801D01*
X375753Y318110D01*
X375828Y317732D01*
Y317358D01*
X375965Y316667D01*
X376357Y316080D01*
X377089Y315348D01*
Y313190D01*
X377201Y312629D01*
X377380Y312361D01*
X377267Y312285D01*
X377093Y312025D01*
X377031Y311718D01*
Y302269D01*
X377093Y301962D01*
X377267Y301701D01*
X377527Y301527D01*
X377834Y301466D01*
X384118Y301466D01*
Y285812D01*
X384179Y285505D01*
X384353Y285244D01*
X384614Y285070D01*
X384921Y285009D01*
X392933D01*
X393240Y285070D01*
X393500Y285244D01*
X393598Y285391D01*
X394098Y285268D01*
X394098Y283844D01*
X394159Y283536D01*
X394333Y283276D01*
X394594Y283102D01*
X394901Y283041D01*
X399566Y283041D01*
X399757Y282579D01*
X396143Y278965D01*
X395748Y279017D01*
X394759Y278887D01*
X393838Y278505D01*
X393047Y277898D01*
X392440Y277107D01*
X392058Y276186D01*
X391928Y275197D01*
X392058Y274208D01*
X392440Y273287D01*
X393047Y272496D01*
X393838Y271889D01*
X394091Y271784D01*
X393992Y271284D01*
X388947D01*
X383068Y277162D01*
X382492Y277604D01*
X381822Y277882D01*
X381102Y277976D01*
X359623D01*
X359524Y278477D01*
X360051Y278695D01*
X360627Y279137D01*
X363642Y282152D01*
X364084Y282728D01*
X364213Y283041D01*
X368366Y283041D01*
X368673Y283102D01*
X368933Y283276D01*
X369107Y283536D01*
X369168Y283844D01*
X369168Y316917D01*
X369669Y317185D01*
X370142Y316989D01*
X370861Y316894D01*
X371581Y316989D01*
X372251Y317267D01*
X372827Y317708D01*
X373269Y318284D01*
X373546Y318955D01*
X373641Y319674D01*
X373546Y320393D01*
X373269Y321064D01*
X372827Y321640D01*
X372251Y322081D01*
X371581Y322359D01*
X370861Y322454D01*
X370142Y322359D01*
X369669Y322163D01*
X369168Y322431D01*
X369168Y328609D01*
X369685D01*
X370187Y328709D01*
X370613Y328993D01*
X370898Y329419D01*
X370998Y329921D01*
X370898Y330424D01*
X370613Y330849D01*
X370187Y331134D01*
X369685Y331234D01*
X369168D01*
X369168Y338883D01*
X369107Y339190D01*
X368933Y339451D01*
X368673Y339625D01*
X368366Y339686D01*
X359311D01*
X359003Y339625D01*
X358743Y339451D01*
X358569Y339190D01*
X358508Y338883D01*
Y338767D01*
X358008Y338615D01*
X357874Y338816D01*
X357034Y339377D01*
X356043Y339574D01*
X355052Y339377D01*
X354212Y338816D01*
X353843Y338264D01*
X353242D01*
X352873Y338816D01*
X352034Y339377D01*
X351043Y339574D01*
X350052Y339377D01*
X349212Y338816D01*
X348651Y337976D01*
X348600Y337722D01*
X348090D01*
X348070Y337825D01*
X347594Y338537D01*
X346882Y339012D01*
X346543Y339080D01*
Y332713D01*
X345543D01*
Y339080D01*
X345203Y339012D01*
X344491Y338537D01*
X344016Y337825D01*
X343995Y337722D01*
X343485D01*
X343435Y337976D01*
X342874Y338816D01*
X342355Y339162D01*
Y340453D01*
X342255Y340956D01*
X341971Y341382D01*
X339954Y343398D01*
X340146Y343860D01*
X358641D01*
X358948Y343921D01*
X359209Y344095D01*
X359383Y344356D01*
X359444Y344663D01*
Y348600D01*
X359383Y348907D01*
X359209Y349168D01*
X358948Y349342D01*
X358641Y349403D01*
X356974D01*
Y360973D01*
X335111D01*
Y349403D01*
X333444D01*
X333137Y349342D01*
X332877Y349168D01*
X332703Y348907D01*
X332642Y348600D01*
Y344663D01*
X332606Y344620D01*
X327315D01*
X323360Y348575D01*
Y357353D01*
X323260Y357855D01*
X322975Y358281D01*
X320042Y361214D01*
X320290Y361811D01*
X320420Y362800D01*
X320290Y363789D01*
X319908Y364710D01*
X319301Y365501D01*
X318510Y366108D01*
X317589Y366490D01*
X316600Y366620D01*
D02*
G37*
G36*
X468369Y354000D02*
X464900D01*
Y350531D01*
X465444Y350603D01*
X466417Y351006D01*
X467253Y351647D01*
X467894Y352483D01*
X468297Y353456D01*
X468369Y354000D01*
D02*
G37*
G36*
X463900D02*
X460431D01*
X460503Y353456D01*
X460906Y352483D01*
X461547Y351647D01*
X462383Y351006D01*
X463356Y350603D01*
X463900Y350531D01*
Y354000D01*
D02*
G37*
G36*
X458369D02*
X454900D01*
Y350531D01*
X455444Y350603D01*
X456417Y351006D01*
X457253Y351647D01*
X457894Y352483D01*
X458297Y353456D01*
X458369Y354000D01*
D02*
G37*
G36*
X453900D02*
X450431D01*
X450503Y353456D01*
X450906Y352483D01*
X451547Y351647D01*
X452383Y351006D01*
X453356Y350603D01*
X453900Y350531D01*
Y354000D01*
D02*
G37*
G36*
X448369D02*
X444900D01*
Y350531D01*
X445444Y350603D01*
X446417Y351006D01*
X447253Y351647D01*
X447894Y352483D01*
X448297Y353456D01*
X448369Y354000D01*
D02*
G37*
G36*
X443900D02*
X440431D01*
X440503Y353456D01*
X440906Y352483D01*
X441547Y351647D01*
X442383Y351006D01*
X443356Y350603D01*
X443900Y350531D01*
Y354000D01*
D02*
G37*
G36*
X377000Y355620D02*
X376011Y355490D01*
X375090Y355108D01*
X374299Y354501D01*
X373692Y353710D01*
X373310Y352789D01*
X373180Y351800D01*
X373310Y350811D01*
X373692Y349890D01*
X374299Y349099D01*
X375090Y348492D01*
X376011Y348110D01*
X377000Y347980D01*
X377989Y348110D01*
X378910Y348492D01*
X379701Y349099D01*
X380308Y349890D01*
X380690Y350811D01*
X380820Y351800D01*
X380690Y352789D01*
X380308Y353710D01*
X379701Y354501D01*
X378910Y355108D01*
X377989Y355490D01*
X377000Y355620D01*
D02*
G37*
G36*
X228741Y345543D02*
X228127Y345421D01*
X227606Y345073D01*
X227257Y344552D01*
X227135Y343938D01*
X226904Y343656D01*
X167709D01*
Y345136D01*
X146134D01*
Y343655D01*
X140709D01*
Y345136D01*
X119134D01*
Y343655D01*
X98938D01*
X98247Y343518D01*
X97660Y343126D01*
X42243Y287708D01*
X41974Y287819D01*
X40900Y287961D01*
X39826Y287819D01*
X38825Y287405D01*
X37966Y286745D01*
X37306Y285886D01*
X36892Y284885D01*
X36750Y283811D01*
X36892Y282737D01*
X37306Y281736D01*
X37966Y280877D01*
X38825Y280217D01*
X39826Y279803D01*
X40900Y279661D01*
X41974Y279803D01*
X42975Y280217D01*
X43834Y280877D01*
X44494Y281736D01*
X44908Y282737D01*
X45050Y283811D01*
X44908Y284885D01*
X44797Y285154D01*
X99686Y340042D01*
X119134D01*
Y338561D01*
X140709D01*
Y340042D01*
X146134D01*
Y338561D01*
X167709D01*
Y340043D01*
X226828D01*
X227145Y339657D01*
X227135Y339607D01*
X227257Y338993D01*
X227606Y338472D01*
X228127Y338124D01*
X228741Y338001D01*
X229355Y338124D01*
X229876Y338472D01*
X229921Y338539D01*
X236288D01*
X236411Y338563D01*
X246319D01*
Y340044D01*
X249744D01*
Y338563D01*
X265807D01*
Y339082D01*
X266454D01*
X266709Y338911D01*
X267324Y338789D01*
X267938Y338911D01*
X268459Y339259D01*
X268807Y339780D01*
X268929Y340394D01*
X268807Y341009D01*
X268459Y341530D01*
X268251Y341669D01*
Y342270D01*
X268459Y342409D01*
X268807Y342930D01*
X268929Y343544D01*
X268807Y344159D01*
X268459Y344679D01*
X267938Y345027D01*
X267324Y345150D01*
X266709Y345027D01*
X266454Y344857D01*
X265807D01*
Y345138D01*
X249744D01*
Y343657D01*
X246319D01*
Y345138D01*
X236417D01*
X236287Y345164D01*
X229741D01*
X229355Y345421D01*
X228741Y345543D01*
D02*
G37*
G36*
X444400Y348320D02*
X443411Y348190D01*
X442490Y347808D01*
X441699Y347201D01*
X441092Y346410D01*
X440710Y345489D01*
X440580Y344500D01*
X440710Y343511D01*
X441092Y342590D01*
X441699Y341799D01*
X442490Y341192D01*
X443411Y340810D01*
X444400Y340680D01*
X445389Y340810D01*
X446310Y341192D01*
X447101Y341799D01*
X447708Y342590D01*
X448090Y343511D01*
X448220Y344500D01*
X448090Y345489D01*
X447708Y346410D01*
X447101Y347201D01*
X446310Y347808D01*
X445389Y348190D01*
X444400Y348320D01*
D02*
G37*
G36*
X508374Y345482D02*
Y337114D01*
X516742D01*
X516620Y338354D01*
X516112Y340026D01*
X515288Y341568D01*
X514179Y342919D01*
X512828Y344028D01*
X511286Y344852D01*
X509614Y345360D01*
X508374Y345482D01*
D02*
G37*
G36*
X507374Y345482D02*
X506134Y345360D01*
X504462Y344852D01*
X502920Y344028D01*
X501569Y342919D01*
X500460Y341568D01*
X499636Y340026D01*
X499128Y338354D01*
X499006Y337114D01*
X507374D01*
Y345482D01*
D02*
G37*
G36*
X319685Y339108D02*
X319183Y339008D01*
X318757Y338723D01*
X318472Y338298D01*
X318372Y337795D01*
Y337014D01*
X317710D01*
Y335539D01*
X319685D01*
X321660D01*
Y337014D01*
X320998D01*
Y337795D01*
X320898Y338298D01*
X320613Y338723D01*
X320187Y339008D01*
X319685Y339108D01*
D02*
G37*
G36*
X321660Y334539D02*
X320185D01*
Y333065D01*
X321660D01*
Y334539D01*
D02*
G37*
G36*
X319185D02*
X317710D01*
Y333065D01*
X319185D01*
Y334539D01*
D02*
G37*
G36*
X380996Y334539D02*
X379521D01*
Y333065D01*
X380996D01*
Y334539D01*
D02*
G37*
G36*
X245932Y334750D02*
X238787D01*
Y332350D01*
X245932D01*
Y334750D01*
D02*
G37*
G36*
X257276D02*
X250132D01*
Y332350D01*
X257276D01*
Y334750D01*
D02*
G37*
G36*
X140321Y334749D02*
X130421D01*
Y332349D01*
X140321D01*
Y334749D01*
D02*
G37*
G36*
X156421D02*
X146521D01*
Y332349D01*
X156421D01*
Y334749D01*
D02*
G37*
G36*
X267323Y334777D02*
X259390D01*
X259255Y334750D01*
X258276D01*
Y331850D01*
Y328950D01*
X265420D01*
Y329002D01*
X267323D01*
X267825Y329102D01*
X268251Y329387D01*
X268535Y329813D01*
X268636Y330315D01*
X268535Y330817D01*
X268251Y331243D01*
X267825Y331528D01*
X267323Y331628D01*
X265420D01*
Y332152D01*
X267323D01*
X267825Y332252D01*
X268251Y332536D01*
X268535Y332962D01*
X268636Y333465D01*
X268535Y333967D01*
X268251Y334393D01*
X267825Y334677D01*
X267323Y334777D01*
D02*
G37*
G36*
X257276Y331350D02*
X250132D01*
Y328950D01*
X257276D01*
Y331350D01*
D02*
G37*
G36*
X245932Y331350D02*
X238787D01*
Y328950D01*
X245932D01*
Y331350D01*
D02*
G37*
G36*
X156421Y331349D02*
X146521D01*
Y328949D01*
X156421D01*
Y331349D01*
D02*
G37*
G36*
X140321D02*
X130421D01*
Y328949D01*
X140321D01*
Y331349D01*
D02*
G37*
G36*
X237787Y334750D02*
X230643D01*
Y334699D01*
X228740D01*
X228238Y334598D01*
X227812Y334314D01*
X227527Y333888D01*
X227428Y333386D01*
X227527Y332884D01*
X227812Y332458D01*
X228238Y332173D01*
X228740Y332073D01*
X230643D01*
Y331549D01*
X228740D01*
X228238Y331449D01*
X227812Y331164D01*
X227527Y330738D01*
X227428Y330236D01*
X227527Y329734D01*
X227812Y329308D01*
X228238Y329024D01*
X228740Y328924D01*
X236673D01*
X236808Y328950D01*
X237787D01*
Y331850D01*
Y334750D01*
D02*
G37*
G36*
X167321Y334749D02*
X157421D01*
Y331849D01*
Y328949D01*
X158407D01*
X158534Y328924D01*
X169291D01*
X169794Y329024D01*
X170220Y329308D01*
X170504Y329734D01*
X170604Y330236D01*
X170504Y330738D01*
X170220Y331164D01*
X169794Y331449D01*
X169291Y331549D01*
X167321D01*
Y332073D01*
X169291D01*
X169794Y332173D01*
X170220Y332458D01*
X170504Y332884D01*
X170604Y333386D01*
X170504Y333888D01*
X170220Y334314D01*
X169794Y334598D01*
X169291Y334699D01*
X167321D01*
Y334749D01*
D02*
G37*
G36*
X129421D02*
X119521D01*
Y334305D01*
X117323D01*
X116821Y334205D01*
X116395Y333920D01*
X116110Y333494D01*
X116010Y332992D01*
X116110Y332490D01*
X116395Y332064D01*
X116652Y331892D01*
X116658Y331875D01*
Y331353D01*
X116652Y331336D01*
X116395Y331164D01*
X116110Y330738D01*
X116010Y330236D01*
X116110Y329734D01*
X116395Y329308D01*
X116821Y329024D01*
X117323Y328924D01*
X128309D01*
X128436Y328949D01*
X129421D01*
Y331849D01*
Y334749D01*
D02*
G37*
G36*
X507374Y336114D02*
X499006D01*
X499128Y334875D01*
X499636Y333202D01*
X500460Y331660D01*
X501569Y330309D01*
X502920Y329200D01*
X504462Y328376D01*
X506134Y327869D01*
X507374Y327747D01*
Y336114D01*
D02*
G37*
G36*
X516742D02*
X508374D01*
Y327747D01*
X509614Y327869D01*
X511286Y328376D01*
X512828Y329200D01*
X514179Y330309D01*
X515288Y331660D01*
X516112Y333202D01*
X516620Y334875D01*
X516742Y336114D01*
D02*
G37*
G36*
X320069Y332502D02*
X318750D01*
X318316Y332416D01*
X317948Y332170D01*
X317702Y331802D01*
X317616Y331368D01*
Y328474D01*
X317702Y328041D01*
X317948Y327673D01*
X318316Y327427D01*
X318750Y327340D01*
X320069D01*
X320503Y327427D01*
X320871Y327673D01*
X321117Y328041D01*
X321203Y328474D01*
Y328609D01*
X322047D01*
X322550Y328709D01*
X322975Y328993D01*
X323260Y329419D01*
X323360Y329921D01*
X323260Y330424D01*
X322975Y330849D01*
X322550Y331134D01*
X322047Y331234D01*
X321203D01*
Y331368D01*
X321117Y331802D01*
X320871Y332170D01*
X320503Y332416D01*
X320069Y332502D01*
D02*
G37*
G36*
X315748Y337402D02*
X311024D01*
Y332677D01*
X312124D01*
X312211Y332177D01*
X312200Y332170D01*
X311954Y331802D01*
X311868Y331368D01*
Y328474D01*
X311954Y328041D01*
X312200Y327673D01*
X312568Y327427D01*
X313002Y327340D01*
X314321D01*
X314755Y327427D01*
X315123Y327673D01*
X315369Y328041D01*
X315455Y328474D01*
Y331368D01*
X315369Y331802D01*
X315123Y332170D01*
X315112Y332177D01*
X315264Y332677D01*
X315748D01*
Y337402D01*
D02*
G37*
G36*
X377559Y337402D02*
X372835D01*
Y332677D01*
X373935D01*
X374022Y332177D01*
X374011Y332170D01*
X373765Y331802D01*
X373679Y331368D01*
Y328474D01*
X373765Y328041D01*
X374011Y327673D01*
X374379Y327427D01*
X374813Y327340D01*
X376132D01*
X376566Y327427D01*
X376934Y327673D01*
X377180Y328041D01*
X377266Y328474D01*
Y331368D01*
X377180Y331802D01*
X376934Y332170D01*
X376923Y332177D01*
X377075Y332677D01*
X377559D01*
Y337402D01*
D02*
G37*
G36*
X228740Y325543D02*
X228126Y325420D01*
X227605Y325072D01*
X227257Y324552D01*
X227134Y323937D01*
X226904Y323656D01*
X167709D01*
Y325136D01*
X146134D01*
Y323655D01*
X140709D01*
Y325136D01*
X119134D01*
Y323655D01*
X88778D01*
X88087Y323518D01*
X87501Y323126D01*
X50804Y286429D01*
X50412Y285843D01*
X50275Y285152D01*
Y282081D01*
X50006Y281970D01*
X49147Y281310D01*
X48487Y280451D01*
X48073Y279450D01*
X47931Y278376D01*
X48073Y277302D01*
X48487Y276301D01*
X49147Y275442D01*
X49400Y275247D01*
X49231Y274747D01*
X44605D01*
X44494Y275016D01*
X43834Y275875D01*
X42975Y276535D01*
X41974Y276949D01*
X40900Y277091D01*
X39826Y276949D01*
X38825Y276535D01*
X37966Y275875D01*
X37306Y275016D01*
X36892Y274015D01*
X36750Y272941D01*
X36892Y271867D01*
X37306Y270866D01*
X37966Y270007D01*
X38825Y269347D01*
X39826Y268933D01*
X40900Y268791D01*
X41974Y268933D01*
X42975Y269347D01*
X43834Y270007D01*
X44494Y270866D01*
X44605Y271135D01*
X48925D01*
X49086Y270661D01*
X48995Y270592D01*
X48302Y269688D01*
X47866Y268635D01*
X47783Y268006D01*
X52081D01*
Y267006D01*
X47783D01*
X47866Y266376D01*
X48302Y265324D01*
X48700Y264805D01*
X48453Y264305D01*
X44372D01*
X43834Y265005D01*
X42975Y265665D01*
X41974Y266079D01*
X40900Y266220D01*
X39826Y266079D01*
X38825Y265665D01*
X37966Y265005D01*
X37306Y264146D01*
X36892Y263145D01*
X36750Y262071D01*
X36892Y260997D01*
X37306Y259996D01*
X37966Y259137D01*
X38825Y258477D01*
X39826Y258063D01*
X40900Y257921D01*
X41974Y258063D01*
X42975Y258477D01*
X43834Y259137D01*
X44494Y259996D01*
X44908Y260997D01*
X44998Y261680D01*
X55905D01*
X56408Y261779D01*
X56834Y262064D01*
X59443Y264674D01*
X59820Y264343D01*
X59668Y264146D01*
X59254Y263145D01*
X59113Y262071D01*
X59254Y260997D01*
X59668Y259996D01*
X60328Y259137D01*
X61187Y258477D01*
X61257Y258449D01*
X61157Y257948D01*
X55990D01*
X55675Y258711D01*
X55015Y259570D01*
X54156Y260230D01*
X53155Y260644D01*
X52081Y260786D01*
X51007Y260644D01*
X50006Y260230D01*
X49147Y259570D01*
X48487Y258711D01*
X48073Y257710D01*
X47931Y256636D01*
X48073Y255562D01*
X48487Y254561D01*
X49147Y253702D01*
X50006Y253042D01*
X51007Y252628D01*
X52081Y252486D01*
X53155Y252628D01*
X54156Y253042D01*
X55015Y253702D01*
X55675Y254561D01*
X55990Y255323D01*
X61157D01*
X61257Y254823D01*
X61187Y254795D01*
X60328Y254135D01*
X59668Y253276D01*
X59254Y252275D01*
X59113Y251201D01*
X59254Y250127D01*
X59668Y249126D01*
X60328Y248267D01*
X61187Y247607D01*
X62188Y247193D01*
X63262Y247051D01*
X64336Y247193D01*
X65337Y247607D01*
X66197Y248267D01*
X66856Y249126D01*
X67270Y250127D01*
X67380Y250956D01*
X76960Y260536D01*
X119134D01*
Y258561D01*
X140709D01*
Y263280D01*
X142652Y265223D01*
X145670D01*
X146134Y265136D01*
X146134Y264723D01*
Y258561D01*
X167709D01*
Y260105D01*
X168898D01*
X169400Y260205D01*
X169826Y260489D01*
X170110Y260915D01*
X170210Y261417D01*
X170110Y261920D01*
X169826Y262346D01*
X169400Y262630D01*
X168898Y262730D01*
X167709D01*
X167709Y265136D01*
X168173Y265223D01*
X228315D01*
X230256Y263281D01*
Y258563D01*
X244463D01*
X247261Y255765D01*
X247687Y255480D01*
X248189Y255380D01*
X271897D01*
X285685Y241592D01*
X286111Y241308D01*
X286613Y241208D01*
X447053D01*
X447072Y241183D01*
X446827Y240683D01*
X446063D01*
X445561Y240583D01*
X445135Y240298D01*
X444850Y239872D01*
X444750Y239370D01*
X444850Y238868D01*
X445135Y238442D01*
X445561Y238157D01*
X446063Y238057D01*
X446823D01*
X447069Y237558D01*
X447051Y237534D01*
X249204D01*
X246319Y240419D01*
Y245138D01*
X232112D01*
X229471Y247779D01*
X229046Y248063D01*
X228543Y248163D01*
X142423D01*
X141920Y248063D01*
X141495Y247779D01*
X138852Y245136D01*
X119134D01*
Y243161D01*
X69325D01*
X66676Y245810D01*
X66250Y246095D01*
X65748Y246195D01*
X59842D01*
X59340Y246095D01*
X58914Y245810D01*
X54748Y241643D01*
X54186D01*
X54087Y242143D01*
X54156Y242172D01*
X55015Y242831D01*
X55675Y243691D01*
X56089Y244692D01*
X56231Y245766D01*
X56089Y246840D01*
X55675Y247841D01*
X55015Y248700D01*
X54156Y249359D01*
X53155Y249774D01*
X52081Y249915D01*
X51007Y249774D01*
X50006Y249359D01*
X49147Y248700D01*
X48487Y247841D01*
X48073Y246840D01*
X47931Y245766D01*
X48073Y244692D01*
X48487Y243691D01*
X49147Y242831D01*
X50006Y242172D01*
X50076Y242143D01*
X49976Y241643D01*
X44809D01*
X44494Y242406D01*
X43834Y243265D01*
X42975Y243924D01*
X41974Y244339D01*
X40900Y244480D01*
X39826Y244339D01*
X38825Y243924D01*
X37966Y243265D01*
X37306Y242406D01*
X36892Y241405D01*
X36750Y240331D01*
X36892Y239257D01*
X37306Y238256D01*
X37966Y237397D01*
X38825Y236737D01*
X39826Y236322D01*
X40900Y236181D01*
X41974Y236322D01*
X42975Y236737D01*
X43834Y237397D01*
X44494Y238256D01*
X44809Y239018D01*
X49976D01*
X50076Y238518D01*
X50006Y238489D01*
X49147Y237830D01*
X48487Y236970D01*
X48073Y235970D01*
X47931Y234896D01*
X48073Y233822D01*
X48487Y232821D01*
X49147Y231961D01*
X50006Y231302D01*
X50076Y231273D01*
X49976Y230773D01*
X44809D01*
X44494Y231536D01*
X43834Y232395D01*
X42975Y233054D01*
X41974Y233469D01*
X40900Y233610D01*
X39826Y233469D01*
X38825Y233054D01*
X37966Y232395D01*
X37306Y231536D01*
X36892Y230535D01*
X36750Y229461D01*
X36892Y228387D01*
X37306Y227386D01*
X37966Y226526D01*
X38825Y225867D01*
X39826Y225452D01*
X40900Y225311D01*
X41974Y225452D01*
X42975Y225867D01*
X43834Y226526D01*
X44494Y227386D01*
X44809Y228148D01*
X49976D01*
X50076Y227648D01*
X50006Y227619D01*
X49147Y226960D01*
X48487Y226100D01*
X48073Y225100D01*
X47931Y224026D01*
X48073Y222952D01*
X48487Y221951D01*
X49147Y221091D01*
X50006Y220432D01*
X51007Y220017D01*
X52081Y219876D01*
X53155Y220017D01*
X54156Y220432D01*
X55015Y221091D01*
X55675Y221951D01*
X56089Y222952D01*
X56160Y223491D01*
X65992D01*
X68562Y220921D01*
X68987Y220636D01*
X69490Y220536D01*
X119134D01*
Y218561D01*
X140709D01*
Y223280D01*
X142494Y225065D01*
X146134D01*
Y218561D01*
X167709D01*
Y220341D01*
X168898D01*
X169400Y220441D01*
X169826Y220725D01*
X170110Y221151D01*
X170210Y221654D01*
X170110Y222156D01*
X169826Y222582D01*
X169400Y222866D01*
X168898Y222966D01*
X167709D01*
Y225065D01*
X228472D01*
X230256Y223282D01*
Y218563D01*
X244463D01*
X247025Y216001D01*
X247450Y215716D01*
X247953Y215616D01*
X357874D01*
X358376Y215716D01*
X358802Y216001D01*
X365111Y222310D01*
X447053D01*
X447072Y222285D01*
X446827Y221785D01*
X446063D01*
X445561Y221685D01*
X445135Y221401D01*
X444850Y220975D01*
X444750Y220472D01*
X444850Y219970D01*
X445135Y219544D01*
X445561Y219260D01*
X446063Y219160D01*
X446823D01*
X447069Y218660D01*
X447051Y218636D01*
X366536D01*
X366034Y218536D01*
X365608Y218252D01*
X355362Y208005D01*
X247874D01*
X247372Y207906D01*
X246946Y207621D01*
X244463Y205138D01*
X232112D01*
X229629Y207621D01*
X229203Y207906D01*
X228701Y208005D01*
X142265D01*
X141763Y207906D01*
X141337Y207621D01*
X138852Y205136D01*
X119134D01*
Y202887D01*
X109599D01*
X92967Y219519D01*
X92542Y219803D01*
X92039Y219903D01*
X67172D01*
X66856Y220665D01*
X66197Y221525D01*
X65337Y222184D01*
X64336Y222599D01*
X63262Y222740D01*
X62188Y222599D01*
X61187Y222184D01*
X60328Y221525D01*
X59668Y220665D01*
X59254Y219665D01*
X59113Y218591D01*
X59254Y217517D01*
X59668Y216516D01*
X60328Y215656D01*
X61187Y214997D01*
X62188Y214582D01*
X63262Y214441D01*
X64336Y214582D01*
X65337Y214997D01*
X66197Y215656D01*
X66856Y216516D01*
X67172Y217278D01*
X91496D01*
X108127Y200647D01*
X108553Y200362D01*
X109055Y200262D01*
X119134D01*
Y198561D01*
X140709D01*
Y203280D01*
X142809Y205380D01*
X145735D01*
X146134Y205136D01*
X146134Y204880D01*
Y198663D01*
X146134Y198561D01*
X145889Y198163D01*
X142423D01*
X141920Y198063D01*
X141495Y197778D01*
X138852Y195136D01*
X119134D01*
Y193161D01*
X111451D01*
X95964Y208649D01*
X95538Y208933D01*
X95035Y209033D01*
X67172D01*
X66856Y209795D01*
X66197Y210655D01*
X65337Y211314D01*
X64336Y211729D01*
X63262Y211870D01*
X62188Y211729D01*
X61187Y211314D01*
X60328Y210655D01*
X59668Y209795D01*
X59254Y208794D01*
X59113Y207720D01*
X59254Y206646D01*
X59668Y205646D01*
X60328Y204786D01*
X61187Y204127D01*
X62188Y203712D01*
X63262Y203571D01*
X64336Y203712D01*
X65337Y204127D01*
X66197Y204786D01*
X66856Y205646D01*
X67172Y206408D01*
X94492D01*
X109979Y190921D01*
X110405Y190636D01*
X110907Y190536D01*
X119134D01*
Y188561D01*
X140709D01*
Y193280D01*
X142967Y195538D01*
X145896D01*
X146134Y195136D01*
X146134Y195038D01*
Y188561D01*
X167709D01*
Y190420D01*
X168898D01*
X169400Y190520D01*
X169826Y190804D01*
X170110Y191230D01*
X170210Y191732D01*
X170110Y192235D01*
X169826Y192660D01*
X169400Y192945D01*
X168898Y193045D01*
X167709D01*
Y195038D01*
X167709Y195136D01*
X167946Y195538D01*
X228000D01*
X230256Y193281D01*
Y188563D01*
X246319D01*
Y193281D01*
X248575Y195538D01*
X249503D01*
X249744Y195138D01*
X249744Y195038D01*
Y188821D01*
X249744Y188563D01*
X249344Y188321D01*
X248189D01*
X247687Y188221D01*
X247261Y187936D01*
X244463Y185138D01*
X232112D01*
X229708Y187542D01*
X229282Y187827D01*
X228780Y187927D01*
X142187D01*
X141684Y187827D01*
X141259Y187542D01*
X138852Y185136D01*
X119134D01*
Y183161D01*
X113183D01*
X94345Y201999D01*
X93920Y202284D01*
X93417Y202383D01*
X59339D01*
X58836Y202284D01*
X58410Y201999D01*
X54676Y198264D01*
X54463Y198297D01*
X54328Y198824D01*
X55015Y199351D01*
X55675Y200211D01*
X56089Y201211D01*
X56231Y202285D01*
X56089Y203359D01*
X55675Y204360D01*
X55015Y205220D01*
X54156Y205879D01*
X53155Y206294D01*
X52081Y206435D01*
X51007Y206294D01*
X50006Y205879D01*
X49147Y205220D01*
X48487Y204360D01*
X48073Y203359D01*
X47931Y202285D01*
X48073Y201211D01*
X48487Y200211D01*
X49147Y199351D01*
X50006Y198692D01*
X50076Y198663D01*
X49976Y198163D01*
X44809D01*
X44494Y198925D01*
X43834Y199785D01*
X42975Y200444D01*
X41974Y200859D01*
X40900Y201000D01*
X39826Y200859D01*
X38825Y200444D01*
X37966Y199785D01*
X37306Y198925D01*
X36892Y197924D01*
X36750Y196850D01*
X36892Y195776D01*
X37306Y194776D01*
X37966Y193916D01*
X38825Y193257D01*
X39826Y192842D01*
X40900Y192701D01*
X41974Y192842D01*
X42975Y193257D01*
X43834Y193916D01*
X44494Y194776D01*
X44809Y195538D01*
X49976D01*
X50076Y195038D01*
X50006Y195009D01*
X49147Y194350D01*
X48487Y193490D01*
X48073Y192489D01*
X47931Y191415D01*
X48073Y190341D01*
X48487Y189340D01*
X49147Y188481D01*
X50006Y187822D01*
X51007Y187407D01*
X52081Y187266D01*
X53155Y187407D01*
X54156Y187822D01*
X55015Y188481D01*
X55675Y189340D01*
X55990Y190103D01*
X61157D01*
X61257Y189603D01*
X61187Y189574D01*
X60328Y188915D01*
X59668Y188055D01*
X59254Y187054D01*
X59113Y185980D01*
X59254Y184906D01*
X59668Y183905D01*
X60328Y183046D01*
X61187Y182387D01*
X61257Y182358D01*
X61157Y181858D01*
X55990D01*
X55675Y182620D01*
X55015Y183479D01*
X54156Y184139D01*
X53155Y184554D01*
X52081Y184695D01*
X51007Y184554D01*
X50006Y184139D01*
X49147Y183479D01*
X48487Y182620D01*
X48073Y181619D01*
X47931Y180545D01*
X48073Y179471D01*
X48487Y178470D01*
X49147Y177611D01*
X50006Y176952D01*
X51007Y176537D01*
X52081Y176396D01*
X53155Y176537D01*
X54156Y176952D01*
X55015Y177611D01*
X55675Y178470D01*
X55990Y179233D01*
X61157D01*
X61257Y178733D01*
X61187Y178704D01*
X60328Y178044D01*
X59668Y177185D01*
X59254Y176184D01*
X59113Y175110D01*
X59254Y174036D01*
X59668Y173035D01*
X60328Y172176D01*
X61187Y171517D01*
X62188Y171102D01*
X62140Y170604D01*
X60496D01*
X59994Y170504D01*
X59568Y170220D01*
X54901Y165553D01*
X54186D01*
X54087Y166053D01*
X54156Y166082D01*
X55015Y166741D01*
X55675Y167600D01*
X56089Y168601D01*
X56231Y169675D01*
X56089Y170749D01*
X55675Y171750D01*
X55015Y172609D01*
X54156Y173269D01*
X53155Y173684D01*
X52081Y173825D01*
X51007Y173684D01*
X50006Y173269D01*
X49147Y172609D01*
X48487Y171750D01*
X48073Y170749D01*
X47931Y169675D01*
X48073Y168601D01*
X48487Y167600D01*
X49147Y166741D01*
X50006Y166082D01*
X50076Y166053D01*
X49976Y165553D01*
X44809D01*
X44494Y166315D01*
X43834Y167174D01*
X42975Y167834D01*
X41974Y168248D01*
X40900Y168390D01*
X39826Y168248D01*
X38825Y167834D01*
X37966Y167174D01*
X37306Y166315D01*
X36892Y165314D01*
X36750Y164240D01*
X36892Y163166D01*
X37306Y162165D01*
X37966Y161306D01*
X38825Y160646D01*
X39826Y160232D01*
X40900Y160090D01*
X41974Y160232D01*
X42975Y160646D01*
X43834Y161306D01*
X44494Y162165D01*
X44809Y162927D01*
X49976D01*
X50076Y162427D01*
X50006Y162399D01*
X49147Y161739D01*
X48487Y160880D01*
X48073Y159879D01*
X47931Y158805D01*
X48073Y157731D01*
X48487Y156730D01*
X49147Y155871D01*
X50006Y155211D01*
X50076Y155183D01*
X49976Y154683D01*
X44809D01*
X44494Y155445D01*
X43834Y156304D01*
X42975Y156964D01*
X41974Y157378D01*
X40900Y157520D01*
X39826Y157378D01*
X38825Y156964D01*
X37966Y156304D01*
X37306Y155445D01*
X36892Y154444D01*
X36750Y153370D01*
X36892Y152296D01*
X37306Y151295D01*
X37966Y150436D01*
X38825Y149776D01*
X39826Y149362D01*
X40900Y149220D01*
X41974Y149362D01*
X42975Y149776D01*
X43834Y150436D01*
X44494Y151295D01*
X44809Y152058D01*
X49976D01*
X50076Y151558D01*
X50006Y151529D01*
X49147Y150869D01*
X48487Y150010D01*
X48073Y149009D01*
X47931Y147935D01*
X48073Y146861D01*
X48487Y145860D01*
X49147Y145001D01*
X50006Y144341D01*
X51007Y143927D01*
X52081Y143785D01*
X53155Y143927D01*
X54156Y144341D01*
X55015Y145001D01*
X55675Y145860D01*
X55990Y146622D01*
X61157D01*
X61257Y146122D01*
X61187Y146094D01*
X60328Y145434D01*
X59668Y144575D01*
X59254Y143574D01*
X59113Y142500D01*
X59254Y141426D01*
X59668Y140425D01*
X60328Y139566D01*
X61187Y138906D01*
X62188Y138492D01*
X63262Y138350D01*
X64336Y138492D01*
X65098Y138807D01*
X112985Y90921D01*
X113411Y90636D01*
X113913Y90536D01*
X119134D01*
Y88561D01*
X140709D01*
Y93280D01*
X142967Y95538D01*
X145896D01*
X146134Y95136D01*
X146134Y95038D01*
Y88820D01*
X146134Y88561D01*
X145734Y88320D01*
X142580D01*
X142078Y88221D01*
X141652Y87936D01*
X138852Y85136D01*
X119134D01*
Y83161D01*
X115545D01*
X71401Y127306D01*
X70975Y127591D01*
X70473Y127691D01*
X65708D01*
X65538Y128191D01*
X66197Y128696D01*
X66856Y129555D01*
X67270Y130556D01*
X67412Y131630D01*
X67270Y132704D01*
X66856Y133705D01*
X66197Y134564D01*
X65337Y135224D01*
X64336Y135638D01*
X63262Y135780D01*
X62188Y135638D01*
X61187Y135224D01*
X60328Y134564D01*
X59668Y133705D01*
X59254Y132704D01*
X59113Y131630D01*
X59254Y130556D01*
X59423Y130149D01*
X58999Y129866D01*
X54998Y133866D01*
X55015Y134131D01*
X55675Y134990D01*
X56089Y135991D01*
X56231Y137065D01*
X56089Y138139D01*
X55675Y139140D01*
X55015Y139999D01*
X54156Y140659D01*
X53155Y141073D01*
X52081Y141215D01*
X51007Y141073D01*
X50006Y140659D01*
X49147Y139999D01*
X48487Y139140D01*
X48073Y138139D01*
X47931Y137065D01*
X48073Y135991D01*
X48487Y134990D01*
X49147Y134131D01*
X50006Y133471D01*
X51007Y133057D01*
X52081Y132915D01*
X52218Y132933D01*
X59702Y125450D01*
X60128Y125165D01*
X60630Y125065D01*
X61599D01*
X61699Y124565D01*
X61187Y124354D01*
X60328Y123694D01*
X59668Y122835D01*
X59254Y121834D01*
X59113Y120760D01*
X59254Y119686D01*
X58829Y119405D01*
X56546Y121688D01*
X56120Y121973D01*
X55618Y122073D01*
X54637D01*
X54468Y122573D01*
X55167Y123109D01*
X55861Y124013D01*
X56296Y125065D01*
X56379Y125695D01*
X47783D01*
X47866Y125065D01*
X48302Y124013D01*
X48995Y123109D01*
X49694Y122573D01*
X49525Y122073D01*
X44809D01*
X44494Y122835D01*
X43834Y123694D01*
X42975Y124354D01*
X41974Y124768D01*
X40900Y124909D01*
X39826Y124768D01*
X38825Y124354D01*
X37966Y123694D01*
X37306Y122835D01*
X36892Y121834D01*
X36750Y120760D01*
X36892Y119686D01*
X37306Y118685D01*
X37966Y117826D01*
X38825Y117166D01*
X39826Y116752D01*
X40900Y116610D01*
X41974Y116752D01*
X42975Y117166D01*
X43834Y117826D01*
X44494Y118685D01*
X44809Y119447D01*
X49976D01*
X50076Y118947D01*
X50006Y118919D01*
X49147Y118259D01*
X48487Y117400D01*
X48073Y116399D01*
X47931Y115325D01*
X48073Y114251D01*
X48487Y113250D01*
X49147Y112391D01*
X50006Y111731D01*
X51007Y111317D01*
X52081Y111175D01*
X53155Y111317D01*
X54156Y111731D01*
X55015Y112391D01*
X55675Y113250D01*
X56089Y114251D01*
X56231Y115325D01*
X56089Y116399D01*
X55675Y117400D01*
X55015Y118259D01*
X54156Y118919D01*
X54087Y118947D01*
X54186Y119447D01*
X55074D01*
X59702Y114820D01*
X60128Y114535D01*
X60630Y114435D01*
X62439D01*
X62472Y113935D01*
X62188Y113898D01*
X61187Y113484D01*
X60328Y112824D01*
X59668Y111965D01*
X59254Y110964D01*
X59113Y109890D01*
X59254Y108816D01*
X59668Y107815D01*
X60328Y106956D01*
X61187Y106296D01*
X62188Y105882D01*
X62741Y105809D01*
X62884Y105521D01*
X62903Y105283D01*
X62866Y105250D01*
X47396D01*
X44592Y108054D01*
X44908Y108816D01*
X45050Y109890D01*
X44908Y110964D01*
X44494Y111965D01*
X43834Y112824D01*
X42975Y113484D01*
X41974Y113898D01*
X40900Y114039D01*
X39826Y113898D01*
X38825Y113484D01*
X37966Y112824D01*
X37306Y111965D01*
X36892Y110964D01*
X36750Y109890D01*
X36892Y108816D01*
X37306Y107815D01*
X37966Y106956D01*
X38825Y106296D01*
X39826Y105882D01*
X40900Y105740D01*
X41974Y105882D01*
X42736Y106197D01*
X45925Y103009D01*
X46350Y102724D01*
X46853Y102624D01*
X69789D01*
X119134Y53280D01*
Y48561D01*
X140709D01*
Y53280D01*
X142809Y55380D01*
X145735D01*
X146134Y55136D01*
X146134Y54880D01*
Y48561D01*
X167709D01*
Y50656D01*
X168898D01*
X169400Y50756D01*
X169826Y51040D01*
X170110Y51466D01*
X170210Y51968D01*
X170110Y52471D01*
X169826Y52897D01*
X169400Y53181D01*
X168898Y53281D01*
X167709D01*
X167709Y55136D01*
X168108Y55380D01*
X228157D01*
X230256Y53281D01*
Y48563D01*
X246319D01*
Y52538D01*
X247472D01*
X247975Y52638D01*
X248401Y52922D01*
X249282Y53804D01*
X249744Y53612D01*
Y48563D01*
X265807D01*
Y50664D01*
X266929D01*
X267428Y50763D01*
X267852Y51046D01*
X268134Y51469D01*
X268234Y51968D01*
X268134Y52468D01*
X267852Y52891D01*
X267428Y53174D01*
X266929Y53273D01*
X265807D01*
Y55138D01*
X266207Y55380D01*
X333858D01*
X334361Y55480D01*
X334786Y55765D01*
X391096Y112074D01*
X447562D01*
X447667Y111917D01*
X448025Y111678D01*
X448447Y111594D01*
X452341D01*
X453227Y110708D01*
X453553Y110490D01*
X453937Y110414D01*
X454808D01*
X454977Y109914D01*
X454862Y109826D01*
X454335Y109139D01*
X454004Y108339D01*
X453891Y107481D01*
X454004Y106623D01*
X454335Y105823D01*
X454862Y105137D01*
X455549Y104610D01*
X456349Y104278D01*
X457207Y104165D01*
X458065Y104278D01*
X458865Y104610D01*
X459552Y105137D01*
X460079Y105823D01*
X460410Y106623D01*
X460523Y107481D01*
X460410Y108339D01*
X460079Y109139D01*
X459552Y109826D01*
X459437Y109914D01*
X459607Y110414D01*
X617913D01*
X618297Y110490D01*
X618622Y110708D01*
X619530Y111616D01*
X627560D01*
Y115159D01*
X627172D01*
Y116037D01*
X622835D01*
Y117037D01*
X627172D01*
Y117915D01*
X627560D01*
Y121065D01*
Y124214D01*
Y127364D01*
Y130907D01*
X627172D01*
Y131785D01*
X622835D01*
Y132785D01*
X627172D01*
Y133663D01*
X627560D01*
Y136813D01*
Y140356D01*
X627172D01*
Y141234D01*
X622835D01*
Y142234D01*
X627172D01*
Y143112D01*
X627560D01*
Y146261D01*
Y149805D01*
X627172D01*
Y150683D01*
X622835D01*
Y151683D01*
X627172D01*
Y152561D01*
X627560D01*
Y156104D01*
X627172D01*
Y156982D01*
X622835D01*
Y157982D01*
X627172D01*
Y158860D01*
X627560D01*
Y162403D01*
X627172D01*
Y163281D01*
X622835D01*
Y164281D01*
X627172D01*
Y165159D01*
X627560D01*
Y168702D01*
X627172D01*
Y169580D01*
X622835D01*
Y170580D01*
X627172D01*
Y171458D01*
X627560D01*
Y175002D01*
X627172D01*
Y175880D01*
X622835D01*
Y176880D01*
X627172D01*
Y177758D01*
X627560D01*
Y181301D01*
X627172D01*
Y182179D01*
X622835D01*
Y182679D01*
X622335D01*
Y184063D01*
X618498D01*
Y183991D01*
X617324D01*
X616822Y183891D01*
X616396Y183607D01*
X616396Y183606D01*
X616111Y183180D01*
X616011Y182678D01*
X616111Y182176D01*
X616396Y181750D01*
X616821Y181465D01*
X617324Y181365D01*
X617327Y181366D01*
X617638D01*
X618111Y181301D01*
Y179177D01*
X617891Y178957D01*
X470099D01*
X469694Y179457D01*
X469708Y179528D01*
X469617Y179988D01*
X469355Y180379D01*
X468965Y180640D01*
X468504Y180732D01*
X468043Y180640D01*
X467880Y180531D01*
X467157D01*
X466914Y180924D01*
X467135Y181365D01*
X468110D01*
X468613Y181465D01*
X469038Y181749D01*
X469323Y182175D01*
X469423Y182677D01*
X469323Y183179D01*
X469038Y183605D01*
X468613Y183890D01*
X468110Y183990D01*
X466286D01*
X466238Y184022D01*
X465967Y184076D01*
X464400D01*
Y182678D01*
X463400D01*
Y184076D01*
X461833D01*
X461562Y184022D01*
X461514Y183990D01*
X459449D01*
X458947Y183890D01*
X458521Y183605D01*
X458236Y183179D01*
X458136Y182677D01*
X458236Y182175D01*
X458521Y181749D01*
X458947Y181465D01*
X459449Y181365D01*
X460742D01*
X460793Y181304D01*
X460963Y180865D01*
X460813Y180640D01*
X460729Y180217D01*
Y178957D01*
X453883D01*
X453685Y179155D01*
Y180217D01*
X453601Y180640D01*
X453451Y180865D01*
X453621Y181304D01*
X453672Y181365D01*
X454724D01*
X455227Y181465D01*
X455653Y181749D01*
X455937Y182175D01*
X456037Y182677D01*
X455937Y183179D01*
X455653Y183605D01*
X455227Y183890D01*
X454724Y183990D01*
X452900D01*
X452852Y184022D01*
X452581Y184076D01*
X451014D01*
Y182678D01*
X450014D01*
Y184076D01*
X448447D01*
X448176Y184022D01*
X448128Y183990D01*
X446063D01*
X445561Y183890D01*
X445135Y183605D01*
X444850Y183179D01*
X444750Y182677D01*
X444850Y182175D01*
X445135Y181749D01*
X445561Y181465D01*
X446063Y181365D01*
X446823D01*
X447069Y180865D01*
X447051Y180841D01*
X367324D01*
X366821Y180741D01*
X366395Y180456D01*
X343945Y158005D01*
X247874D01*
X247372Y157906D01*
X246946Y157621D01*
X244463Y155138D01*
X232112D01*
X229629Y157621D01*
X229203Y157906D01*
X228701Y158005D01*
X142265D01*
X141763Y157906D01*
X141337Y157621D01*
X138852Y155136D01*
X119134D01*
Y153161D01*
X108537D01*
X80225Y181473D01*
X79800Y181758D01*
X79297Y181858D01*
X65367D01*
X65268Y182358D01*
X65337Y182387D01*
X66197Y183046D01*
X66856Y183905D01*
X67270Y184906D01*
X67412Y185980D01*
X67270Y187054D01*
X66856Y188055D01*
X66197Y188915D01*
X65337Y189574D01*
X65268Y189603D01*
X65367Y190103D01*
X79694D01*
X108877Y160921D01*
X109302Y160636D01*
X109805Y160536D01*
X119134D01*
Y158561D01*
X140709D01*
Y163280D01*
X143045Y165617D01*
X146086D01*
X146134Y165136D01*
X146134Y165117D01*
Y158561D01*
X167709D01*
Y160498D01*
X168898D01*
X169400Y160598D01*
X169826Y160883D01*
X170110Y161309D01*
X170210Y161811D01*
X170110Y162313D01*
X169826Y162739D01*
X169400Y163024D01*
X168898Y163124D01*
X167709D01*
Y165117D01*
X167709Y165136D01*
X167756Y165617D01*
X227921D01*
X230256Y163282D01*
Y158563D01*
X246319D01*
Y163282D01*
X248654Y165617D01*
X249693D01*
X249744Y165138D01*
X249744Y165117D01*
Y158563D01*
X265807D01*
Y160498D01*
X266929D01*
X267431Y160598D01*
X267857Y160883D01*
X268142Y161309D01*
X268242Y161811D01*
X268142Y162313D01*
X267857Y162739D01*
X267431Y163024D01*
X266929Y163124D01*
X265807D01*
Y165117D01*
X265807Y165138D01*
X265859Y165617D01*
X344882D01*
X345384Y165716D01*
X345810Y166001D01*
X376922Y197113D01*
X447562D01*
X447667Y196956D01*
X448025Y196717D01*
X448447Y196633D01*
X452266D01*
X453152Y195747D01*
X453477Y195529D01*
X453861Y195453D01*
X618110D01*
X618494Y195529D01*
X618820Y195747D01*
X619728Y196655D01*
X627560D01*
Y200198D01*
X627172D01*
Y201076D01*
X622835D01*
Y202076D01*
X627172D01*
Y202954D01*
X627560D01*
Y206498D01*
X627172D01*
Y207376D01*
X622835D01*
Y208376D01*
X627172D01*
Y209254D01*
X627560D01*
Y212797D01*
X627172D01*
Y213675D01*
X622835D01*
Y214675D01*
X627172D01*
Y215553D01*
X627560D01*
Y219096D01*
X627172D01*
Y219974D01*
X622835D01*
Y220974D01*
X627172D01*
Y221852D01*
X627560D01*
Y225395D01*
X627172D01*
Y226273D01*
X622835D01*
Y227273D01*
X627172D01*
Y228151D01*
X627560D01*
Y231695D01*
X627172D01*
Y232572D01*
X622835D01*
Y233572D01*
X627172D01*
Y234450D01*
X627560D01*
Y237994D01*
X627172D01*
Y238872D01*
X622835D01*
Y239872D01*
X627172D01*
Y240750D01*
X627560D01*
Y244293D01*
X627172D01*
Y245171D01*
X622835D01*
Y246171D01*
X627172D01*
Y247049D01*
X627560D01*
Y250592D01*
X627172D01*
Y251470D01*
X622835D01*
Y252470D01*
X627172D01*
Y253348D01*
X627560D01*
Y256891D01*
X627172D01*
Y257769D01*
X622835D01*
Y258769D01*
X627172D01*
Y259647D01*
X627560D01*
Y263191D01*
X627172D01*
Y264069D01*
X622835D01*
Y265069D01*
X627172D01*
Y265947D01*
X627560D01*
Y269490D01*
X627172D01*
Y270368D01*
X622835D01*
Y271368D01*
X627172D01*
Y272246D01*
X627560D01*
Y275789D01*
X627172D01*
Y276667D01*
X622835D01*
Y277667D01*
X627172D01*
Y278432D01*
X627173Y278551D01*
Y278932D01*
X627172Y279051D01*
Y279817D01*
X622835D01*
Y280316D01*
X622335D01*
Y281701D01*
X618498D01*
Y281628D01*
X617324D01*
X616821Y281528D01*
X616395Y281244D01*
X616395Y281243D01*
X616110Y280817D01*
X616010Y280315D01*
X616110Y279813D01*
X616395Y279387D01*
X616820Y279102D01*
X617323Y279002D01*
X617327Y279003D01*
X617811D01*
X617962Y278734D01*
X617816Y278479D01*
X617324D01*
X616821Y278379D01*
X616395Y278094D01*
X616395Y278094D01*
X616110Y277668D01*
X616010Y277165D01*
X616110Y276663D01*
X616337Y276324D01*
X616238Y276006D01*
X616115Y275824D01*
X520825D01*
X510340Y286309D01*
X510383Y286413D01*
X510513Y287402D01*
X510383Y288390D01*
X510001Y289312D01*
X509394Y290103D01*
X508603Y290710D01*
X507682Y291091D01*
X506693Y291222D01*
X505704Y291091D01*
X504783Y290710D01*
X503992Y290103D01*
X503385Y289312D01*
X503003Y288390D01*
X502873Y287402D01*
X503003Y286413D01*
X503046Y286309D01*
X492560Y275823D01*
X469317D01*
X469193Y276008D01*
X469096Y276323D01*
X469323Y276663D01*
X469423Y277165D01*
X469323Y277668D01*
X469038Y278094D01*
X468613Y278378D01*
X468110Y278478D01*
X466884D01*
X466741Y278750D01*
X466879Y279002D01*
X468110D01*
X468613Y279102D01*
X469038Y279387D01*
X469323Y279813D01*
X469423Y280315D01*
X469323Y280817D01*
X469038Y281243D01*
X468613Y281528D01*
X468110Y281628D01*
X466286D01*
X466238Y281660D01*
X465967Y281714D01*
X464400D01*
Y280316D01*
X463400D01*
Y281714D01*
X461833D01*
X461562Y281660D01*
X461514Y281628D01*
X459449D01*
X458947Y281528D01*
X458521Y281243D01*
X458236Y280817D01*
X458136Y280315D01*
X458236Y279813D01*
X458521Y279387D01*
X458947Y279102D01*
X459449Y279002D01*
X460921D01*
X461059Y278750D01*
X460916Y278478D01*
X459449D01*
X458947Y278378D01*
X458521Y278094D01*
X458236Y277668D01*
X458136Y277165D01*
X458236Y276663D01*
X458463Y276323D01*
X458366Y276008D01*
X458242Y275823D01*
X455931D01*
X455807Y276008D01*
X455710Y276323D01*
X455937Y276663D01*
X456037Y277165D01*
X455937Y277668D01*
X455653Y278094D01*
X455227Y278378D01*
X454724Y278478D01*
X453498D01*
X453355Y278750D01*
X453493Y279002D01*
X454724D01*
X455227Y279102D01*
X455653Y279387D01*
X455937Y279813D01*
X456037Y280315D01*
X455937Y280817D01*
X455653Y281243D01*
X455227Y281528D01*
X454724Y281628D01*
X452900D01*
X452852Y281660D01*
X452581Y281714D01*
X451014D01*
Y280316D01*
X450014D01*
Y281714D01*
X448447D01*
X448176Y281660D01*
X448128Y281628D01*
X446063D01*
X445561Y281528D01*
X445135Y281243D01*
X444850Y280817D01*
X444750Y280315D01*
X444850Y279813D01*
X445135Y279387D01*
X445561Y279102D01*
X446063Y279002D01*
X447535D01*
X447673Y278750D01*
X447530Y278478D01*
X446063D01*
X445561Y278378D01*
X445135Y278094D01*
X444850Y277668D01*
X444750Y277165D01*
X444850Y276663D01*
X445135Y276237D01*
X445561Y275953D01*
X446063Y275853D01*
X447356D01*
X447407Y275792D01*
X447578Y275353D01*
X447427Y275128D01*
X447343Y274706D01*
Y273328D01*
X447427Y272905D01*
X447579Y272679D01*
X447411Y272243D01*
X447357Y272179D01*
X446063D01*
X445561Y272079D01*
X445135Y271794D01*
X444850Y271369D01*
X444750Y270866D01*
X444850Y270364D01*
X445135Y269938D01*
X445561Y269654D01*
X446063Y269553D01*
X447356D01*
X447407Y269493D01*
X447578Y269054D01*
X447427Y268829D01*
X447343Y268406D01*
Y267028D01*
X447427Y266606D01*
X447579Y266380D01*
X447411Y265944D01*
X447357Y265880D01*
X446063D01*
X445561Y265780D01*
X445135Y265495D01*
X444850Y265069D01*
X444750Y264567D01*
X444850Y264065D01*
X445135Y263639D01*
X445561Y263354D01*
X446063Y263254D01*
X447356D01*
X447407Y263194D01*
X447578Y262754D01*
X447427Y262529D01*
X447343Y262107D01*
Y260729D01*
X447427Y260307D01*
X447579Y260080D01*
X447411Y259644D01*
X447357Y259580D01*
X446063D01*
X445561Y259480D01*
X445135Y259196D01*
X444850Y258770D01*
X444750Y258268D01*
X444850Y257765D01*
X445135Y257340D01*
X445561Y257055D01*
X446063Y256955D01*
X446823D01*
X447069Y256455D01*
X447051Y256432D01*
X294244D01*
X272975Y277700D01*
X272550Y277984D01*
X272047Y278084D01*
X265859D01*
X265807Y278563D01*
X265807Y278584D01*
Y280577D01*
X266929D01*
X267431Y280677D01*
X267857Y280962D01*
X268142Y281387D01*
X268242Y281890D01*
X268142Y282392D01*
X267857Y282818D01*
X267431Y283102D01*
X266929Y283202D01*
X265807D01*
Y285138D01*
X249744D01*
Y278584D01*
X249744Y278563D01*
X249693Y278084D01*
X248654D01*
X246319Y280419D01*
Y285138D01*
X232112D01*
X229314Y287936D01*
X228888Y288221D01*
X228386Y288320D01*
X142580D01*
X142078Y288221D01*
X141652Y287936D01*
X138852Y285136D01*
X119134D01*
Y283161D01*
X79487D01*
X78984Y283062D01*
X78558Y282777D01*
X68041Y272259D01*
X67673Y272441D01*
X63262D01*
Y273441D01*
X67560D01*
X67478Y274071D01*
X67042Y275123D01*
X66348Y276027D01*
X66256Y276098D01*
X66480Y276556D01*
X67091Y276678D01*
X67677Y277069D01*
X90376Y299768D01*
X119134D01*
Y298561D01*
X140709D01*
Y300043D01*
X146134D01*
Y298561D01*
X167709D01*
Y300043D01*
X226827D01*
X227145Y299657D01*
X227134Y299606D01*
X227257Y298992D01*
X227605Y298471D01*
X228126Y298123D01*
X228740Y298001D01*
X229355Y298123D01*
X229875Y298471D01*
X229920Y298538D01*
X236287D01*
X236414Y298563D01*
X246319D01*
Y300044D01*
X249744D01*
Y298563D01*
X265807D01*
Y299081D01*
X266453D01*
X266708Y298910D01*
X267323Y298788D01*
X267937Y298910D01*
X268458Y299258D01*
X268806Y299779D01*
X268929Y300394D01*
X268806Y301008D01*
X268458Y301529D01*
X268250Y301668D01*
Y302269D01*
X268458Y302408D01*
X268806Y302929D01*
X268929Y303543D01*
X268806Y304158D01*
X268458Y304679D01*
X267937Y305027D01*
X267323Y305149D01*
X266708Y305027D01*
X266453Y304856D01*
X265807D01*
Y305138D01*
X249744D01*
Y303657D01*
X246319D01*
Y305138D01*
X236413D01*
X236286Y305163D01*
X229740D01*
X229355Y305420D01*
X228740Y305543D01*
X228126Y305420D01*
X227605Y305072D01*
X227257Y304552D01*
X227134Y303937D01*
X226904Y303656D01*
X167709D01*
Y305136D01*
X146134D01*
Y303655D01*
X140709D01*
Y305136D01*
X119134D01*
Y303381D01*
X89628D01*
X88937Y303244D01*
X88351Y302852D01*
X68051Y282552D01*
X67589Y282743D01*
Y283311D01*
X58935D01*
Y279600D01*
X56587Y277252D01*
X56113Y277485D01*
X56231Y278376D01*
X56089Y279450D01*
X55675Y280451D01*
X55015Y281310D01*
X54156Y281970D01*
X53887Y282081D01*
Y284404D01*
X89526Y320042D01*
X119134D01*
Y318561D01*
X140709D01*
Y320042D01*
X146134D01*
Y318561D01*
X167709D01*
Y320043D01*
X226827D01*
X227145Y319657D01*
X227134Y319606D01*
X227257Y318992D01*
X227605Y318471D01*
X228126Y318123D01*
X228740Y318001D01*
X229355Y318123D01*
X229875Y318471D01*
X229920Y318538D01*
X236287D01*
X236414Y318563D01*
X246319D01*
Y320044D01*
X249744D01*
Y318563D01*
X265807D01*
Y319081D01*
X266453D01*
X266708Y318910D01*
X267323Y318788D01*
X267937Y318910D01*
X268458Y319258D01*
X268806Y319779D01*
X268929Y320394D01*
X268806Y321008D01*
X268458Y321529D01*
X268179Y321716D01*
Y322300D01*
X268458Y322487D01*
X268806Y323008D01*
X268929Y323622D01*
X268806Y324236D01*
X268458Y324757D01*
X267937Y325106D01*
X267323Y325228D01*
X266708Y325106D01*
X266335Y324856D01*
X265807D01*
Y325138D01*
X249744D01*
Y323657D01*
X246319D01*
Y325138D01*
X236413D01*
X236286Y325163D01*
X229740D01*
X229355Y325420D01*
X228740Y325543D01*
D02*
G37*
G36*
X582992Y326022D02*
X581862Y325873D01*
X580808Y325436D01*
X579903Y324742D01*
X579209Y323838D01*
X578773Y322784D01*
X578624Y321654D01*
X578773Y320523D01*
X579209Y319469D01*
X579903Y318565D01*
X580808Y317871D01*
X581862Y317434D01*
X582992Y317285D01*
X584123Y317434D01*
X585176Y317871D01*
X586081Y318565D01*
X586775Y319469D01*
X587211Y320523D01*
X587360Y321654D01*
X587211Y322784D01*
X586775Y323838D01*
X586081Y324742D01*
X585176Y325436D01*
X584123Y325873D01*
X582992Y326022D01*
D02*
G37*
G36*
X542992D02*
X541862Y325873D01*
X540808Y325436D01*
X539903Y324742D01*
X539209Y323838D01*
X538773Y322784D01*
X538624Y321654D01*
X538773Y320523D01*
X539209Y319469D01*
X539903Y318565D01*
X540808Y317871D01*
X541862Y317434D01*
X542992Y317285D01*
X544123Y317434D01*
X545176Y317871D01*
X546081Y318565D01*
X546775Y319469D01*
X547211Y320523D01*
X547360Y321654D01*
X547211Y322784D01*
X546775Y323838D01*
X546081Y324742D01*
X545176Y325436D01*
X544123Y325873D01*
X542992Y326022D01*
D02*
G37*
G36*
X527874D02*
X526744Y325873D01*
X525690Y325436D01*
X524785Y324742D01*
X524091Y323838D01*
X523655Y322784D01*
X523506Y321654D01*
X523655Y320523D01*
X524091Y319469D01*
X524785Y318565D01*
X525690Y317871D01*
X526744Y317434D01*
X527874Y317285D01*
X529005Y317434D01*
X530058Y317871D01*
X530963Y318565D01*
X531657Y319469D01*
X532093Y320523D01*
X532242Y321654D01*
X532093Y322784D01*
X531657Y323838D01*
X530963Y324742D01*
X530058Y325436D01*
X529005Y325873D01*
X527874Y326022D01*
D02*
G37*
G36*
X487874D02*
X486743Y325873D01*
X485690Y325436D01*
X484785Y324742D01*
X484091Y323838D01*
X483655Y322784D01*
X483506Y321654D01*
X483655Y320523D01*
X484091Y319469D01*
X484785Y318565D01*
X485690Y317871D01*
X486743Y317434D01*
X487874Y317285D01*
X489005Y317434D01*
X490058Y317871D01*
X490963Y318565D01*
X491657Y319469D01*
X492093Y320523D01*
X492242Y321654D01*
X492093Y322784D01*
X491657Y323838D01*
X490963Y324742D01*
X490058Y325436D01*
X489005Y325873D01*
X487874Y326022D01*
D02*
G37*
G36*
X245932Y314750D02*
X238787D01*
Y312350D01*
X245932D01*
Y314750D01*
D02*
G37*
G36*
X257276D02*
X250132D01*
Y312350D01*
X257276D01*
Y314750D01*
D02*
G37*
G36*
X140321Y314749D02*
X130421D01*
Y312349D01*
X140321D01*
Y314749D01*
D02*
G37*
G36*
X156421D02*
X146521D01*
Y312349D01*
X156421D01*
Y314749D01*
D02*
G37*
G36*
X267323Y314777D02*
X259390D01*
X259255Y314750D01*
X258276D01*
Y311850D01*
Y308950D01*
X265420D01*
Y309002D01*
X267323D01*
X267825Y309102D01*
X268251Y309387D01*
X268535Y309813D01*
X268636Y310315D01*
X268535Y310817D01*
X268251Y311243D01*
X267825Y311528D01*
X267323Y311628D01*
X265420D01*
Y312152D01*
X267323D01*
X267825Y312252D01*
X268251Y312536D01*
X268535Y312962D01*
X268636Y313465D01*
X268535Y313967D01*
X268251Y314393D01*
X267825Y314677D01*
X267323Y314777D01*
D02*
G37*
G36*
X257276Y311350D02*
X250132D01*
Y308950D01*
X257276D01*
Y311350D01*
D02*
G37*
G36*
X245932Y311350D02*
X238787D01*
Y308950D01*
X245932D01*
Y311350D01*
D02*
G37*
G36*
X156421Y311349D02*
X146521D01*
Y308949D01*
X156421D01*
Y311349D01*
D02*
G37*
G36*
X140321D02*
X130421D01*
Y308949D01*
X140321D01*
Y311349D01*
D02*
G37*
G36*
X237787Y314750D02*
X230643D01*
Y314699D01*
X228740D01*
X228238Y314598D01*
X227812Y314314D01*
X227527Y313888D01*
X227428Y313386D01*
X227527Y312883D01*
X227812Y312458D01*
X228238Y312173D01*
X228740Y312073D01*
X230643D01*
Y311549D01*
X228740D01*
X228238Y311449D01*
X227812Y311164D01*
X227527Y310738D01*
X227428Y310236D01*
X227527Y309734D01*
X227812Y309308D01*
X228238Y309023D01*
X228740Y308924D01*
X236673D01*
X236808Y308950D01*
X237787D01*
Y311850D01*
Y314750D01*
D02*
G37*
G36*
X167321Y314749D02*
X157421D01*
Y311849D01*
Y308949D01*
X158407D01*
X158534Y308924D01*
X169291D01*
X169794Y309023D01*
X170220Y309308D01*
X170504Y309734D01*
X170604Y310236D01*
X170504Y310738D01*
X170220Y311164D01*
X169794Y311449D01*
X169291Y311549D01*
X167321D01*
Y312073D01*
X169291D01*
X169794Y312173D01*
X170220Y312458D01*
X170504Y312883D01*
X170604Y313386D01*
X170504Y313888D01*
X170220Y314314D01*
X169794Y314598D01*
X169291Y314699D01*
X167321D01*
Y314749D01*
D02*
G37*
G36*
X129421D02*
X119521D01*
Y314305D01*
X117323D01*
X116821Y314205D01*
X116395Y313920D01*
X116110Y313494D01*
X116010Y312992D01*
X116110Y312490D01*
X116395Y312064D01*
X116652Y311892D01*
X116658Y311875D01*
Y311353D01*
X116652Y311336D01*
X116395Y311164D01*
X116110Y310738D01*
X116010Y310236D01*
X116110Y309734D01*
X116395Y309308D01*
X116821Y309023D01*
X117323Y308924D01*
X128309D01*
X128436Y308949D01*
X129421D01*
Y311849D01*
Y314749D01*
D02*
G37*
G36*
X624804Y307679D02*
X615355D01*
Y302167D01*
X624804D01*
Y307679D01*
D02*
G37*
G36*
X245932Y294750D02*
X238787D01*
Y292350D01*
X245932D01*
Y294750D01*
D02*
G37*
G36*
X257276D02*
X250132D01*
Y292350D01*
X257276D01*
Y294750D01*
D02*
G37*
G36*
X140321Y294749D02*
X130421D01*
Y292349D01*
X140321D01*
Y294749D01*
D02*
G37*
G36*
X156421D02*
X146521D01*
Y292349D01*
X156421D01*
Y294749D01*
D02*
G37*
G36*
X562992Y345318D02*
X561294Y345150D01*
X559661Y344655D01*
X558157Y343851D01*
X556838Y342768D01*
X555756Y341449D01*
X554951Y339945D01*
X554456Y338312D01*
X554289Y336614D01*
X554456Y334916D01*
X554951Y333284D01*
X555756Y331779D01*
X556838Y330460D01*
X558157Y329378D01*
X559661Y328573D01*
X561186Y328111D01*
Y307441D01*
X542953Y289208D01*
X520044D01*
X520001Y289312D01*
X519394Y290103D01*
X518603Y290710D01*
X517682Y291091D01*
X516693Y291222D01*
X515704Y291091D01*
X514783Y290710D01*
X513992Y290103D01*
X513385Y289312D01*
X513003Y288390D01*
X512873Y287402D01*
X513003Y286413D01*
X513385Y285491D01*
X513992Y284700D01*
X514783Y284093D01*
X515704Y283712D01*
X516693Y283581D01*
X517682Y283712D01*
X518603Y284093D01*
X519394Y284700D01*
X520001Y285491D01*
X520044Y285595D01*
X543701D01*
X544392Y285733D01*
X544978Y286124D01*
X564269Y305416D01*
X564661Y306002D01*
X564798Y306693D01*
Y328111D01*
X566323Y328573D01*
X567827Y329378D01*
X569146Y330460D01*
X570229Y331779D01*
X571033Y333284D01*
X571528Y334916D01*
X571695Y336614D01*
X571528Y338312D01*
X571033Y339945D01*
X570229Y341449D01*
X569146Y342768D01*
X567827Y343851D01*
X566323Y344655D01*
X564690Y345150D01*
X562992Y345318D01*
D02*
G37*
G36*
X267323Y294777D02*
X259390D01*
X259255Y294750D01*
X258276D01*
Y291850D01*
Y288950D01*
X265420D01*
Y289002D01*
X267323D01*
X267825Y289102D01*
X268251Y289387D01*
X268535Y289813D01*
X268636Y290315D01*
X268535Y290817D01*
X268251Y291243D01*
X267825Y291528D01*
X267323Y291628D01*
X265420D01*
Y292152D01*
X267323D01*
X267825Y292252D01*
X268251Y292536D01*
X268535Y292962D01*
X268636Y293465D01*
X268535Y293967D01*
X268251Y294393D01*
X267825Y294677D01*
X267323Y294777D01*
D02*
G37*
G36*
X257276Y291350D02*
X250132D01*
Y288950D01*
X257276D01*
Y291350D01*
D02*
G37*
G36*
X245932Y291350D02*
X238787D01*
Y288950D01*
X245932D01*
Y291350D01*
D02*
G37*
G36*
X156421Y291349D02*
X146521D01*
Y288949D01*
X156421D01*
Y291349D01*
D02*
G37*
G36*
X140321D02*
X130421D01*
Y288949D01*
X140321D01*
Y291349D01*
D02*
G37*
G36*
X237787Y294750D02*
X230643D01*
Y294699D01*
X228740D01*
X228238Y294599D01*
X227812Y294314D01*
X227527Y293888D01*
X227428Y293386D01*
X227527Y292883D01*
X227812Y292458D01*
X228238Y292173D01*
X228740Y292073D01*
X230643D01*
Y291549D01*
X228740D01*
X228238Y291449D01*
X227812Y291164D01*
X227527Y290739D01*
X227428Y290236D01*
X227527Y289734D01*
X227812Y289308D01*
X228238Y289023D01*
X228740Y288924D01*
X236673D01*
X236808Y288950D01*
X237787D01*
Y291850D01*
Y294750D01*
D02*
G37*
G36*
X167321Y294749D02*
X157421D01*
Y291849D01*
Y288949D01*
X158407D01*
X158534Y288924D01*
X169291D01*
X169794Y289023D01*
X170220Y289308D01*
X170504Y289734D01*
X170604Y290236D01*
X170504Y290739D01*
X170220Y291164D01*
X169794Y291449D01*
X169291Y291549D01*
X167321D01*
Y292073D01*
X169291D01*
X169794Y292173D01*
X170220Y292458D01*
X170504Y292883D01*
X170604Y293386D01*
X170504Y293888D01*
X170220Y294314D01*
X169794Y294599D01*
X169291Y294699D01*
X167321D01*
Y294749D01*
D02*
G37*
G36*
X129421D02*
X119521D01*
Y294305D01*
X117323D01*
X116821Y294205D01*
X116395Y293920D01*
X116110Y293495D01*
X116010Y292992D01*
X116110Y292490D01*
X116395Y292064D01*
X116652Y291892D01*
X116658Y291875D01*
Y291353D01*
X116652Y291336D01*
X116395Y291164D01*
X116110Y290739D01*
X116010Y290236D01*
X116110Y289734D01*
X116395Y289308D01*
X116821Y289023D01*
X117323Y288924D01*
X128309D01*
X128436Y288949D01*
X129421D01*
Y291849D01*
Y294749D01*
D02*
G37*
G36*
X67589Y288138D02*
X63762D01*
Y284311D01*
X67589D01*
Y288138D01*
D02*
G37*
G36*
X62762D02*
X58935D01*
Y284311D01*
X62762D01*
Y288138D01*
D02*
G37*
G36*
X496693Y291222D02*
X495704Y291091D01*
X494783Y290710D01*
X493992Y290103D01*
X493385Y289312D01*
X493003Y288390D01*
X492873Y287402D01*
X493003Y286413D01*
X493385Y285491D01*
X493992Y284700D01*
X494783Y284093D01*
X495704Y283712D01*
X496693Y283581D01*
X497682Y283712D01*
X498603Y284093D01*
X499394Y284700D01*
X500001Y285491D01*
X500383Y286413D01*
X500513Y287402D01*
X500383Y288390D01*
X500001Y289312D01*
X499394Y290103D01*
X498603Y290710D01*
X497682Y291091D01*
X496693Y291222D01*
D02*
G37*
G36*
X451302Y289537D02*
X450443Y289424D01*
X449644Y289093D01*
X448957Y288566D01*
X448430Y287879D01*
X448099Y287079D01*
X447986Y286221D01*
X448099Y285363D01*
X448430Y284563D01*
X448957Y283877D01*
X449644Y283350D01*
X450443Y283018D01*
X451302Y282906D01*
X452160Y283018D01*
X452959Y283350D01*
X453646Y283877D01*
X454173Y284563D01*
X454504Y285363D01*
X454617Y286221D01*
X454504Y287079D01*
X454173Y287879D01*
X453646Y288566D01*
X452959Y289093D01*
X452160Y289424D01*
X451302Y289537D01*
D02*
G37*
G36*
X627172Y281701D02*
X623336D01*
Y280817D01*
X627172D01*
Y281701D01*
D02*
G37*
G36*
X245932Y254750D02*
X238787D01*
Y252350D01*
X245932D01*
Y254750D01*
D02*
G37*
G36*
X257276D02*
X250132D01*
Y252350D01*
X257276D01*
Y254750D01*
D02*
G37*
G36*
X140321Y254749D02*
X130421D01*
Y252349D01*
X140321D01*
Y254749D01*
D02*
G37*
G36*
X156421D02*
X146521D01*
Y252349D01*
X156421D01*
Y254749D01*
D02*
G37*
G36*
X267323Y254777D02*
X259390D01*
X259255Y254750D01*
X258276D01*
Y251850D01*
Y248950D01*
X265420D01*
Y249002D01*
X267323D01*
X267825Y249102D01*
X268251Y249387D01*
X268535Y249813D01*
X268636Y250315D01*
X268535Y250817D01*
X268251Y251243D01*
X267825Y251528D01*
X267323Y251628D01*
X265420D01*
Y252152D01*
X267323D01*
X267825Y252252D01*
X268251Y252536D01*
X268535Y252962D01*
X268636Y253465D01*
X268535Y253967D01*
X268251Y254393D01*
X267825Y254677D01*
X267323Y254777D01*
D02*
G37*
G36*
X257276Y251350D02*
X250132D01*
Y248950D01*
X257276D01*
Y251350D01*
D02*
G37*
G36*
X245932Y251350D02*
X238787D01*
Y248950D01*
X245932D01*
Y251350D01*
D02*
G37*
G36*
X156421Y251349D02*
X146521D01*
Y248949D01*
X156421D01*
Y251349D01*
D02*
G37*
G36*
X140321D02*
X130421D01*
Y248949D01*
X140321D01*
Y251349D01*
D02*
G37*
G36*
X237787Y254750D02*
X230643D01*
Y254698D01*
X228740D01*
X228238Y254598D01*
X227812Y254314D01*
X227527Y253888D01*
X227428Y253386D01*
X227527Y252884D01*
X227812Y252458D01*
X228238Y252173D01*
X228740Y252073D01*
X230643D01*
Y251549D01*
X228740D01*
X228238Y251449D01*
X227812Y251164D01*
X227527Y250739D01*
X227428Y250236D01*
X227527Y249734D01*
X227812Y249308D01*
X228238Y249024D01*
X228740Y248924D01*
X236673D01*
X236808Y248950D01*
X237787D01*
Y251850D01*
Y254750D01*
D02*
G37*
G36*
X167321Y254749D02*
X157421D01*
Y251849D01*
Y248949D01*
X158407D01*
X158534Y248924D01*
X169291D01*
X169794Y249024D01*
X170220Y249308D01*
X170504Y249734D01*
X170604Y250236D01*
X170504Y250739D01*
X170220Y251164D01*
X169794Y251449D01*
X169291Y251549D01*
X167321D01*
Y252073D01*
X169291D01*
X169794Y252173D01*
X170220Y252458D01*
X170504Y252884D01*
X170604Y253386D01*
X170504Y253888D01*
X170220Y254314D01*
X169794Y254598D01*
X169291Y254698D01*
X167321D01*
Y254749D01*
D02*
G37*
G36*
X129421D02*
X119521D01*
Y254305D01*
X117323D01*
X116821Y254205D01*
X116395Y253920D01*
X116110Y253495D01*
X116010Y252992D01*
X116110Y252490D01*
X116395Y252064D01*
X116652Y251892D01*
X116658Y251875D01*
Y251353D01*
X116652Y251336D01*
X116395Y251164D01*
X116110Y250739D01*
X116010Y250236D01*
X116110Y249734D01*
X116395Y249308D01*
X116821Y249024D01*
X117323Y248924D01*
X128309D01*
X128436Y248949D01*
X129421D01*
Y251849D01*
Y254749D01*
D02*
G37*
G36*
X40900Y255350D02*
X39826Y255209D01*
X38825Y254795D01*
X37966Y254135D01*
X37306Y253276D01*
X36892Y252275D01*
X36750Y251201D01*
X36892Y250127D01*
X37306Y249126D01*
X37966Y248267D01*
X38825Y247607D01*
X39826Y247193D01*
X40900Y247051D01*
X41974Y247193D01*
X42975Y247607D01*
X43834Y248267D01*
X44494Y249126D01*
X44908Y250127D01*
X45050Y251201D01*
X44908Y252275D01*
X44494Y253276D01*
X43834Y254135D01*
X42975Y254795D01*
X41974Y255209D01*
X40900Y255350D01*
D02*
G37*
G36*
X265807Y245138D02*
X249744D01*
Y238563D01*
X265807D01*
Y240420D01*
X266929D01*
X267431Y240520D01*
X267857Y240804D01*
X268142Y241230D01*
X268242Y241732D01*
X268142Y242235D01*
X267857Y242660D01*
X267431Y242945D01*
X266929Y243045D01*
X265807D01*
Y245138D01*
D02*
G37*
G36*
X40900Y222740D02*
X39826Y222599D01*
X38825Y222184D01*
X37966Y221525D01*
X37306Y220665D01*
X36892Y219665D01*
X36750Y218591D01*
X36892Y217517D01*
X37306Y216516D01*
X37966Y215656D01*
X38825Y214997D01*
X39826Y214582D01*
X40900Y214441D01*
X41974Y214582D01*
X42975Y214997D01*
X43834Y215656D01*
X44494Y216516D01*
X44908Y217517D01*
X45050Y218591D01*
X44908Y219665D01*
X44494Y220665D01*
X43834Y221525D01*
X42975Y222184D01*
X41974Y222599D01*
X40900Y222740D01*
D02*
G37*
G36*
X52581Y217454D02*
Y213655D01*
X56379D01*
X56296Y214285D01*
X55861Y215338D01*
X55167Y216241D01*
X54263Y216935D01*
X53211Y217371D01*
X52581Y217454D01*
D02*
G37*
G36*
X51581D02*
X50952Y217371D01*
X49899Y216935D01*
X48995Y216241D01*
X48302Y215338D01*
X47866Y214285D01*
X47783Y213655D01*
X51581D01*
Y217454D01*
D02*
G37*
G36*
X245932Y214750D02*
X238787D01*
Y212350D01*
X245932D01*
Y214750D01*
D02*
G37*
G36*
X257276D02*
X250132D01*
Y212350D01*
X257276D01*
Y214750D01*
D02*
G37*
G36*
X140321Y214749D02*
X130421D01*
Y212349D01*
X140321D01*
Y214749D01*
D02*
G37*
G36*
X156421D02*
X146521D01*
Y212349D01*
X156421D01*
Y214749D01*
D02*
G37*
G36*
X267323Y214777D02*
X259390D01*
X259255Y214750D01*
X258276D01*
Y211850D01*
Y208950D01*
X265420D01*
Y209002D01*
X267323D01*
X267825Y209102D01*
X268251Y209387D01*
X268535Y209813D01*
X268636Y210315D01*
X268535Y210817D01*
X268251Y211243D01*
X267825Y211528D01*
X267323Y211628D01*
X265420D01*
Y212152D01*
X267323D01*
X267825Y212252D01*
X268251Y212536D01*
X268535Y212962D01*
X268636Y213465D01*
X268535Y213967D01*
X268251Y214393D01*
X267825Y214677D01*
X267323Y214777D01*
D02*
G37*
G36*
X257276Y211350D02*
X250132D01*
Y208950D01*
X257276D01*
Y211350D01*
D02*
G37*
G36*
X245932Y211350D02*
X238787D01*
Y208950D01*
X245932D01*
Y211350D01*
D02*
G37*
G36*
X156421Y211349D02*
X146521D01*
Y208949D01*
X156421D01*
Y211349D01*
D02*
G37*
G36*
X140321D02*
X130421D01*
Y208949D01*
X140321D01*
Y211349D01*
D02*
G37*
G36*
X237787Y214750D02*
X230643D01*
Y214699D01*
X228740D01*
X228238Y214598D01*
X227812Y214314D01*
X227527Y213888D01*
X227428Y213386D01*
X227527Y212883D01*
X227812Y212458D01*
X228238Y212173D01*
X228740Y212073D01*
X230643D01*
Y211549D01*
X228740D01*
X228238Y211449D01*
X227812Y211164D01*
X227527Y210738D01*
X227428Y210236D01*
X227527Y209734D01*
X227812Y209308D01*
X228238Y209023D01*
X228740Y208924D01*
X236673D01*
X236808Y208950D01*
X237787D01*
Y211850D01*
Y214750D01*
D02*
G37*
G36*
X167321Y214749D02*
X157421D01*
Y211849D01*
Y208949D01*
X158407D01*
X158534Y208924D01*
X169291D01*
X169794Y209023D01*
X170220Y209308D01*
X170504Y209734D01*
X170604Y210236D01*
X170504Y210738D01*
X170220Y211164D01*
X169794Y211449D01*
X169291Y211549D01*
X167321D01*
Y212073D01*
X169291D01*
X169794Y212173D01*
X170220Y212458D01*
X170504Y212883D01*
X170604Y213386D01*
X170504Y213888D01*
X170220Y214314D01*
X169794Y214598D01*
X169291Y214699D01*
X167321D01*
Y214749D01*
D02*
G37*
G36*
X129421D02*
X119521D01*
Y214305D01*
X117323D01*
X116821Y214205D01*
X116395Y213920D01*
X116110Y213494D01*
X116010Y212992D01*
X116110Y212490D01*
X116395Y212064D01*
X116652Y211892D01*
X116658Y211875D01*
Y211353D01*
X116652Y211336D01*
X116395Y211164D01*
X116110Y210738D01*
X116010Y210236D01*
X116110Y209734D01*
X116395Y209308D01*
X116821Y209023D01*
X117323Y208924D01*
X128309D01*
X128436Y208949D01*
X129421D01*
Y211849D01*
Y214749D01*
D02*
G37*
G36*
X56379Y212655D02*
X52581D01*
Y208857D01*
X53211Y208940D01*
X54263Y209376D01*
X55167Y210070D01*
X55861Y210974D01*
X56296Y212026D01*
X56379Y212655D01*
D02*
G37*
G36*
X51581D02*
X47783D01*
X47866Y212026D01*
X48302Y210974D01*
X48995Y210070D01*
X49899Y209376D01*
X50952Y208940D01*
X51581Y208857D01*
Y212655D01*
D02*
G37*
G36*
X40900Y211870D02*
X39826Y211729D01*
X38825Y211314D01*
X37966Y210655D01*
X37306Y209795D01*
X36892Y208794D01*
X36750Y207720D01*
X36892Y206646D01*
X37306Y205646D01*
X37966Y204786D01*
X38825Y204127D01*
X39826Y203712D01*
X40900Y203571D01*
X41974Y203712D01*
X42975Y204127D01*
X43834Y204786D01*
X44494Y205646D01*
X44908Y206646D01*
X45050Y207720D01*
X44908Y208794D01*
X44494Y209795D01*
X43834Y210655D01*
X42975Y211314D01*
X41974Y211729D01*
X40900Y211870D01*
D02*
G37*
G36*
X41400Y190279D02*
Y186480D01*
X45198D01*
X45115Y187110D01*
X44679Y188162D01*
X43986Y189066D01*
X43082Y189760D01*
X42030Y190196D01*
X41400Y190279D01*
D02*
G37*
G36*
X40400D02*
X39770Y190196D01*
X38718Y189760D01*
X37814Y189066D01*
X37121Y188162D01*
X36685Y187110D01*
X36602Y186480D01*
X40400D01*
Y190279D01*
D02*
G37*
G36*
X627172Y184063D02*
X623336D01*
Y183179D01*
X627172D01*
Y184063D01*
D02*
G37*
G36*
X45198Y185480D02*
X41400D01*
Y181682D01*
X42030Y181765D01*
X43082Y182201D01*
X43986Y182894D01*
X44679Y183798D01*
X45115Y184851D01*
X45198Y185480D01*
D02*
G37*
G36*
X40400D02*
X36602D01*
X36685Y184851D01*
X37121Y183798D01*
X37814Y182894D01*
X38718Y182201D01*
X39770Y181765D01*
X40400Y181682D01*
Y185480D01*
D02*
G37*
G36*
X40900Y179260D02*
X39826Y179119D01*
X38825Y178704D01*
X37966Y178044D01*
X37306Y177185D01*
X36892Y176184D01*
X36750Y175110D01*
X36892Y174036D01*
X37306Y173035D01*
X37966Y172176D01*
X38825Y171517D01*
X39826Y171102D01*
X40900Y170961D01*
X41974Y171102D01*
X42975Y171517D01*
X43834Y172176D01*
X44494Y173035D01*
X44908Y174036D01*
X45050Y175110D01*
X44908Y176184D01*
X44494Y177185D01*
X43834Y178044D01*
X42975Y178704D01*
X41974Y179119D01*
X40900Y179260D01*
D02*
G37*
G36*
Y146650D02*
X39826Y146508D01*
X38825Y146094D01*
X37966Y145434D01*
X37306Y144575D01*
X36892Y143574D01*
X36750Y142500D01*
X36892Y141426D01*
X37306Y140425D01*
X37966Y139566D01*
X38825Y138906D01*
X39826Y138492D01*
X40900Y138350D01*
X41974Y138492D01*
X42975Y138906D01*
X43834Y139566D01*
X44494Y140425D01*
X44908Y141426D01*
X45050Y142500D01*
X44908Y143574D01*
X44494Y144575D01*
X43834Y145434D01*
X42975Y146094D01*
X41974Y146508D01*
X40900Y146650D01*
D02*
G37*
G36*
Y135780D02*
X39826Y135638D01*
X38825Y135224D01*
X37966Y134564D01*
X37306Y133705D01*
X36892Y132704D01*
X36750Y131630D01*
X36892Y130556D01*
X37306Y129555D01*
X37966Y128696D01*
X38825Y128036D01*
X39826Y127622D01*
X40900Y127480D01*
X41974Y127622D01*
X42975Y128036D01*
X43834Y128696D01*
X44494Y129555D01*
X44908Y130556D01*
X45050Y131630D01*
X44908Y132704D01*
X44494Y133705D01*
X43834Y134564D01*
X42975Y135224D01*
X41974Y135638D01*
X40900Y135780D01*
D02*
G37*
G36*
X52581Y130493D02*
Y126695D01*
X56379D01*
X56296Y127324D01*
X55861Y128377D01*
X55167Y129281D01*
X54263Y129974D01*
X53211Y130410D01*
X52581Y130493D01*
D02*
G37*
G36*
X51581D02*
X50952Y130410D01*
X49899Y129974D01*
X48995Y129281D01*
X48302Y128377D01*
X47866Y127324D01*
X47783Y126695D01*
X51581D01*
Y130493D01*
D02*
G37*
G36*
X624804Y91537D02*
X615355D01*
Y86025D01*
X624804D01*
Y91537D01*
D02*
G37*
%LPD*%
G36*
X356362Y314356D02*
X357133D01*
X357469Y314422D01*
X357753Y314613D01*
X357944Y314898D01*
X357991Y315133D01*
X358524D01*
X358571Y314898D01*
X358761Y314613D01*
X359046Y314422D01*
X359382Y314356D01*
X360153D01*
Y316170D01*
X361153D01*
Y314356D01*
X361924D01*
X361945Y314360D01*
X362445Y313990D01*
Y313308D01*
X359311D01*
X359003Y313247D01*
X358743Y313073D01*
X358569Y312812D01*
X358508Y312505D01*
Y292033D01*
X358508Y284880D01*
X357510Y283882D01*
X354602D01*
X354602Y295182D01*
Y312899D01*
X354540Y313206D01*
X354366Y313466D01*
X354106Y313640D01*
X353799Y313702D01*
X352106D01*
Y314929D01*
X352229D01*
X352512Y314985D01*
X352733Y315133D01*
X353732D01*
X353779Y314898D01*
X353970Y314613D01*
X354254Y314422D01*
X354590Y314356D01*
X355362D01*
Y316170D01*
X356362D01*
Y314356D01*
D02*
G37*
G36*
X416362Y314261D02*
X417133D01*
X417469Y314328D01*
X417753Y314518D01*
X417944Y314803D01*
X418009Y315133D01*
X418505D01*
X418571Y314803D01*
X418761Y314518D01*
X419046Y314328D01*
X419382Y314261D01*
X420153D01*
Y316076D01*
X421153D01*
Y314261D01*
X421924D01*
X421945Y314265D01*
X422445Y313896D01*
Y313308D01*
X419311D01*
X419003Y313247D01*
X418743Y313073D01*
X418569Y312812D01*
X418508Y312505D01*
Y292033D01*
X418508Y284644D01*
X417746Y283882D01*
X414602D01*
X414602Y295182D01*
Y312899D01*
X414540Y313206D01*
X414366Y313466D01*
X414106Y313640D01*
X413799Y313702D01*
X412106D01*
Y314835D01*
X412470D01*
X412752Y314891D01*
X412992Y315051D01*
X413047Y315133D01*
X413714D01*
X413779Y314803D01*
X413970Y314518D01*
X414254Y314328D01*
X414590Y314261D01*
X415361D01*
Y316076D01*
X416362D01*
Y314261D01*
D02*
G37*
G36*
X392933Y285812D02*
X384921D01*
Y302269D01*
X377834Y302269D01*
Y311718D01*
X383877Y311718D01*
X384921Y312761D01*
Y338883D01*
X392933D01*
Y285812D01*
D02*
G37*
G36*
X332933D02*
X324921D01*
Y302269D01*
X317834Y302269D01*
Y311718D01*
X323878Y311718D01*
X324921Y312761D01*
Y338883D01*
X332933D01*
Y285812D01*
D02*
G37*
G36*
X428366Y283844D02*
X419311Y283844D01*
X419311Y292033D01*
Y312505D01*
X423248D01*
Y325497D01*
X419704D01*
X419311Y325891D01*
Y338883D01*
X428366D01*
X428366Y283844D01*
D02*
G37*
G36*
X368366D02*
X359311Y283844D01*
X359311Y292033D01*
Y312505D01*
X363248D01*
Y325497D01*
X359704D01*
X359311Y325891D01*
Y338883D01*
X368366D01*
X368366Y283844D01*
D02*
G37*
G36*
X402244Y320379D02*
X402244Y313765D01*
X403097Y312899D01*
X408287Y312899D01*
X413799Y312899D01*
Y295182D01*
X413799Y283844D01*
X394901Y283844D01*
X394901Y289670D01*
Y320379D01*
X402244Y320379D01*
D02*
G37*
G36*
X342244D02*
X342244Y313765D01*
X343097Y312899D01*
X348287Y312899D01*
X353799Y312899D01*
Y295182D01*
X353799Y283844D01*
X334901Y283844D01*
X334901Y289670D01*
Y320379D01*
X342244Y320379D01*
D02*
G37*
G36*
X437378Y280928D02*
Y277529D01*
X431132Y271284D01*
X417504D01*
X417405Y271784D01*
X417658Y271889D01*
X418347Y272417D01*
X427559D01*
X428278Y272512D01*
X428949Y272790D01*
X429525Y273231D01*
X436217Y279924D01*
X436659Y280500D01*
X436878Y281028D01*
X437378Y280928D01*
D02*
G37*
G36*
X412989Y277823D02*
X412440Y277107D01*
X412058Y276186D01*
X411928Y275197D01*
X412058Y274208D01*
X412440Y273287D01*
X413047Y272496D01*
X413838Y271889D01*
X414091Y271784D01*
X413992Y271284D01*
X407504D01*
X407405Y271784D01*
X407658Y271889D01*
X408449Y272496D01*
X409056Y273287D01*
X409438Y274208D01*
X409568Y275197D01*
X409438Y276186D01*
X409056Y277107D01*
X408507Y277823D01*
X408638Y278323D01*
X412858D01*
X412989Y277823D01*
D02*
G37*
G36*
X516797Y274743D02*
X516558Y274275D01*
X515704Y274162D01*
X514783Y273781D01*
X513992Y273174D01*
X513385Y272382D01*
X513003Y271461D01*
X512873Y270472D01*
X513003Y269484D01*
X513385Y268562D01*
X513992Y267771D01*
X514136Y267661D01*
X513966Y267161D01*
X512559D01*
X510340Y269380D01*
X510383Y269484D01*
X510513Y270472D01*
X510383Y271461D01*
X510001Y272382D01*
X509394Y273174D01*
X508603Y273781D01*
X507682Y274162D01*
X506693Y274292D01*
X505704Y274162D01*
X504783Y273781D01*
X503992Y273174D01*
X503385Y272382D01*
X503003Y271461D01*
X502873Y270472D01*
X503003Y269484D01*
X503046Y269380D01*
X500827Y267161D01*
X499420D01*
X499250Y267661D01*
X499394Y267771D01*
X500001Y268562D01*
X500383Y269484D01*
X500513Y270472D01*
X500383Y271461D01*
X500001Y272382D01*
X499394Y273174D01*
X498603Y273781D01*
X497682Y274162D01*
X496828Y274275D01*
X496589Y274743D01*
X505601Y283755D01*
X505704Y283712D01*
X506693Y283581D01*
X507682Y283712D01*
X507785Y283755D01*
X516797Y274743D01*
D02*
G37*
G36*
X230256Y273282D02*
Y268563D01*
X244463D01*
X247025Y266001D01*
X247450Y265716D01*
X247953Y265616D01*
X249693D01*
X249744Y265138D01*
X249744Y265117D01*
Y258563D01*
X265807D01*
Y260498D01*
X266929D01*
X267431Y260598D01*
X267857Y260883D01*
X268142Y261309D01*
X268242Y261811D01*
X268142Y262313D01*
X267857Y262739D01*
X267431Y263024D01*
X266929Y263124D01*
X265807D01*
Y265117D01*
X265807Y265138D01*
X265859Y265616D01*
X271897D01*
X289622Y247891D01*
X290048Y247607D01*
X290550Y247507D01*
X447053D01*
X447072Y247482D01*
X446827Y246982D01*
X446063D01*
X445561Y246882D01*
X445135Y246598D01*
X444850Y246172D01*
X444750Y245669D01*
X444850Y245167D01*
X445135Y244741D01*
X445561Y244457D01*
X446063Y244357D01*
X446823D01*
X447069Y243857D01*
X447051Y243833D01*
X287157D01*
X273369Y257621D01*
X272943Y257906D01*
X272441Y258005D01*
X248733D01*
X246319Y260419D01*
Y265138D01*
X232112D01*
X229786Y267464D01*
X229361Y267748D01*
X228858Y267848D01*
X142108D01*
X141606Y267748D01*
X141180Y267464D01*
X138852Y265136D01*
X119134D01*
Y263161D01*
X76416D01*
X75913Y263061D01*
X75488Y262777D01*
X66746Y254036D01*
X66247Y254068D01*
X66197Y254135D01*
X65337Y254795D01*
X65268Y254823D01*
X65367Y255323D01*
X66085D01*
X66587Y255423D01*
X67013Y255708D01*
X81841Y270536D01*
X119134Y270536D01*
Y268561D01*
X140709D01*
Y273280D01*
X142888Y275459D01*
X145768D01*
X146134Y275136D01*
X146134Y274959D01*
Y268561D01*
X167709D01*
Y270341D01*
X168898D01*
X169400Y270441D01*
X169826Y270725D01*
X170110Y271151D01*
X170210Y271654D01*
X170110Y272156D01*
X169826Y272582D01*
X169400Y272866D01*
X168898Y272966D01*
X167709D01*
Y274959D01*
X167709Y275136D01*
X168075Y275459D01*
X228078D01*
X230256Y273282D01*
D02*
G37*
G36*
Y283281D02*
Y278563D01*
X244463D01*
X247182Y275844D01*
X247608Y275559D01*
X248110Y275459D01*
X249377D01*
X249744Y275138D01*
X249744Y274959D01*
Y268742D01*
X249744Y268563D01*
X249377Y268242D01*
X248497D01*
X246319Y270419D01*
Y275138D01*
X232112D01*
X229550Y277700D01*
X229124Y277984D01*
X228622Y278084D01*
X167764D01*
X167709Y278561D01*
X167709Y278584D01*
Y280577D01*
X168898D01*
X169400Y280677D01*
X169826Y280962D01*
X170110Y281387D01*
X170210Y281890D01*
X170110Y282392D01*
X169826Y282818D01*
X169400Y283102D01*
X168898Y283202D01*
X167709D01*
Y285136D01*
X146134D01*
Y278584D01*
X146134Y278561D01*
X146079Y278084D01*
X142344D01*
X141842Y277984D01*
X141416Y277700D01*
X138852Y275136D01*
X119134D01*
Y273161D01*
X81298Y273161D01*
X80795Y273061D01*
X80370Y272777D01*
X67149Y259556D01*
X66772Y259886D01*
X66856Y259996D01*
X67270Y260997D01*
X67412Y262071D01*
X67270Y263145D01*
X66856Y264146D01*
X66197Y265005D01*
X65430Y265594D01*
X65454Y265997D01*
X65503Y266137D01*
X65889Y266395D01*
X80030Y280536D01*
X119134D01*
Y278561D01*
X140709D01*
Y283280D01*
X143124Y285695D01*
X227842D01*
X230256Y283281D01*
D02*
G37*
G36*
X616244Y272024D02*
X616339Y271711D01*
X616111Y271369D01*
X616011Y270867D01*
X616111Y270365D01*
X616338Y270024D01*
X616241Y269709D01*
X616117Y269525D01*
X523624D01*
X522932Y269387D01*
X522346Y268995D01*
X520512Y267161D01*
X519420D01*
X519250Y267661D01*
X519394Y267771D01*
X520001Y268562D01*
X520383Y269484D01*
X520513Y270472D01*
X520383Y271461D01*
X520279Y271711D01*
X520613Y272211D01*
X616118D01*
X616244Y272024D01*
D02*
G37*
G36*
X493106Y271710D02*
X493003Y271461D01*
X492873Y270472D01*
X493003Y269484D01*
X493385Y268562D01*
X493992Y267771D01*
X494136Y267661D01*
X493966Y267161D01*
X493268D01*
X491434Y268995D01*
X490848Y269386D01*
X490157Y269524D01*
X469317D01*
X469193Y269708D01*
X469096Y270024D01*
X469323Y270364D01*
X469423Y270866D01*
X469323Y271369D01*
X469095Y271710D01*
X469190Y272021D01*
X469316Y272210D01*
X492772D01*
X493106Y271710D01*
D02*
G37*
G36*
X510534Y264077D02*
X511120Y263685D01*
X511811Y263548D01*
X513436D01*
X513517Y263449D01*
X513418Y262781D01*
X513291Y262696D01*
X507785Y257190D01*
X507682Y257233D01*
X506693Y257363D01*
X505704Y257233D01*
X505601Y257190D01*
X500095Y262695D01*
X499967Y262781D01*
X499866Y263450D01*
X499945Y263548D01*
X501575D01*
X502266Y263685D01*
X502852Y264077D01*
X505601Y266826D01*
X505704Y266782D01*
X506693Y266652D01*
X507682Y266782D01*
X507785Y266826D01*
X510534Y264077D01*
D02*
G37*
G36*
X616244Y265724D02*
X616339Y265412D01*
X616111Y265070D01*
X616011Y264568D01*
X616111Y264065D01*
X616338Y263725D01*
X616241Y263410D01*
X616117Y263225D01*
X522393D01*
X522311Y263325D01*
X522410Y263992D01*
X522537Y264077D01*
X524372Y265912D01*
X616118D01*
X616244Y265724D01*
D02*
G37*
G36*
X491242Y264077D02*
X491371Y263991D01*
X491472Y263322D01*
X491393Y263225D01*
X469317D01*
X469193Y263409D01*
X469096Y263724D01*
X469323Y264065D01*
X469423Y264567D01*
X469323Y265069D01*
X469095Y265411D01*
X469190Y265722D01*
X469316Y265911D01*
X489408D01*
X491242Y264077D01*
D02*
G37*
G36*
X616244Y259425D02*
X616339Y259113D01*
X616111Y258771D01*
X616011Y258268D01*
X616111Y257766D01*
X616396Y257340D01*
X616821Y257056D01*
X617324Y256956D01*
X617327Y256957D01*
X617638D01*
X618111Y256891D01*
Y256123D01*
X616931D01*
X616547Y256047D01*
X616221Y255829D01*
X610608Y250216D01*
X519400D01*
X519230Y250716D01*
X519394Y250842D01*
X520001Y251633D01*
X520383Y252555D01*
X520513Y253543D01*
X520383Y254532D01*
X520001Y255453D01*
X519394Y256244D01*
X518603Y256852D01*
X517682Y257233D01*
X516693Y257363D01*
X515704Y257233D01*
X514783Y256852D01*
X513992Y256244D01*
X513385Y255453D01*
X513003Y254532D01*
X512873Y253543D01*
X513003Y252555D01*
X513385Y251633D01*
X513992Y250842D01*
X514156Y250716D01*
X513986Y250216D01*
X509400D01*
X509230Y250716D01*
X509394Y250842D01*
X510001Y251633D01*
X510383Y252555D01*
X510513Y253543D01*
X510383Y254532D01*
X510340Y254636D01*
X515317Y259612D01*
X616118D01*
X616244Y259425D01*
D02*
G37*
G36*
X503046Y254636D02*
X503003Y254532D01*
X502873Y253543D01*
X503003Y252555D01*
X503385Y251633D01*
X503992Y250842D01*
X504156Y250716D01*
X503986Y250216D01*
X499400D01*
X499230Y250716D01*
X499394Y250842D01*
X500001Y251633D01*
X500383Y252555D01*
X500513Y253543D01*
X500383Y254532D01*
X500001Y255453D01*
X499394Y256244D01*
X498603Y256852D01*
X497682Y257233D01*
X496693Y257363D01*
X495704Y257233D01*
X494783Y256852D01*
X493992Y256244D01*
X493385Y255453D01*
X493003Y254532D01*
X492873Y253543D01*
X493003Y252555D01*
X493385Y251633D01*
X493992Y250842D01*
X494156Y250716D01*
X493986Y250216D01*
X477187D01*
X473150Y254254D01*
X472824Y254471D01*
X472440Y254548D01*
X470099D01*
X469694Y255048D01*
X469708Y255118D01*
X469617Y255579D01*
X469355Y255970D01*
X468965Y256231D01*
X468504Y256322D01*
X468043Y256231D01*
X467880Y256122D01*
X467157D01*
X466914Y256515D01*
X467135Y256955D01*
X468110D01*
X468613Y257055D01*
X469038Y257340D01*
X469323Y257765D01*
X469423Y258268D01*
X469323Y258770D01*
X469095Y259112D01*
X469190Y259422D01*
X469316Y259612D01*
X498070D01*
X503046Y254636D01*
D02*
G37*
G36*
X292772Y254191D02*
X293198Y253906D01*
X293700Y253806D01*
X447053D01*
X447072Y253781D01*
X446827Y253281D01*
X446063D01*
X445561Y253181D01*
X445135Y252897D01*
X444850Y252471D01*
X444750Y251969D01*
X444850Y251466D01*
X445135Y251040D01*
X445561Y250756D01*
X446063Y250656D01*
X446823D01*
X447069Y250156D01*
X447051Y250132D01*
X291094D01*
X273369Y267857D01*
X272943Y268142D01*
X272441Y268242D01*
X266174D01*
X265807Y268563D01*
X265807Y268742D01*
Y270735D01*
X266929D01*
X267431Y270834D01*
X267857Y271119D01*
X268142Y271545D01*
X268242Y272047D01*
X268142Y272550D01*
X267857Y272975D01*
X267431Y273260D01*
X266929Y273360D01*
X265807D01*
Y274959D01*
X265807Y275138D01*
X266174Y275459D01*
X271503D01*
X292772Y254191D01*
D02*
G37*
G36*
X616025Y245741D02*
X616011Y245670D01*
X616111Y245168D01*
X616396Y244742D01*
X616821Y244457D01*
X617324Y244357D01*
X617327Y244358D01*
X617638D01*
X618111Y244293D01*
Y242169D01*
X617891Y241949D01*
X470099D01*
X469694Y242449D01*
X469708Y242520D01*
X469617Y242981D01*
X469355Y243371D01*
X468965Y243632D01*
X468504Y243724D01*
X468043Y243632D01*
X467880Y243523D01*
X467157D01*
X466914Y243916D01*
X467135Y244357D01*
X468110D01*
X468613Y244457D01*
X469038Y244741D01*
X469323Y245167D01*
X469423Y245669D01*
X469409Y245741D01*
X469819Y246241D01*
X615615D01*
X616025Y245741D01*
D02*
G37*
G36*
X230256Y243282D02*
Y238563D01*
X244463D01*
X247732Y235293D01*
X248158Y235009D01*
X248661Y234909D01*
X249744D01*
Y228563D01*
X249744D01*
X249693Y228084D01*
X248654D01*
X246319Y230419D01*
Y235138D01*
X232112D01*
X229708Y237542D01*
X229282Y237827D01*
X228780Y237927D01*
X142187D01*
X141684Y237827D01*
X141259Y237542D01*
X138852Y235136D01*
X119134D01*
Y233161D01*
X69482D01*
X67070Y235574D01*
X66644Y235858D01*
X66142Y235958D01*
X65319D01*
X65220Y236458D01*
X65444Y236551D01*
X66348Y237245D01*
X67042Y238149D01*
X67478Y239201D01*
X67626Y240331D01*
X67606Y240484D01*
X68072Y240774D01*
X68279Y240636D01*
X68781Y240536D01*
X119134D01*
Y238561D01*
X140709D01*
Y243280D01*
X142967Y245538D01*
X145896D01*
X146134Y245136D01*
X146134Y245038D01*
Y238561D01*
X167709D01*
Y240420D01*
X168898D01*
X169400Y240520D01*
X169826Y240804D01*
X170110Y241230D01*
X170210Y241732D01*
X170110Y242235D01*
X169826Y242660D01*
X169400Y242945D01*
X168898Y243045D01*
X167709D01*
Y245038D01*
X167709Y245136D01*
X167946Y245538D01*
X228000D01*
X230256Y243282D01*
D02*
G37*
G36*
X616025Y239442D02*
X616011Y239371D01*
X616111Y238869D01*
X616396Y238443D01*
X616821Y238158D01*
X617324Y238058D01*
X617327Y238059D01*
X617638D01*
X618111Y237994D01*
Y235870D01*
X617891Y235650D01*
X470099D01*
X469694Y236150D01*
X469708Y236221D01*
X469617Y236681D01*
X469355Y237072D01*
X468965Y237333D01*
X468504Y237425D01*
X468043Y237333D01*
X467880Y237224D01*
X467157D01*
X466914Y237617D01*
X467135Y238057D01*
X468110D01*
X468613Y238157D01*
X469038Y238442D01*
X469323Y238868D01*
X469423Y239370D01*
X469409Y239442D01*
X469819Y239942D01*
X615615D01*
X616025Y239442D01*
D02*
G37*
G36*
X59091Y241567D02*
X59047Y241460D01*
X58964Y240831D01*
X63262D01*
Y239831D01*
X58964D01*
X59047Y239201D01*
X59483Y238149D01*
X60176Y237245D01*
X61080Y236551D01*
X61305Y236458D01*
X61205Y235958D01*
X61024D01*
X60521Y235858D01*
X60096Y235574D01*
X55295Y230773D01*
X54186D01*
X54087Y231273D01*
X54156Y231302D01*
X55015Y231961D01*
X55675Y232821D01*
X56089Y233822D01*
X56231Y234896D01*
X56089Y235970D01*
X55675Y236970D01*
X55015Y237830D01*
X54156Y238489D01*
X54087Y238518D01*
X54186Y239018D01*
X55291D01*
X55794Y239118D01*
X56220Y239403D01*
X58667Y241850D01*
X59091Y241567D01*
D02*
G37*
G36*
X616025Y233143D02*
X616011Y233072D01*
X616111Y232569D01*
X616396Y232143D01*
X616821Y231859D01*
X617324Y231759D01*
X617327Y231760D01*
X617638D01*
X618111Y231695D01*
Y229570D01*
X617891Y229351D01*
X470099D01*
X469694Y229851D01*
X469708Y229921D01*
X469617Y230382D01*
X469355Y230773D01*
X468965Y231034D01*
X468504Y231125D01*
X468043Y231034D01*
X467880Y230925D01*
X467157D01*
X466914Y231318D01*
X467135Y231758D01*
X468110D01*
X468613Y231858D01*
X469038Y232143D01*
X469323Y232569D01*
X469423Y233071D01*
X469409Y233143D01*
X469819Y233643D01*
X615615D01*
X616025Y233143D01*
D02*
G37*
G36*
X230256Y233281D02*
Y228563D01*
X244463D01*
X247182Y225844D01*
X247608Y225559D01*
X248110Y225459D01*
X249377D01*
X249744Y225138D01*
X249744Y224959D01*
Y218742D01*
X249744Y218563D01*
X249377Y218242D01*
X248497D01*
X246319Y220419D01*
Y225138D01*
X232112D01*
X229944Y227306D01*
X229518Y227591D01*
X229016Y227691D01*
X141950D01*
X141448Y227591D01*
X141022Y227306D01*
X138852Y225136D01*
X119134D01*
Y223161D01*
X70034D01*
X67464Y225731D01*
X67038Y226016D01*
X66535Y226116D01*
X66409D01*
X66265Y226616D01*
X66856Y227386D01*
X67270Y228387D01*
X67412Y229461D01*
X67270Y230535D01*
X66974Y231250D01*
X67398Y231533D01*
X68010Y230921D01*
X68436Y230636D01*
X68939Y230536D01*
X119134D01*
Y228561D01*
X140709D01*
Y233280D01*
X142730Y235301D01*
X145702D01*
X146134Y235136D01*
X146134Y234802D01*
Y228561D01*
X167709D01*
Y230577D01*
X168898D01*
X169400Y230677D01*
X169826Y230962D01*
X170110Y231387D01*
X170210Y231890D01*
X170110Y232392D01*
X169826Y232818D01*
X169400Y233102D01*
X168898Y233202D01*
X167709D01*
X167709Y235136D01*
X168140Y235301D01*
X228236D01*
X230256Y233281D01*
D02*
G37*
G36*
X447072Y234883D02*
X446827Y234384D01*
X446063D01*
X445561Y234284D01*
X445135Y233999D01*
X444850Y233573D01*
X444750Y233071D01*
X444850Y232569D01*
X445135Y232143D01*
X445561Y231858D01*
X446063Y231758D01*
X446823D01*
X447069Y231258D01*
X447051Y231235D01*
X362206D01*
X361703Y231135D01*
X361277Y230850D01*
X358511Y228084D01*
X265859D01*
X265807Y228563D01*
X265807D01*
Y230577D01*
X266929D01*
X267431Y230677D01*
X267857Y230962D01*
X268142Y231387D01*
X268242Y231890D01*
X268142Y232392D01*
X267857Y232818D01*
X267431Y233102D01*
X266929Y233202D01*
X265807D01*
Y234909D01*
X447053D01*
X447072Y234883D01*
D02*
G37*
G36*
X616025Y226844D02*
X616011Y226772D01*
X616111Y226270D01*
X616396Y225844D01*
X616821Y225560D01*
X617324Y225460D01*
X617327Y225461D01*
X617638D01*
X618111Y225395D01*
Y223271D01*
X617891Y223052D01*
X470099D01*
X469694Y223552D01*
X469708Y223622D01*
X469617Y224083D01*
X469355Y224474D01*
X468965Y224735D01*
X468504Y224826D01*
X468043Y224735D01*
X467880Y224626D01*
X467157D01*
X466914Y225019D01*
X467135Y225459D01*
X468110D01*
X468613Y225559D01*
X469038Y225844D01*
X469323Y226269D01*
X469423Y226772D01*
X469409Y226844D01*
X469819Y227344D01*
X615615D01*
X616025Y226844D01*
D02*
G37*
G36*
X447072Y228584D02*
X446827Y228084D01*
X446063D01*
X445561Y227984D01*
X445135Y227700D01*
X444850Y227274D01*
X444750Y226772D01*
X444850Y226269D01*
X445135Y225844D01*
X445561Y225559D01*
X446063Y225459D01*
X446823D01*
X447069Y224959D01*
X447051Y224935D01*
X364568D01*
X364065Y224835D01*
X363640Y224551D01*
X357330Y218242D01*
X266174D01*
X265807Y218563D01*
X265807Y218742D01*
Y220341D01*
X266929D01*
X267431Y220441D01*
X267857Y220725D01*
X268142Y221151D01*
X268242Y221654D01*
X268142Y222156D01*
X267857Y222582D01*
X267431Y222866D01*
X266929Y222966D01*
X265807D01*
Y224959D01*
X265807Y225138D01*
X266174Y225459D01*
X359055D01*
X359557Y225559D01*
X359983Y225844D01*
X362749Y228609D01*
X447053D01*
X447072Y228584D01*
D02*
G37*
G36*
X616025Y220545D02*
X616011Y220473D01*
X616111Y219971D01*
X616396Y219545D01*
X616821Y219261D01*
X617324Y219161D01*
X617327Y219161D01*
X617638D01*
X618111Y219096D01*
Y216972D01*
X617891Y216752D01*
X470099D01*
X469694Y217252D01*
X469708Y217323D01*
X469617Y217784D01*
X469355Y218174D01*
X468965Y218435D01*
X468504Y218527D01*
X468043Y218435D01*
X467880Y218326D01*
X467157D01*
X466914Y218720D01*
X467135Y219160D01*
X468110D01*
X468613Y219260D01*
X469038Y219544D01*
X469323Y219970D01*
X469423Y220472D01*
X469409Y220545D01*
X469819Y221044D01*
X615615D01*
X616025Y220545D01*
D02*
G37*
G36*
Y214245D02*
X616011Y214174D01*
X616111Y213672D01*
X616396Y213246D01*
X616821Y212961D01*
X617324Y212861D01*
X617327Y212862D01*
X617638D01*
X618111Y212797D01*
Y210673D01*
X617891Y210453D01*
X470099D01*
X469694Y210953D01*
X469708Y211024D01*
X469617Y211485D01*
X469355Y211875D01*
X468965Y212136D01*
X468504Y212228D01*
X468043Y212136D01*
X467880Y212027D01*
X467157D01*
X466914Y212420D01*
X467135Y212861D01*
X468110D01*
X468613Y212961D01*
X469038Y213245D01*
X469323Y213671D01*
X469423Y214173D01*
X469409Y214245D01*
X469819Y214745D01*
X615615D01*
X616025Y214245D01*
D02*
G37*
G36*
Y207946D02*
X616011Y207875D01*
X616111Y207372D01*
X616396Y206947D01*
X616821Y206662D01*
X617324Y206562D01*
X617327Y206563D01*
X617638D01*
X618111Y206498D01*
Y204374D01*
X617891Y204154D01*
X470099D01*
X469694Y204654D01*
X469708Y204724D01*
X469617Y205185D01*
X469355Y205576D01*
X468965Y205837D01*
X468504Y205929D01*
X468043Y205837D01*
X467880Y205728D01*
X467157D01*
X466914Y206121D01*
X467135Y206561D01*
X468110D01*
X468613Y206661D01*
X469038Y206946D01*
X469323Y207372D01*
X469423Y207874D01*
X469409Y207946D01*
X469819Y208446D01*
X615615D01*
X616025Y207946D01*
D02*
G37*
G36*
X249744Y205138D02*
X249744Y204880D01*
Y198663D01*
X249744Y198563D01*
X249503Y198163D01*
X248031D01*
X247529Y198063D01*
X247103Y197778D01*
X244463Y195138D01*
X232112D01*
X229471Y197778D01*
X229046Y198063D01*
X228543Y198163D01*
X167954D01*
X167709Y198561D01*
X167709Y198663D01*
Y200262D01*
X168898D01*
X169400Y200362D01*
X169826Y200647D01*
X170110Y201073D01*
X170210Y201575D01*
X170110Y202077D01*
X169826Y202503D01*
X169400Y202787D01*
X168898Y202887D01*
X167709D01*
X167709Y205136D01*
X168108Y205380D01*
X228157D01*
X230256Y203281D01*
Y198563D01*
X246319D01*
Y203281D01*
X248418Y205380D01*
X249344D01*
X249744Y205138D01*
D02*
G37*
G36*
X447072Y215986D02*
X446827Y215486D01*
X446063D01*
X445561Y215386D01*
X445135Y215101D01*
X444850Y214676D01*
X444750Y214173D01*
X444850Y213671D01*
X445135Y213245D01*
X445561Y212961D01*
X446063Y212861D01*
X446823D01*
X447069Y212361D01*
X447051Y212337D01*
X370079D01*
X369577Y212237D01*
X369151Y211953D01*
X355362Y198163D01*
X266049D01*
X265807Y198563D01*
X265807Y198663D01*
Y200262D01*
X266929D01*
X267431Y200362D01*
X267857Y200647D01*
X268142Y201073D01*
X268242Y201575D01*
X268142Y202077D01*
X267857Y202503D01*
X267431Y202787D01*
X266929Y202887D01*
X265807D01*
X265807Y205138D01*
X266207Y205380D01*
X355906D01*
X356408Y205480D01*
X356834Y205765D01*
X367080Y216011D01*
X447053D01*
X447072Y215986D01*
D02*
G37*
G36*
X616025Y201647D02*
X616011Y201576D01*
X616111Y201073D01*
X616396Y200647D01*
X616821Y200363D01*
X617324Y200263D01*
X617327Y200264D01*
X617638D01*
X618111Y200198D01*
Y197877D01*
X617695Y197460D01*
X469881D01*
X469614Y197960D01*
X469617Y197964D01*
X469708Y198425D01*
X469617Y198886D01*
X469355Y199277D01*
X468965Y199538D01*
X468504Y199629D01*
X468043Y199538D01*
X467880Y199429D01*
X467157D01*
X466914Y199822D01*
X467135Y200262D01*
X468110D01*
X468613Y200362D01*
X469038Y200647D01*
X469323Y201073D01*
X469423Y201575D01*
X469409Y201647D01*
X469819Y202147D01*
X615615D01*
X616025Y201647D01*
D02*
G37*
G36*
X447072Y209687D02*
X446827Y209187D01*
X446063D01*
X445561Y209087D01*
X445135Y208802D01*
X444850Y208376D01*
X444750Y207874D01*
X444850Y207372D01*
X445135Y206946D01*
X445561Y206661D01*
X446063Y206561D01*
X446823D01*
X447069Y206061D01*
X447051Y206038D01*
X373623D01*
X373120Y205938D01*
X372695Y205653D01*
X355362Y188321D01*
X266207D01*
X265807Y188563D01*
X265807Y188821D01*
Y190420D01*
X266929D01*
X267431Y190520D01*
X267857Y190804D01*
X268142Y191230D01*
X268242Y191732D01*
X268142Y192235D01*
X267857Y192660D01*
X267431Y192945D01*
X266929Y193045D01*
X265807D01*
Y195038D01*
X265807Y195138D01*
X266049Y195538D01*
X355906D01*
X356408Y195638D01*
X356834Y195922D01*
X370623Y209712D01*
X447053D01*
X447072Y209687D01*
D02*
G37*
G36*
Y203387D02*
X446827Y202887D01*
X446063D01*
X445561Y202787D01*
X445135Y202503D01*
X444850Y202077D01*
X444750Y201575D01*
X444850Y201073D01*
X445135Y200647D01*
X445561Y200362D01*
X446063Y200262D01*
X446823D01*
X447069Y199762D01*
X447051Y199739D01*
X376379D01*
X375876Y199639D01*
X375451Y199354D01*
X344338Y168242D01*
X248110D01*
X247608Y168142D01*
X247182Y167857D01*
X244463Y165138D01*
X232112D01*
X229393Y167857D01*
X228967Y168142D01*
X228465Y168242D01*
X142502D01*
X141999Y168142D01*
X141573Y167857D01*
X138852Y165136D01*
X119134D01*
Y163161D01*
X110348D01*
X81166Y192343D01*
X80740Y192628D01*
X80238Y192728D01*
X65367D01*
X65268Y193228D01*
X65337Y193257D01*
X66197Y193916D01*
X66856Y194776D01*
X67270Y195776D01*
X67412Y196850D01*
X67270Y197924D01*
X66856Y198925D01*
X66561Y199310D01*
X66782Y199758D01*
X92874D01*
X111711Y180921D01*
X112137Y180636D01*
X112639Y180536D01*
X119134D01*
Y178561D01*
X140709D01*
Y183280D01*
X142730Y185301D01*
X145702D01*
X146134Y185136D01*
X146134Y184801D01*
Y178561D01*
X167709D01*
Y180577D01*
X168898D01*
X169400Y180677D01*
X169826Y180962D01*
X170110Y181387D01*
X170210Y181890D01*
X170110Y182392D01*
X169826Y182818D01*
X169400Y183103D01*
X168898Y183202D01*
X167709D01*
X167709Y185136D01*
X168140Y185301D01*
X228236D01*
X230256Y183282D01*
Y178563D01*
X246319D01*
Y183282D01*
X248733Y185695D01*
X355906D01*
X356408Y185795D01*
X356834Y186080D01*
X374166Y203413D01*
X447053D01*
X447072Y203387D01*
D02*
G37*
G36*
X616025Y176450D02*
X616011Y176379D01*
X616111Y175876D01*
X616396Y175451D01*
X616821Y175166D01*
X617324Y175066D01*
X617327Y175067D01*
X617638D01*
X618111Y175002D01*
Y172878D01*
X617891Y172658D01*
X470099D01*
X469694Y173158D01*
X469708Y173228D01*
X469617Y173689D01*
X469355Y174080D01*
X468965Y174341D01*
X468504Y174433D01*
X468043Y174341D01*
X467880Y174232D01*
X467157D01*
X466914Y174625D01*
X467135Y175065D01*
X468110D01*
X468613Y175165D01*
X469038Y175450D01*
X469323Y175876D01*
X469423Y176378D01*
X469409Y176450D01*
X469819Y176950D01*
X615615D01*
X616025Y176450D01*
D02*
G37*
G36*
Y170151D02*
X616011Y170080D01*
X616111Y169577D01*
X616396Y169151D01*
X616821Y168867D01*
X617324Y168767D01*
X617327Y168768D01*
X617638D01*
X618111Y168702D01*
Y166578D01*
X617891Y166359D01*
X470099D01*
X469694Y166859D01*
X469708Y166929D01*
X469617Y167390D01*
X469355Y167781D01*
X468965Y168042D01*
X468504Y168133D01*
X468043Y168042D01*
X467880Y167933D01*
X467157D01*
X466914Y168326D01*
X467135Y168766D01*
X468110D01*
X468613Y168866D01*
X469038Y169151D01*
X469323Y169576D01*
X469423Y170079D01*
X469409Y170151D01*
X469819Y170651D01*
X615615D01*
X616025Y170151D01*
D02*
G37*
G36*
X113444Y120921D02*
X113869Y120636D01*
X114372Y120536D01*
X119134D01*
Y118561D01*
X140709D01*
Y123280D01*
X142888Y125459D01*
X145768D01*
X146134Y125136D01*
X146134Y124959D01*
Y118742D01*
X146134Y118561D01*
X145766Y118242D01*
X142502D01*
X141999Y118142D01*
X141573Y117857D01*
X138852Y115136D01*
X119134D01*
Y113161D01*
X113498D01*
X67070Y159590D01*
X66644Y159874D01*
X66142Y159974D01*
X65587D01*
X65457Y160425D01*
X65462Y160474D01*
X66348Y161154D01*
X67042Y162058D01*
X67478Y163111D01*
X67560Y163740D01*
X58964D01*
X59047Y163111D01*
X59483Y162058D01*
X60176Y161154D01*
X61063Y160474D01*
X61068Y160425D01*
X60938Y159974D01*
X60583D01*
X60080Y159874D01*
X59654Y159590D01*
X54748Y154683D01*
X54186D01*
X54087Y155183D01*
X54156Y155211D01*
X55015Y155871D01*
X55675Y156730D01*
X56089Y157731D01*
X56231Y158805D01*
X56089Y159879D01*
X55675Y160880D01*
X55015Y161739D01*
X54156Y162399D01*
X54087Y162427D01*
X54186Y162927D01*
X55445D01*
X55947Y163028D01*
X56373Y163312D01*
X58626Y165565D01*
X59033Y165265D01*
X58964Y164740D01*
X67560D01*
X67478Y165370D01*
X67042Y166422D01*
X66404Y167253D01*
X66781Y167583D01*
X113444Y120921D01*
D02*
G37*
G36*
X616025Y163852D02*
X616011Y163780D01*
X616111Y163278D01*
X616396Y162852D01*
X616821Y162568D01*
X617324Y162468D01*
X617327Y162469D01*
X617638D01*
X618111Y162403D01*
Y160279D01*
X617891Y160059D01*
X470099D01*
X469694Y160559D01*
X469708Y160630D01*
X469617Y161091D01*
X469355Y161481D01*
X468965Y161742D01*
X468504Y161834D01*
X468043Y161742D01*
X467880Y161633D01*
X467157D01*
X466914Y162027D01*
X467135Y162467D01*
X468110D01*
X468613Y162567D01*
X469038Y162851D01*
X469323Y163277D01*
X469423Y163779D01*
X469409Y163852D01*
X469819Y164352D01*
X615615D01*
X616025Y163852D01*
D02*
G37*
G36*
Y157552D02*
X616011Y157481D01*
X616111Y156979D01*
X616396Y156553D01*
X616821Y156268D01*
X617324Y156168D01*
X617327Y156169D01*
X617638D01*
X618111Y156104D01*
Y153980D01*
X617891Y153760D01*
X470099D01*
X469694Y154260D01*
X469708Y154331D01*
X469617Y154792D01*
X469355Y155182D01*
X468965Y155443D01*
X468504Y155535D01*
X468043Y155443D01*
X467880Y155334D01*
X467157D01*
X466914Y155727D01*
X467135Y156168D01*
X468110D01*
X468613Y156268D01*
X469038Y156552D01*
X469323Y156978D01*
X469423Y157480D01*
X469409Y157552D01*
X469819Y158052D01*
X615615D01*
X616025Y157552D01*
D02*
G37*
G36*
X249744Y155138D02*
X249744Y154880D01*
Y148663D01*
X249744Y148563D01*
X249503Y148163D01*
X248031D01*
X247529Y148063D01*
X247103Y147778D01*
X244463Y145138D01*
X232112D01*
X229471Y147778D01*
X229046Y148063D01*
X228543Y148163D01*
X167954D01*
X167709Y148561D01*
X167709Y148663D01*
Y150262D01*
X168898D01*
X169400Y150362D01*
X169826Y150647D01*
X170110Y151073D01*
X170210Y151575D01*
X170110Y152077D01*
X169826Y152503D01*
X169400Y152787D01*
X168898Y152887D01*
X167709D01*
X167709Y155136D01*
X168108Y155380D01*
X228157D01*
X230256Y153281D01*
Y148563D01*
X246319D01*
Y153281D01*
X248418Y155380D01*
X249344D01*
X249744Y155138D01*
D02*
G37*
G36*
X447072Y178191D02*
X446827Y177691D01*
X446063D01*
X445561Y177591D01*
X445135Y177306D01*
X444850Y176880D01*
X444750Y176378D01*
X444850Y175876D01*
X445135Y175450D01*
X445561Y175165D01*
X446063Y175065D01*
X446823D01*
X447069Y174565D01*
X447051Y174542D01*
X370867D01*
X370365Y174442D01*
X369939Y174157D01*
X343945Y148163D01*
X266049D01*
X265807Y148563D01*
X265807Y148663D01*
Y150262D01*
X266929D01*
X267431Y150362D01*
X267857Y150647D01*
X268142Y151073D01*
X268242Y151575D01*
X268142Y152077D01*
X267857Y152503D01*
X267431Y152787D01*
X266929Y152887D01*
X265807D01*
X265807Y155138D01*
X266207Y155380D01*
X344488D01*
X344990Y155480D01*
X345416Y155765D01*
X367867Y178216D01*
X447053D01*
X447072Y178191D01*
D02*
G37*
G36*
X616025Y151253D02*
X616011Y151182D01*
X616111Y150680D01*
X616396Y150254D01*
X616821Y149969D01*
X617324Y149869D01*
X617327Y149870D01*
X617638D01*
X618111Y149805D01*
Y147681D01*
X617891Y147461D01*
X470099D01*
X469694Y147961D01*
X469708Y148031D01*
X469617Y148492D01*
X469355Y148883D01*
X468965Y149144D01*
X468504Y149236D01*
X468043Y149144D01*
X467880Y149035D01*
X467157D01*
X466914Y149428D01*
X467135Y149869D01*
X468110D01*
X468613Y149968D01*
X469038Y150253D01*
X469323Y150679D01*
X469423Y151181D01*
X469409Y151253D01*
X469819Y151753D01*
X615615D01*
X616025Y151253D01*
D02*
G37*
G36*
X618111Y144531D02*
X617891Y144311D01*
X470099D01*
X469694Y144811D01*
X469708Y144882D01*
X469694Y144954D01*
X470098Y145454D01*
X618111D01*
Y144531D01*
D02*
G37*
G36*
X107065Y150921D02*
X107491Y150636D01*
X107994Y150536D01*
X119134D01*
Y148561D01*
X140709D01*
Y153280D01*
X142809Y155380D01*
X145735D01*
X146134Y155136D01*
X146134Y154880D01*
Y148663D01*
X146134Y148561D01*
X145889Y148163D01*
X142423D01*
X141920Y148063D01*
X141495Y147778D01*
X138852Y145136D01*
X119134D01*
Y143161D01*
X108695D01*
X75818Y176038D01*
X75392Y176323D01*
X74890Y176423D01*
X67172D01*
X66856Y177185D01*
X66197Y178044D01*
X65337Y178704D01*
X65268Y178733D01*
X65367Y179233D01*
X78754D01*
X107065Y150921D01*
D02*
G37*
G36*
X616025Y141804D02*
X616011Y141733D01*
X616111Y141231D01*
X616396Y140805D01*
X616821Y140520D01*
X617324Y140420D01*
X617327Y140421D01*
X617638D01*
X618111Y140356D01*
Y138232D01*
X617891Y138012D01*
X470099D01*
X469694Y138512D01*
X469708Y138583D01*
X469617Y139043D01*
X469355Y139434D01*
X468965Y139695D01*
X468504Y139787D01*
X468043Y139695D01*
X467880Y139586D01*
X467157D01*
X466914Y139979D01*
X467135Y140420D01*
X468110D01*
X468613Y140520D01*
X469038Y140804D01*
X469323Y141230D01*
X469423Y141732D01*
X469409Y141804D01*
X469819Y142304D01*
X615615D01*
X616025Y141804D01*
D02*
G37*
G36*
X618111Y135082D02*
X617891Y134863D01*
X470099D01*
X469694Y135363D01*
X469708Y135433D01*
X469694Y135505D01*
X470098Y136005D01*
X618111D01*
Y135082D01*
D02*
G37*
G36*
X616025Y132355D02*
X616011Y132284D01*
X616111Y131782D01*
X616396Y131356D01*
X616821Y131072D01*
X617324Y130972D01*
X617327Y130972D01*
X617638D01*
X618111Y130907D01*
Y128783D01*
X617891Y128563D01*
X470099D01*
X469694Y129063D01*
X469708Y129134D01*
X469617Y129595D01*
X469355Y129985D01*
X468965Y130246D01*
X468504Y130338D01*
X468043Y130246D01*
X467880Y130137D01*
X467157D01*
X466914Y130531D01*
X467135Y130971D01*
X468110D01*
X468613Y131071D01*
X469038Y131355D01*
X469323Y131781D01*
X469423Y132283D01*
X469409Y132355D01*
X469819Y132855D01*
X615615D01*
X616025Y132355D01*
D02*
G37*
G36*
X618111Y125633D02*
X617891Y125414D01*
X470099D01*
X469694Y125914D01*
X469708Y125984D01*
X469694Y126056D01*
X470098Y126556D01*
X618111D01*
Y125633D01*
D02*
G37*
G36*
X107223Y140921D02*
X107649Y140636D01*
X108151Y140536D01*
X119134D01*
Y138561D01*
X140709D01*
Y143280D01*
X142967Y145538D01*
X145896D01*
X146134Y145136D01*
X146134Y145038D01*
Y138561D01*
X167709D01*
Y140420D01*
X168898D01*
X169400Y140520D01*
X169826Y140804D01*
X170110Y141230D01*
X170210Y141732D01*
X170110Y142235D01*
X169826Y142660D01*
X169400Y142945D01*
X168898Y143045D01*
X167709D01*
Y145038D01*
X167709Y145136D01*
X167946Y145538D01*
X228000D01*
X230256Y143281D01*
Y138563D01*
X246319D01*
Y143281D01*
X248575Y145538D01*
X249503D01*
X249744Y145138D01*
X249744Y145038D01*
Y138563D01*
X265807D01*
Y140420D01*
X266929D01*
X267431Y140520D01*
X267857Y140804D01*
X268142Y141230D01*
X268242Y141732D01*
X268142Y142235D01*
X267857Y142660D01*
X267431Y142945D01*
X266929Y143045D01*
X265807D01*
Y145038D01*
X265807Y145138D01*
X266049Y145538D01*
X344488D01*
X344990Y145638D01*
X345416Y145922D01*
X371411Y171916D01*
X447053D01*
X447072Y171891D01*
X446827Y171391D01*
X446063D01*
X445561Y171291D01*
X445135Y171007D01*
X444850Y170581D01*
X444750Y170079D01*
X444850Y169576D01*
X445135Y169151D01*
X445561Y168866D01*
X446063Y168766D01*
X446823D01*
X447069Y168266D01*
X447051Y168243D01*
X374410D01*
X373908Y168143D01*
X373482Y167858D01*
X333708Y128084D01*
X247953D01*
X247450Y127984D01*
X247025Y127700D01*
X244463Y125138D01*
X232112D01*
X229550Y127700D01*
X229124Y127984D01*
X228622Y128084D01*
X142344D01*
X141842Y127984D01*
X141416Y127700D01*
X138852Y125136D01*
X119134D01*
Y123161D01*
X114915D01*
X67857Y170220D01*
X67431Y170504D01*
X66929Y170604D01*
X64384D01*
X64336Y171102D01*
X65337Y171517D01*
X66197Y172176D01*
X66856Y173035D01*
X67172Y173798D01*
X74346D01*
X107223Y140921D01*
D02*
G37*
G36*
X618111Y122484D02*
X617891Y122264D01*
X470099D01*
X469694Y122764D01*
X469708Y122835D01*
X469694Y122907D01*
X470098Y123407D01*
X618111D01*
Y122484D01*
D02*
G37*
G36*
Y119334D02*
X617891Y119115D01*
X470099D01*
X469694Y119615D01*
X469708Y119685D01*
X469694Y119757D01*
X470098Y120257D01*
X618111D01*
Y119334D01*
D02*
G37*
G36*
X249744Y125138D02*
X249744Y124959D01*
Y118742D01*
X249744Y118563D01*
X249377Y118242D01*
X248110D01*
X247608Y118142D01*
X247182Y117857D01*
X244463Y115138D01*
X232112D01*
X229393Y117857D01*
X228967Y118142D01*
X228465Y118242D01*
X168076D01*
X167709Y118561D01*
X167709Y118742D01*
Y120341D01*
X168898D01*
X169400Y120441D01*
X169826Y120725D01*
X170110Y121151D01*
X170210Y121653D01*
X170110Y122156D01*
X169826Y122582D01*
X169400Y122866D01*
X168898Y122966D01*
X167709D01*
Y124959D01*
X167709Y125136D01*
X168075Y125459D01*
X228078D01*
X230256Y123282D01*
Y118563D01*
X246319D01*
Y123282D01*
X248497Y125459D01*
X249377D01*
X249744Y125138D01*
D02*
G37*
G36*
X447072Y165592D02*
X446827Y165092D01*
X446063D01*
X445561Y164992D01*
X445135Y164708D01*
X444850Y164282D01*
X444750Y163779D01*
X444850Y163277D01*
X445135Y162851D01*
X445561Y162567D01*
X446063Y162467D01*
X446823D01*
X447069Y161967D01*
X447051Y161943D01*
X378741D01*
X378239Y161843D01*
X377813Y161559D01*
X334496Y118242D01*
X266174D01*
X265807Y118563D01*
X265807Y118742D01*
Y120735D01*
X266929D01*
X267431Y120835D01*
X267857Y121119D01*
X268142Y121545D01*
X268242Y122047D01*
X268142Y122550D01*
X267857Y122975D01*
X267431Y123260D01*
X266929Y123360D01*
X265807D01*
Y124959D01*
X265807Y125138D01*
X266174Y125459D01*
X334252D01*
X334754Y125559D01*
X335180Y125844D01*
X374954Y165617D01*
X447053D01*
X447072Y165592D01*
D02*
G37*
G36*
X616025Y116607D02*
X616011Y116536D01*
X616111Y116034D01*
X616396Y115608D01*
X616821Y115323D01*
X617324Y115224D01*
X617327Y115224D01*
X617638D01*
X618111Y115159D01*
Y113035D01*
X617497Y112421D01*
X469881D01*
X469614Y112921D01*
X469617Y112925D01*
X469708Y113386D01*
X469617Y113847D01*
X469355Y114237D01*
X468965Y114498D01*
X468504Y114590D01*
X468043Y114498D01*
X467880Y114389D01*
X467157D01*
X466914Y114783D01*
X467135Y115223D01*
X468110D01*
X468613Y115323D01*
X469038Y115607D01*
X469323Y116033D01*
X469423Y116535D01*
X469409Y116607D01*
X469819Y117107D01*
X615615D01*
X616025Y116607D01*
D02*
G37*
G36*
X447072Y159293D02*
X446827Y158793D01*
X446063D01*
X445561Y158693D01*
X445135Y158408D01*
X444850Y157983D01*
X444750Y157480D01*
X444850Y156978D01*
X445135Y156552D01*
X445561Y156268D01*
X446063Y156168D01*
X446823D01*
X447069Y155668D01*
X447051Y155644D01*
X383072D01*
X382569Y155544D01*
X382143Y155260D01*
X334889Y108005D01*
X247874D01*
X247372Y107906D01*
X246946Y107621D01*
X244463Y105138D01*
X232112D01*
X229629Y107621D01*
X229203Y107906D01*
X228701Y108005D01*
X142265D01*
X141763Y107906D01*
X141337Y107621D01*
X138852Y105136D01*
X119134D01*
Y103161D01*
X114049D01*
X68347Y148863D01*
X67922Y149148D01*
X67419Y149248D01*
X65367D01*
X65268Y149748D01*
X65337Y149776D01*
X66197Y150436D01*
X66856Y151295D01*
X67270Y152296D01*
X67412Y153370D01*
X67270Y154444D01*
X66899Y155341D01*
X67323Y155624D01*
X112026Y110921D01*
X112452Y110636D01*
X112954Y110536D01*
X119134D01*
Y108561D01*
X140709D01*
Y113280D01*
X143045Y115617D01*
X146086D01*
X146134Y115136D01*
X146134Y115117D01*
Y108561D01*
X167709D01*
Y110498D01*
X168898D01*
X169400Y110598D01*
X169826Y110883D01*
X170110Y111309D01*
X170210Y111811D01*
X170110Y112313D01*
X169826Y112739D01*
X169400Y113024D01*
X168898Y113124D01*
X167709D01*
Y115117D01*
X167709Y115136D01*
X167756Y115617D01*
X227921D01*
X230256Y113282D01*
Y108563D01*
X246319D01*
Y113282D01*
X248654Y115617D01*
X249693D01*
X249744Y115138D01*
X249744Y115117D01*
Y108563D01*
X265807D01*
Y110498D01*
X266929D01*
X267431Y110598D01*
X267857Y110883D01*
X268142Y111309D01*
X268242Y111811D01*
X268142Y112313D01*
X267857Y112739D01*
X267431Y113024D01*
X266929Y113124D01*
X265807D01*
Y115117D01*
X265807Y115138D01*
X265859Y115617D01*
X335039D01*
X335542Y115716D01*
X335967Y116001D01*
X379285Y159318D01*
X447053D01*
X447072Y159293D01*
D02*
G37*
G36*
X249744Y105138D02*
X249744Y104880D01*
Y98663D01*
X249744Y98563D01*
X249503Y98163D01*
X248031D01*
X247529Y98063D01*
X247103Y97778D01*
X244463Y95138D01*
X232112D01*
X229471Y97778D01*
X229046Y98063D01*
X228543Y98163D01*
X167954D01*
X167709Y98561D01*
X167709Y98663D01*
Y100656D01*
X168898D01*
X169400Y100756D01*
X169826Y101040D01*
X170110Y101466D01*
X170210Y101969D01*
X170110Y102471D01*
X169826Y102897D01*
X169400Y103181D01*
X168898Y103281D01*
X167709D01*
X167709Y105136D01*
X168108Y105380D01*
X228157D01*
X230256Y103281D01*
Y98563D01*
X246319D01*
Y103281D01*
X248418Y105380D01*
X249344D01*
X249744Y105138D01*
D02*
G37*
G36*
X447072Y152994D02*
X446827Y152494D01*
X446063D01*
X445561Y152394D01*
X445135Y152109D01*
X444850Y151683D01*
X444750Y151181D01*
X444850Y150679D01*
X445135Y150253D01*
X445561Y149968D01*
X446063Y149869D01*
X447356D01*
X447407Y149808D01*
X447578Y149369D01*
X447427Y149144D01*
X447343Y148721D01*
Y147343D01*
X447427Y146921D01*
X447486Y146833D01*
X447627Y146458D01*
X447486Y146082D01*
X447427Y145994D01*
X447343Y145572D01*
Y144194D01*
X447427Y143771D01*
X447579Y143545D01*
X447411Y143109D01*
X447357Y143045D01*
X446063D01*
X445561Y142945D01*
X445135Y142660D01*
X444850Y142235D01*
X444750Y141732D01*
X444850Y141230D01*
X445135Y140804D01*
X445561Y140520D01*
X446063Y140420D01*
X446823D01*
X447069Y139920D01*
X447051Y139896D01*
X377954D01*
X377451Y139796D01*
X377025Y139512D01*
X335677Y98163D01*
X266049D01*
X265807Y98563D01*
X265807Y98663D01*
Y100656D01*
X266929D01*
X267431Y100756D01*
X267857Y101040D01*
X268142Y101466D01*
X268242Y101969D01*
X268142Y102471D01*
X267857Y102897D01*
X267431Y103181D01*
X266929Y103281D01*
X265807D01*
X265807Y105138D01*
X266207Y105380D01*
X335433D01*
X335935Y105480D01*
X336361Y105765D01*
X383615Y153019D01*
X447053D01*
X447072Y152994D01*
D02*
G37*
G36*
X112577Y100921D02*
X113003Y100636D01*
X113505Y100536D01*
X119134D01*
Y98561D01*
X140709D01*
Y103280D01*
X142809Y105380D01*
X145735D01*
X146134Y105136D01*
X146134Y104880D01*
Y98663D01*
X146134Y98561D01*
X145889Y98163D01*
X142423D01*
X141920Y98063D01*
X141495Y97778D01*
X138852Y95136D01*
X119134D01*
Y93161D01*
X114457D01*
X66955Y140664D01*
X67270Y141426D01*
X67412Y142500D01*
X67270Y143574D01*
X66856Y144575D01*
X66197Y145434D01*
X65337Y146094D01*
X65268Y146122D01*
X65367Y146622D01*
X66876D01*
X112577Y100921D01*
D02*
G37*
G36*
X446997Y137009D02*
X446852Y136747D01*
X387402D01*
X386900Y136647D01*
X386474Y136362D01*
X338039Y87927D01*
X247795D01*
X247293Y87827D01*
X246867Y87542D01*
X244463Y85138D01*
X232112D01*
X229314Y87936D01*
X228888Y88221D01*
X228386Y88320D01*
X168109D01*
X167709Y88561D01*
X167709Y88820D01*
Y90420D01*
X168898D01*
X169400Y90520D01*
X169826Y90804D01*
X170110Y91230D01*
X170210Y91732D01*
X170110Y92235D01*
X169826Y92660D01*
X169400Y92945D01*
X168898Y93045D01*
X167709D01*
Y95038D01*
X167709Y95136D01*
X167946Y95538D01*
X228000D01*
X230256Y93282D01*
Y88563D01*
X246319D01*
Y93282D01*
X248575Y95538D01*
X249503D01*
X249744Y95138D01*
X249744Y95038D01*
Y88563D01*
X265807D01*
Y90420D01*
X266929D01*
X267431Y90520D01*
X267857Y90804D01*
X268142Y91230D01*
X268242Y91732D01*
X268142Y92235D01*
X267857Y92660D01*
X267431Y92945D01*
X266929Y93045D01*
X265807D01*
Y95038D01*
X265807Y95138D01*
X266049Y95538D01*
X336221D01*
X336723Y95638D01*
X337149Y95922D01*
X378497Y137271D01*
X446852D01*
X446997Y137009D01*
D02*
G37*
G36*
X447072Y134096D02*
X446827Y133596D01*
X446063D01*
X445561Y133496D01*
X445135Y133212D01*
X444850Y132786D01*
X444750Y132283D01*
X444850Y131781D01*
X445135Y131355D01*
X445561Y131071D01*
X446063Y130971D01*
X446823D01*
X447069Y130471D01*
X447051Y130447D01*
X393702D01*
X393199Y130347D01*
X392773Y130063D01*
X340401Y77691D01*
X247559D01*
X247057Y77591D01*
X246631Y77306D01*
X244463Y75138D01*
X232112D01*
X229944Y77306D01*
X229518Y77591D01*
X229016Y77691D01*
X141950D01*
X141448Y77591D01*
X141022Y77306D01*
X138852Y75136D01*
X119134D01*
Y73161D01*
X114522D01*
X71007Y116676D01*
X70581Y116961D01*
X70079Y117061D01*
X66021D01*
X65851Y117561D01*
X66197Y117826D01*
X66856Y118685D01*
X67270Y119686D01*
X67412Y120760D01*
X67270Y121834D01*
X66856Y122835D01*
X66197Y123694D01*
X65337Y124354D01*
X64826Y124565D01*
X64925Y125065D01*
X69929D01*
X114073Y80921D01*
X114499Y80636D01*
X115002Y80536D01*
X119134D01*
Y78561D01*
X140709D01*
Y83280D01*
X143124Y85695D01*
X227842D01*
X230256Y83281D01*
Y78563D01*
X246319D01*
Y83281D01*
X248339Y85302D01*
X249312D01*
X249744Y85138D01*
X249744Y84802D01*
Y78563D01*
X265807D01*
Y80577D01*
X266929D01*
X267431Y80677D01*
X267857Y80962D01*
X268142Y81387D01*
X268242Y81890D01*
X268142Y82392D01*
X267857Y82818D01*
X267431Y83103D01*
X266929Y83202D01*
X265807D01*
X265807Y85138D01*
X266239Y85302D01*
X338583D01*
X339085Y85401D01*
X339511Y85686D01*
X387946Y134121D01*
X447053D01*
X447072Y134096D01*
D02*
G37*
G36*
X447411Y127757D02*
X447562Y127386D01*
X447486Y127184D01*
X447427Y127096D01*
X447343Y126674D01*
Y125296D01*
X447427Y124874D01*
X447486Y124786D01*
X447627Y124410D01*
X447486Y124035D01*
X447427Y123947D01*
X447343Y123524D01*
Y122146D01*
X447427Y121724D01*
X447486Y121636D01*
X447627Y121261D01*
X447486Y120885D01*
X447427Y120797D01*
X447343Y120375D01*
Y118997D01*
X447427Y118574D01*
X447579Y118348D01*
X447411Y117912D01*
X447357Y117848D01*
X446063D01*
X445561Y117748D01*
X445135Y117464D01*
X444850Y117038D01*
X444750Y116535D01*
X444850Y116033D01*
X445135Y115607D01*
X445561Y115323D01*
X446063Y115223D01*
X446823D01*
X447069Y114723D01*
X447051Y114699D01*
X390552D01*
X390050Y114599D01*
X389624Y114315D01*
X333315Y58005D01*
X250315D01*
X249813Y57906D01*
X249387Y57621D01*
X246929Y55163D01*
X240287D01*
X240161Y55138D01*
X232112D01*
X229629Y57621D01*
X229503Y57705D01*
X229609Y58236D01*
X229611Y58236D01*
X230037Y58521D01*
X230054Y58538D01*
X236287D01*
X236790Y58638D01*
X237216Y58922D01*
X237244Y58950D01*
X237787D01*
Y61350D01*
X230643D01*
Y61163D01*
X229510D01*
X229008Y61063D01*
X228582Y60779D01*
X228522Y60718D01*
X228238Y60662D01*
X227812Y60377D01*
X227527Y59951D01*
X227428Y59449D01*
X227527Y58947D01*
X227812Y58521D01*
X227835Y58505D01*
X227683Y58005D01*
X142265D01*
X141763Y57906D01*
X141337Y57621D01*
X138852Y55136D01*
X120990D01*
X71261Y104865D01*
X70835Y105150D01*
X70333Y105250D01*
X63658D01*
X63621Y105283D01*
X63640Y105521D01*
X63784Y105809D01*
X64336Y105882D01*
X65337Y106296D01*
X66197Y106956D01*
X66856Y107815D01*
X67270Y108816D01*
X67412Y109890D01*
X67270Y110964D01*
X66856Y111965D01*
X66197Y112824D01*
X65337Y113484D01*
X64336Y113898D01*
X64052Y113935D01*
X64085Y114435D01*
X69535D01*
X113050Y70921D01*
X113476Y70636D01*
X113978Y70536D01*
X119134D01*
Y68561D01*
X140709D01*
Y73280D01*
X142494Y75065D01*
X146134D01*
Y68561D01*
X167709D01*
Y70735D01*
X168898D01*
X169400Y70834D01*
X169826Y71119D01*
X170110Y71545D01*
X170210Y72047D01*
X170110Y72550D01*
X169826Y72975D01*
X169400Y73260D01*
X168898Y73360D01*
X167709D01*
Y75065D01*
X228472D01*
X230256Y73282D01*
Y68563D01*
X246319D01*
Y73282D01*
X248103Y75065D01*
X249744D01*
Y68563D01*
X265807D01*
Y70341D01*
X266929D01*
X267431Y70441D01*
X267857Y70725D01*
X268142Y71151D01*
X268242Y71653D01*
X268142Y72156D01*
X267857Y72582D01*
X267431Y72866D01*
X266929Y72966D01*
X265807D01*
Y75065D01*
X340945D01*
X341447Y75165D01*
X341873Y75450D01*
X394245Y127822D01*
X447357D01*
X447411Y127757D01*
D02*
G37*
%LPC*%
G36*
X265807Y185138D02*
X249744D01*
Y178563D01*
X265807D01*
Y180577D01*
X266929D01*
X267431Y180677D01*
X267857Y180962D01*
X268142Y181387D01*
X268242Y181890D01*
X268142Y182392D01*
X267857Y182818D01*
X267431Y183103D01*
X266929Y183202D01*
X265807D01*
Y185138D01*
D02*
G37*
G36*
X245932Y174750D02*
X238787D01*
Y172350D01*
X245932D01*
Y174750D01*
D02*
G37*
G36*
X257276D02*
X250132D01*
Y172350D01*
X257276D01*
Y174750D01*
D02*
G37*
G36*
X140321Y174749D02*
X130421D01*
Y172349D01*
X140321D01*
Y174749D01*
D02*
G37*
G36*
X156421D02*
X146521D01*
Y172349D01*
X156421D01*
Y174749D01*
D02*
G37*
G36*
X267323Y174777D02*
X259390D01*
X259255Y174750D01*
X258276D01*
Y171850D01*
Y168950D01*
X265420D01*
Y169002D01*
X267323D01*
X267825Y169102D01*
X268251Y169387D01*
X268535Y169813D01*
X268636Y170315D01*
X268535Y170817D01*
X268251Y171243D01*
X267825Y171528D01*
X267323Y171628D01*
X265420D01*
Y172152D01*
X267323D01*
X267825Y172252D01*
X268251Y172536D01*
X268535Y172962D01*
X268636Y173465D01*
X268535Y173967D01*
X268251Y174393D01*
X267825Y174677D01*
X267323Y174777D01*
D02*
G37*
G36*
X257276Y171350D02*
X250132D01*
Y168950D01*
X257276D01*
Y171350D01*
D02*
G37*
G36*
X245932Y171350D02*
X238787D01*
Y168950D01*
X245932D01*
Y171350D01*
D02*
G37*
G36*
X156421Y171349D02*
X146521D01*
Y168949D01*
X156421D01*
Y171349D01*
D02*
G37*
G36*
X140321D02*
X130421D01*
Y168949D01*
X140321D01*
Y171349D01*
D02*
G37*
G36*
X237787Y174750D02*
X230643D01*
Y174698D01*
X228740D01*
X228238Y174599D01*
X227812Y174314D01*
X227527Y173888D01*
X227428Y173386D01*
X227527Y172883D01*
X227812Y172458D01*
X228238Y172173D01*
X228740Y172073D01*
X230643D01*
Y171549D01*
X228740D01*
X228238Y171449D01*
X227812Y171164D01*
X227527Y170738D01*
X227428Y170236D01*
X227527Y169734D01*
X227812Y169308D01*
X228238Y169024D01*
X228740Y168924D01*
X236673D01*
X236808Y168950D01*
X237787D01*
Y171850D01*
Y174750D01*
D02*
G37*
G36*
X167321Y174749D02*
X157421D01*
Y171849D01*
Y168949D01*
X158407D01*
X158534Y168924D01*
X169291D01*
X169794Y169024D01*
X170220Y169308D01*
X170504Y169734D01*
X170604Y170236D01*
X170504Y170738D01*
X170220Y171164D01*
X169794Y171449D01*
X169291Y171549D01*
X167321D01*
Y172073D01*
X169291D01*
X169794Y172173D01*
X170220Y172458D01*
X170504Y172883D01*
X170604Y173386D01*
X170504Y173888D01*
X170220Y174314D01*
X169794Y174599D01*
X169291Y174698D01*
X167321D01*
Y174749D01*
D02*
G37*
G36*
X129421D02*
X119521D01*
Y174305D01*
X117323D01*
X116821Y174205D01*
X116395Y173920D01*
X116110Y173495D01*
X116010Y172992D01*
X116110Y172490D01*
X116395Y172064D01*
X116652Y171892D01*
X116658Y171875D01*
Y171353D01*
X116652Y171336D01*
X116395Y171164D01*
X116110Y170738D01*
X116010Y170236D01*
X116110Y169734D01*
X116395Y169308D01*
X116821Y169024D01*
X117323Y168924D01*
X128309D01*
X128436Y168949D01*
X129421D01*
Y171849D01*
Y174749D01*
D02*
G37*
G36*
X245932Y134750D02*
X238787D01*
Y132350D01*
X245932D01*
Y134750D01*
D02*
G37*
G36*
X257276D02*
X250132D01*
Y132350D01*
X257276D01*
Y134750D01*
D02*
G37*
G36*
X140321Y134749D02*
X130421D01*
Y132349D01*
X140321D01*
Y134749D01*
D02*
G37*
G36*
X156421D02*
X146521D01*
Y132349D01*
X156421D01*
Y134749D01*
D02*
G37*
G36*
X267323Y134777D02*
X259390D01*
X259255Y134750D01*
X258276D01*
Y131850D01*
Y128950D01*
X265420D01*
Y129002D01*
X267323D01*
X267825Y129102D01*
X268251Y129387D01*
X268535Y129813D01*
X268636Y130315D01*
X268535Y130817D01*
X268251Y131243D01*
X267825Y131528D01*
X267323Y131628D01*
X265420D01*
Y132152D01*
X267323D01*
X267825Y132252D01*
X268251Y132536D01*
X268535Y132962D01*
X268636Y133465D01*
X268535Y133967D01*
X268251Y134393D01*
X267825Y134677D01*
X267323Y134777D01*
D02*
G37*
G36*
X257276Y131350D02*
X250132D01*
Y128950D01*
X257276D01*
Y131350D01*
D02*
G37*
G36*
X245932Y131350D02*
X238787D01*
Y128950D01*
X245932D01*
Y131350D01*
D02*
G37*
G36*
X156421Y131349D02*
X146521D01*
Y128949D01*
X156421D01*
Y131349D01*
D02*
G37*
G36*
X140321D02*
X130421D01*
Y128949D01*
X140321D01*
Y131349D01*
D02*
G37*
G36*
X237787Y134750D02*
X230643D01*
Y134698D01*
X228740D01*
X228238Y134599D01*
X227812Y134314D01*
X227527Y133888D01*
X227428Y133386D01*
X227527Y132884D01*
X227812Y132458D01*
X228238Y132173D01*
X228740Y132073D01*
X230643D01*
Y131549D01*
X228740D01*
X228238Y131449D01*
X227812Y131164D01*
X227527Y130738D01*
X227428Y130236D01*
X227527Y129734D01*
X227812Y129308D01*
X228238Y129024D01*
X228740Y128924D01*
X236673D01*
X236808Y128950D01*
X237787D01*
Y131850D01*
Y134750D01*
D02*
G37*
G36*
X167321Y134749D02*
X157421D01*
Y131849D01*
Y128949D01*
X158407D01*
X158534Y128924D01*
X169291D01*
X169794Y129024D01*
X170220Y129308D01*
X170504Y129734D01*
X170604Y130236D01*
X170504Y130738D01*
X170220Y131164D01*
X169794Y131449D01*
X169291Y131549D01*
X167321D01*
Y132073D01*
X169291D01*
X169794Y132173D01*
X170220Y132458D01*
X170504Y132884D01*
X170604Y133386D01*
X170504Y133888D01*
X170220Y134314D01*
X169794Y134599D01*
X169291Y134698D01*
X167321D01*
Y134749D01*
D02*
G37*
G36*
X129421D02*
X119521D01*
Y134305D01*
X117323D01*
X116821Y134205D01*
X116395Y133920D01*
X116110Y133494D01*
X116010Y132992D01*
X116110Y132490D01*
X116395Y132064D01*
X116652Y131892D01*
X116658Y131875D01*
Y131353D01*
X116652Y131336D01*
X116395Y131164D01*
X116110Y130738D01*
X116010Y130236D01*
X116110Y129734D01*
X116395Y129308D01*
X116821Y129024D01*
X117323Y128924D01*
X128309D01*
X128436Y128949D01*
X129421D01*
Y131849D01*
Y134749D01*
D02*
G37*
G36*
X167709Y85136D02*
X146134D01*
Y78561D01*
X167709D01*
Y80577D01*
X168898D01*
X169400Y80677D01*
X169826Y80962D01*
X170110Y81387D01*
X170210Y81890D01*
X170110Y82392D01*
X169826Y82818D01*
X169400Y83103D01*
X168898Y83202D01*
X167709D01*
Y85136D01*
D02*
G37*
G36*
X245932Y64750D02*
X238787D01*
Y62350D01*
X245932D01*
Y64750D01*
D02*
G37*
G36*
X229109Y65486D02*
X228740D01*
X228238Y65386D01*
X227812Y65101D01*
X227527Y64675D01*
X227428Y64173D01*
X227527Y63671D01*
X227812Y63245D01*
X228238Y62960D01*
X228534Y62902D01*
X228929Y62638D01*
X229432Y62538D01*
X230643D01*
Y62350D01*
X237787D01*
Y64750D01*
X237244D01*
X237216Y64779D01*
X236790Y65063D01*
X236287Y65163D01*
X229945D01*
X229611Y65386D01*
X229109Y65486D01*
D02*
G37*
G36*
X140945Y67061D02*
X140443Y66961D01*
X140017Y66676D01*
X138121Y64780D01*
X138114Y64770D01*
X138093Y64749D01*
X130421D01*
Y62349D01*
X140321D01*
Y63268D01*
X141873Y64820D01*
X142158Y65246D01*
X142257Y65748D01*
X142158Y66250D01*
X141873Y66676D01*
X141447Y66961D01*
X140945Y67061D01*
D02*
G37*
G36*
X118898Y67061D02*
X118395Y66961D01*
X117970Y66676D01*
X117685Y66250D01*
X117585Y65748D01*
X117685Y65246D01*
X117970Y64820D01*
X119521Y63268D01*
Y62349D01*
X129421D01*
Y64749D01*
X121750D01*
X121729Y64770D01*
X121722Y64780D01*
X119826Y66676D01*
X119400Y66961D01*
X118898Y67061D01*
D02*
G37*
G36*
X245932Y61350D02*
X238787D01*
Y58950D01*
X245932D01*
Y61350D01*
D02*
G37*
G36*
X140321Y61349D02*
X130421D01*
Y58949D01*
X140321D01*
Y61349D01*
D02*
G37*
G36*
X129421D02*
X119521D01*
Y58949D01*
X129421D01*
Y61349D01*
D02*
G37*
G36*
X265807Y65138D02*
X249744D01*
Y58563D01*
X265807D01*
Y60498D01*
X266929D01*
X267431Y60598D01*
X267857Y60883D01*
X268142Y61309D01*
X268242Y61811D01*
X268142Y62313D01*
X267857Y62739D01*
X267431Y63024D01*
X266929Y63124D01*
X265807D01*
Y65138D01*
D02*
G37*
G36*
X167709Y65136D02*
X146134D01*
Y58561D01*
X167709D01*
Y60498D01*
X168898D01*
X169400Y60598D01*
X169826Y60883D01*
X170110Y61309D01*
X170210Y61811D01*
X170110Y62313D01*
X169826Y62739D01*
X169400Y63024D01*
X168898Y63124D01*
X167709D01*
Y65136D01*
D02*
G37*
%LPD*%
D11*
X410793Y316273D02*
X411194D01*
X410275D02*
X410793D01*
X408044Y314304D02*
X408346Y314605D01*
X408859D01*
X409645Y315392D01*
Y315642D01*
X410275Y316273D01*
X349645Y315642D02*
X350275Y316273D01*
X349645Y315392D02*
Y315642D01*
X348859Y314605D02*
X349645Y315392D01*
X348346Y314605D02*
X348859D01*
X348044Y314304D02*
X348346Y314605D01*
X350275Y316273D02*
X350794D01*
X351194D01*
D12*
X514569Y261419D02*
X622835D01*
X523624Y267718D02*
X622835D01*
X520077Y274017D02*
X622835D01*
X320390Y314602D02*
Y318035D01*
X320315Y318110D02*
X320390Y318035D01*
X317559Y318110D02*
X317634Y318035D01*
Y317358D02*
Y318035D01*
Y317358D02*
X320390Y314602D01*
X320483Y314509D01*
X321187Y314602D02*
X322078Y315493D01*
Y316289D01*
X322996Y317207D01*
Y318035D01*
X323071Y318110D01*
X320390Y314602D02*
X321187D01*
X380390D02*
X381187D01*
X382996Y318035D02*
X383071Y318110D01*
X382996Y317207D02*
Y318035D01*
X382078Y316289D02*
X382996Y317207D01*
X382078Y315493D02*
Y316289D01*
X381187Y314602D02*
X382078Y315493D01*
X380390Y314602D02*
X380484Y314509D01*
X377634Y317358D02*
X380390Y314602D01*
X377634Y317358D02*
Y318035D01*
X377559Y318110D02*
X377634Y318035D01*
X380315Y318110D02*
X380390Y318035D01*
Y314602D02*
Y318035D01*
X156922Y341850D02*
X238287D01*
X156922Y321850D02*
X238287D01*
X543701Y287402D02*
X562992Y306693D01*
Y336614D01*
X516693Y287402D02*
X543701D01*
X156922Y301850D02*
X238287D01*
X238287Y341850D02*
X238288Y341851D01*
X238287Y321850D02*
X238287Y321850D01*
Y301850D02*
X257776D01*
X238287Y301850D02*
X238287Y301850D01*
X156921Y301849D02*
X156922Y301850D01*
X238287Y321850D02*
X257776D01*
X156921Y321849D02*
X156922Y321850D01*
X238287Y341850D02*
X257776D01*
X156921Y341849D02*
X156922Y341850D01*
X88778Y321849D02*
X129921D01*
X52081Y285152D02*
X88778Y321849D01*
X52081Y278376D02*
Y285152D01*
X129921Y341849D02*
X156921D01*
X98938D02*
X129921D01*
X40900Y283811D02*
X98938Y341849D01*
X129921Y301849D02*
X156921D01*
X89628Y301575D02*
X129647D01*
X129921Y301849D01*
X66400Y278346D02*
X89628Y301575D01*
X60236Y278346D02*
X66400D01*
X54831Y272941D02*
X60236Y278346D01*
X40900Y272941D02*
X54831D01*
X129921Y321849D02*
X156921D01*
X506693Y287402D02*
X520077Y274017D01*
X492520Y265354D02*
X501575D01*
X490157Y267717D02*
X492520Y265354D01*
X463900Y267717D02*
X490157D01*
X521260Y265354D02*
X523624Y267718D01*
X511811Y265354D02*
X521260D01*
X506693Y270472D02*
X511811Y265354D01*
X463900Y274016D02*
X493308D01*
X506693Y287402D01*
X450514Y274016D02*
X463900D01*
X501575Y265354D02*
X506693Y270472D01*
X450514Y267717D02*
X463900D01*
X506693Y253543D02*
X514569Y261419D01*
X463900Y261418D02*
X498818D01*
X506693Y253543D01*
X450514Y261418D02*
X463900D01*
D15*
X404862Y321975D02*
X404865D01*
X344862D02*
X345276D01*
X409861Y321978D02*
X409865Y321981D01*
X349861Y321978D02*
X349865Y321981D01*
D17*
X426378Y329921D02*
X429528D01*
X381221D02*
X383465D01*
X367323D02*
X369685D01*
X319409D02*
X322047D01*
X319409Y329921D02*
X319409Y329921D01*
X388583Y342913D02*
X398425D01*
X383071Y348425D02*
X388583Y342913D01*
X383071Y348425D02*
Y355906D01*
X326772Y343307D02*
X338189D01*
X322047Y348031D02*
X326772Y343307D01*
X322047Y348031D02*
Y357353D01*
X316600Y362800D02*
X322047Y357353D01*
X257776Y341851D02*
X259233Y340394D01*
X238287Y341850D02*
X238287Y341850D01*
X236288Y339851D02*
X238287Y341850D01*
X259469Y323543D02*
X267323D01*
X236286Y323850D02*
X238287Y321850D01*
X446063Y258268D02*
X454724D01*
X459449D02*
X468110D01*
X259232Y300394D02*
X267323D01*
X257776Y301850D02*
X259232Y300394D01*
X259469Y303543D02*
X267323D01*
X257776Y301850D02*
X259469Y303543D01*
X236287Y299850D02*
X238287Y301850D01*
X236286Y303850D02*
X238287Y301850D01*
X228827Y303850D02*
X236286D01*
X228740Y303937D02*
X228827Y303850D01*
X228984Y299850D02*
X236287D01*
X228740Y299606D02*
X228984Y299850D01*
X236287Y59850D02*
X238287Y61850D01*
X228740Y59449D02*
X229109D01*
X229510Y59850D01*
X236287D01*
Y63850D02*
X238287Y61850D01*
X228740Y64173D02*
X229109D01*
X229432Y63850D01*
X236287D01*
X228740Y133386D02*
X236752D01*
X238287Y131850D01*
X228740Y130236D02*
X236673D01*
X238287Y131850D01*
X259311Y130315D02*
X267323D01*
X257776Y131850D02*
X259311Y130315D01*
X259390Y133465D02*
X267323D01*
X257776Y131850D02*
X259390Y133465D01*
X259311Y170315D02*
X267323D01*
X257776Y171850D02*
X259311Y170315D01*
X259390Y173465D02*
X267323D01*
X257776Y171850D02*
X259390Y173465D01*
X228740Y173386D02*
X236752D01*
X238287Y171850D01*
X228740Y170236D02*
X236673D01*
X238287Y171850D01*
X228740Y213386D02*
X236752D01*
X238287Y211850D01*
X228740Y210236D02*
X236673D01*
X238287Y211850D01*
X259311Y210315D02*
X267323D01*
X257776Y211850D02*
X259311Y210315D01*
X259390Y213465D02*
X267323D01*
X257776Y211850D02*
X259390Y213465D01*
X259311Y250315D02*
X267323D01*
X257776Y251850D02*
X259311Y250315D01*
X259390Y253465D02*
X267323D01*
X257776Y251850D02*
X259390Y253465D01*
X228740Y253386D02*
X236752D01*
X238287Y251850D01*
X228740Y250236D02*
X236673D01*
X238287Y251850D01*
X259311Y290315D02*
X267323D01*
X257776Y291850D02*
X259311Y290315D01*
X259390Y293465D02*
X267323D01*
X257776Y291850D02*
X259390Y293465D01*
X228740Y293386D02*
X236752D01*
X238287Y291850D01*
X228740Y290236D02*
X236673D01*
X238287Y291850D01*
X228740Y333386D02*
X236752D01*
X238287Y331850D01*
X228740Y330236D02*
X236673D01*
X238287Y331850D01*
X259311Y330315D02*
X267323D01*
X257776Y331850D02*
X259311Y330315D01*
X259390Y333465D02*
X267323D01*
X257776Y331850D02*
X259390Y333465D01*
X259311Y310315D02*
X267323D01*
X257776Y311850D02*
X259311Y310315D01*
X259390Y313465D02*
X267323D01*
X257776Y311850D02*
X259390Y313465D01*
X236673Y310236D02*
X238287Y311850D01*
X228740Y310236D02*
X236673D01*
X236752Y313386D02*
X238287Y311850D01*
X228740Y313386D02*
X236752D01*
X228828Y343851D02*
X236287D01*
X228741Y343938D02*
X228828Y343851D01*
X228985Y339851D02*
X236288D01*
X228741Y339607D02*
X228985Y339851D01*
X236287Y343851D02*
X238287Y341850D01*
X259469Y343544D02*
X267324D01*
X257776Y341851D02*
X259469Y343544D01*
X259233Y340394D02*
X267324D01*
X228827Y323850D02*
X236286D01*
X228740Y323937D02*
X228827Y323850D01*
X236287Y319850D02*
X238287Y321850D01*
X228984Y319850D02*
X236287D01*
X228740Y319606D02*
X228984Y319850D01*
X257776Y321850D02*
X259469Y323543D01*
X259232Y320394D02*
X267323D01*
X257776Y321850D02*
X259232Y320394D01*
X446063Y251969D02*
X454724D01*
X293700Y255119D02*
X450514D01*
X459449Y251969D02*
X468110D01*
X459449Y245669D02*
X468110D01*
X446063Y270866D02*
X454724D01*
X446063Y280315D02*
X454724D01*
X404865Y321975D02*
X404868Y321978D01*
X409861D01*
X351034Y321992D02*
Y324300D01*
X345276Y321975D02*
X345279Y321978D01*
X349861D01*
X345276Y316417D02*
X347961Y319103D01*
X404865Y316230D02*
X407738Y319103D01*
X338189Y343307D02*
X341043Y340453D01*
Y332713D02*
Y340453D01*
X377176Y361800D02*
X383071Y355906D01*
X377000Y361800D02*
X377176D01*
X398425Y342913D02*
X401043Y340296D01*
Y332713D02*
Y340296D01*
X426378Y319685D02*
X426389Y319674D01*
X430861D01*
X366142Y319685D02*
X366153Y319674D01*
X370861D01*
X382677Y337640D02*
Y337795D01*
X382374Y337337D02*
X382677Y337640D01*
X382374Y336114D02*
Y337337D01*
X381299Y335039D02*
X382374Y336114D01*
X375433Y329961D02*
X375472Y329921D01*
X375433Y329961D02*
Y335000D01*
X375394Y335039D02*
X375433Y335000D01*
X313622Y329961D02*
X313661Y329921D01*
X313622Y329961D02*
Y335000D01*
X313583Y335039D02*
X313622Y335000D01*
X319488Y335039D02*
X319685Y335236D01*
Y337795D01*
X459449Y280315D02*
X468110D01*
X446063Y277165D02*
X454724D01*
X459449D02*
X468110D01*
X459449Y270866D02*
X468110D01*
X446063Y264567D02*
X454724D01*
X459449D02*
X468110D01*
X446063Y245669D02*
X454724D01*
X446063Y239370D02*
X454724D01*
X459449D02*
X468110D01*
X446063Y233071D02*
X454724D01*
X459449D02*
X468110D01*
X446063Y226772D02*
X454724D01*
X459449D02*
X468110D01*
X446063Y220472D02*
X454724D01*
X459449D02*
X468110D01*
X446063Y214173D02*
X454724D01*
X459449D02*
X468110D01*
X446063Y207874D02*
X454724D01*
X459449D02*
X468110D01*
X446063Y201575D02*
X454724D01*
X459449D02*
X468110D01*
X622835Y116537D02*
X622836Y116538D01*
X617324Y116537D02*
X622835D01*
X617324Y116536D02*
X617324Y116537D01*
X622835Y132285D02*
X622836Y132286D01*
X617324Y132285D02*
X622835D01*
X617324Y132284D02*
X617324Y132285D01*
X622835Y141734D02*
X622836Y141735D01*
X617324Y141734D02*
X622835D01*
X617324Y141733D02*
X617324Y141734D01*
X622835Y151183D02*
X622836Y151183D01*
X617324Y151183D02*
X622835D01*
X617324Y151182D02*
X617324Y151183D01*
X622835Y157482D02*
X622836Y157483D01*
X617324Y157482D02*
X622835D01*
X617324Y157481D02*
X617324Y157482D01*
X622835Y163781D02*
X622836Y163782D01*
X617324Y163781D02*
X622835D01*
X617324Y163780D02*
X617324Y163781D01*
X622835Y170080D02*
X622836Y170081D01*
X617324Y170080D02*
X622835D01*
X617324Y170080D02*
X617324Y170080D01*
X622835Y176380D02*
X622836Y176380D01*
X617324Y176380D02*
X622835D01*
X617324Y176379D02*
X617324Y176380D01*
X622835Y182679D02*
X622836Y182679D01*
X617324Y182679D02*
X622835D01*
X617324Y182678D02*
X617324Y182679D01*
X622835Y201576D02*
X622836Y201577D01*
X617324Y201576D02*
X622835D01*
X617324Y201576D02*
X617324Y201576D01*
X622835Y207876D02*
X622836Y207876D01*
X617324Y207876D02*
X622835D01*
X617324Y207875D02*
X617324Y207876D01*
X622835Y214175D02*
X622836Y214176D01*
X617324Y214175D02*
X622835D01*
X617324Y214174D02*
X617324Y214175D01*
X622835Y220474D02*
X622836Y220475D01*
X617324Y220474D02*
X622835D01*
X617324Y220473D02*
X617324Y220474D01*
X622835Y226773D02*
X622836Y226774D01*
X617324Y226773D02*
X622835D01*
X617324Y226772D02*
X617324Y226773D01*
X622835Y233072D02*
X622836Y233073D01*
X617324Y233072D02*
X622835D01*
X617324Y233072D02*
X617324Y233072D01*
X622835Y239372D02*
X622836Y239372D01*
X617324Y239372D02*
X622835D01*
X617324Y239371D02*
X617324Y239372D01*
X622835Y245671D02*
X622836Y245672D01*
X617324Y245671D02*
X622835D01*
X617324Y245670D02*
X617324Y245671D01*
X622835Y251970D02*
X622836Y251971D01*
X617324Y251970D02*
X622835D01*
X617324Y251969D02*
X617324Y251970D01*
X622835Y258269D02*
X622836Y258270D01*
X617324Y258269D02*
X622835D01*
X617324Y258268D02*
X617324Y258269D01*
X622835Y264568D02*
X622836Y264569D01*
X617324Y264568D02*
X622835D01*
X617324Y264568D02*
X617324Y264568D01*
X622835Y270868D02*
X622836Y270868D01*
X617324Y270868D02*
X622835D01*
X617324Y270867D02*
X617324Y270868D01*
X617323Y277165D02*
X617324Y277166D01*
X622835D01*
X622835Y277167D01*
X617323Y280315D02*
X617324Y280316D01*
X622835D01*
X622835Y280316D01*
X459449Y116535D02*
X468110D01*
X446063D02*
X454724D01*
X446063Y132283D02*
X454724D01*
X459449D02*
X468110D01*
X459449Y141732D02*
X468110D01*
X446063D02*
X454724D01*
X459449Y151181D02*
X468110D01*
X446063D02*
X454724D01*
X446063Y157480D02*
X454724D01*
X459449D02*
X468110D01*
X459449Y163779D02*
X468110D01*
X446063D02*
X454724D01*
X446063Y170079D02*
X454724D01*
X459449D02*
X468110D01*
X459449Y182677D02*
X468110D01*
X459449Y176378D02*
X468110D01*
X446063D02*
X454724D01*
X446063Y182677D02*
X454724D01*
X120793Y63849D02*
Y63852D01*
Y63849D02*
X122793Y61849D01*
X129921D01*
X118898Y65748D02*
X120793Y63852D01*
X139049Y63849D02*
Y63852D01*
X137049Y61849D02*
X139049Y63849D01*
X129921Y61849D02*
X137049D01*
X139049Y63852D02*
X140945Y65748D01*
X156921Y131849D02*
X158458Y133386D01*
X128778Y132992D02*
X129921Y131849D01*
X117323Y132992D02*
X128778D01*
X128309Y130236D02*
X129921Y131849D01*
X117323Y130236D02*
X128309D01*
X158458Y133386D02*
X169291D01*
X158534Y130236D02*
X169291D01*
X156921Y131849D02*
X158534Y130236D01*
X156921Y171849D02*
X158458Y173386D01*
X128778Y172992D02*
X129921Y171849D01*
X117323Y172992D02*
X128778D01*
X128309Y170236D02*
X129921Y171849D01*
X117323Y170236D02*
X128309D01*
X158458Y173386D02*
X169291D01*
X158534Y170236D02*
X169291D01*
X156921Y171849D02*
X158534Y170236D01*
X156921Y331849D02*
X158458Y333386D01*
X128778Y332992D02*
X129921Y331849D01*
X117323Y332992D02*
X128778D01*
X128309Y330236D02*
X129921Y331849D01*
X117323Y330236D02*
X128309D01*
X158458Y333386D02*
X169291D01*
X158534Y330236D02*
X169291D01*
X156921Y331849D02*
X158534Y330236D01*
X156921Y311849D02*
X158458Y313386D01*
X128778Y312992D02*
X129921Y311849D01*
X117323Y312992D02*
X128778D01*
X128309Y310236D02*
X129921Y311849D01*
X117323Y310236D02*
X128309D01*
X158458Y313386D02*
X169291D01*
X158534Y310236D02*
X169291D01*
X156921Y311849D02*
X158534Y310236D01*
X156921Y291849D02*
X158458Y293386D01*
X128778Y292992D02*
X129921Y291849D01*
X117323Y292992D02*
X128778D01*
X128309Y290236D02*
X129921Y291849D01*
X117323Y290236D02*
X128309D01*
X158458Y293386D02*
X169291D01*
X158534Y290236D02*
X169291D01*
X156921Y291849D02*
X158534Y290236D01*
X156921Y251849D02*
X158458Y253386D01*
X128778Y252992D02*
X129921Y251849D01*
X117323Y252992D02*
X128778D01*
X128309Y250236D02*
X129921Y251849D01*
X117323Y250236D02*
X128309D01*
X158458Y253386D02*
X169291D01*
X158534Y250236D02*
X169291D01*
X156921Y251849D02*
X158534Y250236D01*
X156921Y211849D02*
X158534Y210236D01*
X169291D01*
X158458Y213386D02*
X169291D01*
X117323Y210236D02*
X128309D01*
X129921Y211849D01*
X117323Y212992D02*
X128778D01*
X129921Y211849D01*
X156921D02*
X158458Y213386D01*
X68939Y231849D02*
X129921D01*
X66142Y234646D02*
X68939Y231849D01*
X61024Y234646D02*
X66142D01*
X55839Y229461D02*
X61024Y234646D01*
X156962Y281890D02*
X168898D01*
X156921Y281849D02*
X156962Y281890D01*
X157117Y271654D02*
X168898D01*
X156921Y271849D02*
X157117Y271654D01*
X157353Y261417D02*
X168898D01*
X156921Y261849D02*
X157353Y261417D01*
X157038Y241732D02*
X168898D01*
X156921Y241849D02*
X157038Y241732D01*
X156962Y231890D02*
X168898D01*
X156921Y231849D02*
X156962Y231890D01*
X157117Y221654D02*
X168898D01*
X156921Y221849D02*
X157117Y221654D01*
X157195Y201575D02*
X168898D01*
X156921Y201849D02*
X157195Y201575D01*
X157038Y191732D02*
X168898D01*
X156921Y191849D02*
X157038Y191732D01*
X156962Y181890D02*
X168898D01*
X156921Y181849D02*
X156962Y181890D01*
X156959Y161811D02*
X168898D01*
X156921Y161849D02*
X156959Y161811D01*
X157195Y151575D02*
X168898D01*
X156921Y151849D02*
X157195Y151575D01*
X157038Y141732D02*
X168898D01*
X156921Y141849D02*
X157038Y141732D01*
X157117Y121653D02*
X168898D01*
X156921Y121849D02*
X157117Y121653D01*
X156959Y111811D02*
X168898D01*
X156921Y111849D02*
X156959Y111811D01*
X157041Y101969D02*
X168898D01*
X156921Y101849D02*
X157041Y101969D01*
X157038Y91732D02*
X168898D01*
X156921Y91849D02*
X157038Y91732D01*
X156962Y81890D02*
X168898D01*
X156921Y81849D02*
X156962Y81890D01*
X157120Y72047D02*
X168898D01*
X156921Y71849D02*
X157120Y72047D01*
X156959Y61811D02*
X168898D01*
X156921Y61849D02*
X156959Y61811D01*
X157041Y51968D02*
X168898D01*
X156921Y51849D02*
X157041Y51968D01*
X46853Y103937D02*
X70333D01*
X40900Y109890D02*
X46853Y103937D01*
X70333D02*
X122421Y51849D01*
X129921D01*
X40900Y120760D02*
X55618D01*
X60630Y115748D01*
X70079D01*
X113978Y71849D01*
X129921D01*
X60630Y126378D02*
X70473D01*
X52081Y134927D02*
X60630Y126378D01*
X70473D02*
X115002Y81849D01*
X52081Y147935D02*
X67419D01*
X112954Y111849D02*
X129921D01*
X66142Y158661D02*
X112954Y111849D01*
X60583Y158661D02*
X66142D01*
X55291Y153370D02*
X60583Y158661D01*
X66929Y169291D02*
X114372Y121849D01*
X60496Y169291D02*
X66929D01*
X55445Y164240D02*
X60496Y169291D01*
X52081Y134927D02*
Y137065D01*
X115002Y81849D02*
X129921D01*
X63262Y142500D02*
X113913Y91849D01*
X129921D01*
X67419Y147935D02*
X113505Y101849D01*
X129921D01*
X40900Y153370D02*
X55291D01*
X40900Y164240D02*
X55445D01*
X114372Y121849D02*
X129921D01*
X63262Y175110D02*
X74890D01*
X108151Y141849D01*
X129921D01*
X52081Y180545D02*
X79297D01*
X107994Y151849D01*
X129921D01*
X52081Y191415D02*
X80238D01*
X109805Y161849D01*
X129921D01*
X112639Y181849D02*
X129921D01*
X93417Y201071D02*
X112639Y181849D01*
X59339Y201071D02*
X93417D01*
X109055Y201575D02*
X129647D01*
X92039Y218591D02*
X109055Y201575D01*
X63262Y218591D02*
X92039D01*
X69490Y221849D02*
X129921D01*
X66535Y224803D02*
X69490Y221849D01*
X66085Y256636D02*
X81298Y271849D01*
X52081Y256636D02*
X66085D01*
X81298Y271849D02*
X129921Y271849D01*
X142580Y287008D02*
X228386D01*
X233543Y281850D01*
X238287D01*
X137421Y281849D02*
X142580Y287008D01*
X129921Y281849D02*
X137421D01*
X142344Y276772D02*
X228622D01*
X233543Y271850D01*
X238287D01*
X137421Y271849D02*
X142344Y276772D01*
X129921Y271849D02*
X137421D01*
X142108Y266535D02*
X228858D01*
X233543Y261850D01*
X238287D01*
X137421Y261849D02*
X142108Y266535D01*
X129921Y261849D02*
X137421D01*
X238287Y241850D02*
X243032D01*
X233543D02*
X238287D01*
X142423Y246850D02*
X228543D01*
X233543Y241850D01*
X137421Y241849D02*
X142423Y246850D01*
X129921Y241849D02*
X137421D01*
X142187Y236614D02*
X228780D01*
X233543Y231850D01*
X238287D01*
X137421Y231849D02*
X142187Y236614D01*
X129921Y231849D02*
X137421D01*
X141950Y226378D02*
X229016D01*
X233543Y221850D01*
X238287D01*
X137421Y221849D02*
X141950Y226378D01*
X129921Y221849D02*
X137421D01*
X142265Y206693D02*
X228701D01*
X233543Y201850D01*
X238287D01*
X137421Y201849D02*
X142265Y206693D01*
X129921Y201849D02*
X137421D01*
X142423Y196850D02*
X228543D01*
X233543Y191850D01*
X238287D01*
X137421Y191849D02*
X142423Y196850D01*
X129921Y191849D02*
X137421D01*
X228780Y186614D02*
X233543Y181850D01*
X238287D01*
X142187Y186614D02*
X228780D01*
X137421Y181849D02*
X142187Y186614D01*
X129921Y181849D02*
X137421D01*
X142502Y166929D02*
X228465D01*
X233543Y161850D01*
X238287D01*
X137421Y161849D02*
X142502Y166929D01*
X129921Y161849D02*
X137421D01*
X142265Y156693D02*
X228701D01*
X233543Y151850D01*
X238287D01*
X137421Y151849D02*
X142265Y156693D01*
X129921Y151849D02*
X137421D01*
X142423Y146850D02*
X228543D01*
X233543Y141850D01*
X238287D01*
X137421Y141849D02*
X142423Y146850D01*
X129921Y141849D02*
X137421D01*
X142344Y126772D02*
X228622D01*
X233543Y121850D01*
X238287D01*
X137421Y121849D02*
X142344Y126772D01*
X129921Y121849D02*
X137421D01*
X142502Y116929D02*
X228465D01*
X233543Y111850D01*
X238287D01*
X137421Y111849D02*
X142502Y116929D01*
X129921Y111849D02*
X137421D01*
X142265Y106693D02*
X228701D01*
X233543Y101850D01*
X238287D01*
X137421Y101849D02*
X142265Y106693D01*
X129921Y101849D02*
X137421D01*
X142423Y96850D02*
X228543D01*
X233543Y91850D01*
X238287D01*
X137421Y91849D02*
X142423Y96850D01*
X129921Y91849D02*
X137421D01*
X142580Y87008D02*
X228386D01*
X233543Y81850D01*
X238287D01*
X137421Y81849D02*
X142580Y87008D01*
X129921Y81849D02*
X137421D01*
X141950Y76378D02*
X229016D01*
X233543Y71850D01*
X238287D01*
X137421Y71849D02*
X141950Y76378D01*
X129921Y71849D02*
X137421D01*
X142265Y56693D02*
X228701D01*
X233543Y51850D01*
X238287D01*
X137421Y51849D02*
X142265Y56693D01*
X129921Y51849D02*
X137421D01*
X272047Y276772D02*
X293700Y255119D01*
X248110Y276772D02*
X272047D01*
X243032Y281850D02*
X248110Y276772D01*
X238287Y281850D02*
X243032D01*
X290550Y248820D02*
X450514D01*
X272441Y256693D02*
X286613Y242520D01*
X248189Y256693D02*
X272441D01*
X286613Y242520D02*
X450514D01*
X272441Y266929D02*
X290550Y248820D01*
X247953Y266929D02*
X272441D01*
X243032Y271850D02*
X247953Y266929D01*
X238287Y271850D02*
X243032D01*
Y261850D02*
X248189Y256693D01*
X238287Y261850D02*
X243032D01*
Y241850D02*
X248661Y236221D01*
X450514D01*
X362206Y229922D02*
X450514D01*
X359055Y226772D02*
X362206Y229922D01*
X248110Y226772D02*
X359055D01*
X243032Y231850D02*
X248110Y226772D01*
X238287Y231850D02*
X243032D01*
X364568Y223623D02*
X450514D01*
X357874Y216929D02*
X364568Y223623D01*
X247953Y216929D02*
X357874D01*
X243032Y221850D02*
X247953Y216929D01*
X238287Y221850D02*
X243032D01*
X366536Y217324D02*
X450514D01*
X355906Y206693D02*
X366536Y217324D01*
X247874Y206693D02*
X355906D01*
X243032Y201850D02*
X247874Y206693D01*
X238287Y201850D02*
X243032D01*
X370079Y211024D02*
X450514D01*
X355906Y196850D02*
X370079Y211024D01*
X248031Y196850D02*
X355906D01*
X243032Y191850D02*
X248031Y196850D01*
X238287Y191850D02*
X243032D01*
X373623Y204725D02*
X450514D01*
X355906Y187008D02*
X373623Y204725D01*
X248189Y187008D02*
X355906D01*
X243032Y181850D02*
X248189Y187008D01*
X238287Y181850D02*
X243032D01*
X344882Y166929D02*
X376379Y198426D01*
X450514D01*
X248110Y166929D02*
X344882D01*
X243032Y161850D02*
X248110Y166929D01*
X238287Y161850D02*
X243032D01*
X344488Y156693D02*
X367324Y179528D01*
X450514D01*
X247874Y156693D02*
X344488D01*
X243032Y151850D02*
X247874Y156693D01*
X238287Y151850D02*
X243032D01*
X344488Y146850D02*
X370867Y173229D01*
X450514D01*
X248031Y146850D02*
X344488D01*
X243032Y141850D02*
X248031Y146850D01*
X238287Y141850D02*
X243032D01*
X334252Y126772D02*
X374410Y166930D01*
X450514D01*
X247953Y126772D02*
X334252D01*
X243032Y121850D02*
X247953Y126772D01*
X238287Y121850D02*
X243032D01*
X335039Y116929D02*
X378741Y160631D01*
X450514D01*
X248110Y116929D02*
X335039D01*
X243032Y111850D02*
X248110Y116929D01*
X238287Y111850D02*
X243032D01*
X257776D02*
X257815Y111811D01*
X266929D01*
X257776Y121850D02*
X257972Y122047D01*
X266929D01*
X335433Y106693D02*
X383072Y154332D01*
X450514D01*
X247874Y106693D02*
X335433D01*
X243032Y101850D02*
X247874Y106693D01*
X238287Y101850D02*
X243032D01*
X390552Y113387D02*
X450514D01*
X333858Y56693D02*
X390552Y113387D01*
X250315Y56693D02*
X333858D01*
X393702Y129135D02*
X450514D01*
X340945Y76378D02*
X393702Y129135D01*
X247559Y76378D02*
X340945D01*
X387402Y135434D02*
X450514D01*
X338583Y86614D02*
X387402Y135434D01*
X247795Y86614D02*
X338583D01*
X377954Y138584D02*
X450514D01*
X336221Y96850D02*
X377954Y138584D01*
X248031Y96850D02*
X336221D01*
X243032Y91850D02*
X248031Y96850D01*
X238287Y91850D02*
X243032D01*
Y81850D02*
X247795Y86614D01*
X238287Y81850D02*
X243032D01*
Y71850D02*
X247559Y76378D01*
X238287Y71850D02*
X243032D01*
X247472Y53850D02*
X250315Y56693D01*
X240287Y53850D02*
X247472D01*
X238287Y51850D02*
X240287Y53850D01*
X257815Y281890D02*
X266929D01*
X257972Y272047D02*
X266929D01*
X257815Y261811D02*
X266929D01*
X257776Y261850D02*
X257815Y261811D01*
Y231890D02*
X266929D01*
X257894Y241732D02*
X266929D01*
X257972Y221654D02*
X266929D01*
X257776Y221850D02*
X257972Y221654D01*
X258051Y201575D02*
X266929D01*
X257894Y191732D02*
X266929D01*
X257815Y181890D02*
X266929D01*
X257776Y181850D02*
X257815Y181890D01*
Y161811D02*
X266929D01*
X258051Y151575D02*
X266929D01*
X257894Y141732D02*
X266929D01*
X257776Y141850D02*
X257894Y141732D01*
Y101969D02*
X266929D01*
X257776Y101850D02*
X257894Y101969D01*
Y91732D02*
X266929D01*
X257776Y91850D02*
X257894Y91732D01*
X257815Y81890D02*
X266929D01*
X257776Y81850D02*
X257815Y81890D01*
X257972Y71653D02*
X266929D01*
X257776Y71850D02*
X257972Y71653D01*
X257815Y61811D02*
X266929D01*
X257776Y61850D02*
X257815Y61811D01*
X55118Y196850D02*
X59339Y201071D01*
X40900Y196850D02*
X55118D01*
X52081Y224026D02*
X52859Y224803D01*
X66535D01*
X110907Y191849D02*
X129921D01*
X95035Y207720D02*
X110907Y191849D01*
X63262Y207720D02*
X95035D01*
X129647Y201575D02*
X129921Y201849D01*
X40900Y262071D02*
X41821Y262992D01*
X55905D01*
X60236Y267323D01*
X64961D01*
X79487Y281849D02*
X129921D01*
X64961Y267323D02*
X79487Y281849D01*
X68781Y241849D02*
X129921D01*
X65748Y244882D02*
X68781Y241849D01*
X59842Y244882D02*
X65748D01*
X76416Y261849D02*
X129921D01*
X65768Y251201D02*
X76416Y261849D01*
X63262Y251201D02*
X65768D01*
X40900Y229461D02*
X55839D01*
X507874Y336614D02*
X508957Y335531D01*
X562992Y336614D02*
X564075Y335531D01*
X55291Y240331D02*
X59842Y244882D01*
X40900Y240331D02*
X55291D01*
X410793Y316446D02*
X420653D01*
X410793Y316273D02*
Y316446D01*
Y311230D02*
Y316273D01*
X420653Y321957D02*
X424235D01*
X396964Y317304D02*
X399523D01*
X410412Y310849D02*
X410793Y311230D01*
X410313Y310750D02*
X410412Y310849D01*
X410707Y310554D01*
X410313Y310947D02*
X410412Y310849D01*
X410707Y308388D02*
Y310554D01*
X396043Y323351D02*
X396460Y322934D01*
X411034Y321992D02*
Y324300D01*
X411023Y321981D02*
X411034Y321992D01*
Y324300D02*
X411043Y332713D01*
X396043Y323351D02*
Y332713D01*
X407738Y319103D02*
X423940D01*
X410313Y310750D02*
Y310947D01*
X401499Y325402D02*
X403468D01*
X406043Y327977D01*
Y332713D01*
X415862Y321957D02*
X416043Y322139D01*
Y332713D01*
X396460Y317808D02*
Y322934D01*
Y317808D02*
X396964Y317304D01*
X399924Y318316D02*
Y323828D01*
X401499Y325402D01*
X424235Y321957D02*
X424334Y321859D01*
X364235Y321957D02*
X364334Y321859D01*
X339925Y323828D02*
X341499Y325402D01*
X339925Y318316D02*
Y323828D01*
X336460Y317808D02*
X336964Y317304D01*
X336460Y317808D02*
Y322934D01*
X356043Y322139D02*
Y332713D01*
X355862Y321957D02*
X356043Y322139D01*
X346043Y327977D02*
Y332713D01*
X343468Y325402D02*
X346043Y327977D01*
X341499Y325402D02*
X343468D01*
X350313Y310750D02*
Y310947D01*
X347961Y319103D02*
X363940D01*
X336043Y323351D02*
Y332713D01*
X351034Y324300D02*
X351043Y332713D01*
X351023Y321981D02*
X351034Y321992D01*
X336043Y323351D02*
X336460Y322934D01*
X350707Y308388D02*
Y310554D01*
X350313Y310947D02*
X350412Y310849D01*
X350707Y310554D01*
X350313Y310750D02*
X350412Y310849D01*
X350794Y311230D01*
X336964Y317304D02*
X339523D01*
X360653Y321957D02*
X364235D01*
X350794Y311230D02*
Y316273D01*
Y316446D01*
X360653D01*
D18*
X381496Y335039D02*
D03*
X375197D02*
D03*
X319685Y335039D02*
D03*
X313386D02*
D03*
D19*
X404865Y316230D02*
D03*
Y321978D02*
D03*
X345276Y316417D02*
D03*
Y322165D02*
D03*
X350783Y322076D02*
D03*
Y316328D02*
D03*
X411023Y316233D02*
D03*
Y321981D02*
D03*
D20*
X622835Y113387D02*
D03*
Y116537D02*
D03*
Y119687D02*
D03*
Y122836D02*
D03*
Y125986D02*
D03*
Y129135D02*
D03*
Y132285D02*
D03*
Y135435D02*
D03*
Y138584D02*
D03*
Y141734D02*
D03*
Y144884D02*
D03*
Y148033D02*
D03*
Y151183D02*
D03*
Y154332D02*
D03*
Y157482D02*
D03*
Y160632D02*
D03*
Y163781D02*
D03*
Y166931D02*
D03*
Y170080D02*
D03*
Y173230D02*
D03*
Y176380D02*
D03*
Y179529D02*
D03*
Y182679D02*
D03*
Y198427D02*
D03*
Y201576D02*
D03*
Y204726D02*
D03*
Y207876D02*
D03*
Y211025D02*
D03*
Y214175D02*
D03*
Y217324D02*
D03*
Y220474D02*
D03*
Y223624D02*
D03*
Y226773D02*
D03*
Y229923D02*
D03*
Y233072D02*
D03*
Y236222D02*
D03*
Y239372D02*
D03*
Y242521D02*
D03*
Y245671D02*
D03*
Y248820D02*
D03*
Y251970D02*
D03*
Y255120D02*
D03*
Y258269D02*
D03*
Y261419D02*
D03*
Y264568D02*
D03*
Y267718D02*
D03*
Y270868D02*
D03*
Y274017D02*
D03*
Y277167D02*
D03*
Y280316D02*
D03*
D21*
X620080Y88781D02*
D03*
Y304923D02*
D03*
D22*
X463900Y113387D02*
D03*
X450514D02*
D03*
X463900Y116536D02*
D03*
X450514D02*
D03*
X463900Y119686D02*
D03*
X450514D02*
D03*
X463900Y122835D02*
D03*
X450514D02*
D03*
X463900Y125985D02*
D03*
X450514D02*
D03*
X463900Y129135D02*
D03*
X450514D02*
D03*
X463900Y132284D02*
D03*
X450514D02*
D03*
X463900Y135434D02*
D03*
X450514D02*
D03*
X463900Y138584D02*
D03*
X450514D02*
D03*
X463900Y141733D02*
D03*
X450514D02*
D03*
X463900Y144883D02*
D03*
X450514D02*
D03*
X463900Y148032D02*
D03*
X450514D02*
D03*
X463900Y151182D02*
D03*
X450514D02*
D03*
X463900Y154332D02*
D03*
X450514D02*
D03*
X463900Y157481D02*
D03*
X450514D02*
D03*
X463900Y160631D02*
D03*
X450514D02*
D03*
X463900Y163780D02*
D03*
X450514D02*
D03*
X463900Y166930D02*
D03*
X450514D02*
D03*
X463900Y170080D02*
D03*
X450514D02*
D03*
X463900Y173229D02*
D03*
X450514D02*
D03*
X463900Y176379D02*
D03*
X450514D02*
D03*
X463900Y179528D02*
D03*
X450514D02*
D03*
X463900Y182678D02*
D03*
X450514D02*
D03*
X463900Y198426D02*
D03*
X450514D02*
D03*
X463900Y201576D02*
D03*
X450514D02*
D03*
X463900Y204725D02*
D03*
X450514D02*
D03*
X463900Y207875D02*
D03*
X450514D02*
D03*
X463900Y211024D02*
D03*
X450514D02*
D03*
X463900Y214174D02*
D03*
X450514D02*
D03*
X463900Y217324D02*
D03*
X450514D02*
D03*
X463900Y220473D02*
D03*
X450514D02*
D03*
X463900Y223623D02*
D03*
X450514D02*
D03*
X463900Y226772D02*
D03*
X450514D02*
D03*
X463900Y229922D02*
D03*
X450514D02*
D03*
X463900Y233072D02*
D03*
X450514D02*
D03*
X463900Y236221D02*
D03*
X450514D02*
D03*
X463900Y239371D02*
D03*
X450514D02*
D03*
X463900Y242520D02*
D03*
X450514D02*
D03*
X463900Y245670D02*
D03*
X450514D02*
D03*
X463900Y248820D02*
D03*
X450514D02*
D03*
X463900Y251969D02*
D03*
X450514D02*
D03*
X463900Y255119D02*
D03*
X450514D02*
D03*
X463900Y258268D02*
D03*
X450514D02*
D03*
X463900Y261418D02*
D03*
X450514D02*
D03*
X463900Y264568D02*
D03*
X450514D02*
D03*
X463900Y267717D02*
D03*
X450514D02*
D03*
X463900Y270867D02*
D03*
X450514D02*
D03*
X463900Y274016D02*
D03*
X450514D02*
D03*
X463900Y277166D02*
D03*
X450514D02*
D03*
X463900Y280316D02*
D03*
X450514D02*
D03*
D23*
X331043Y332713D02*
D03*
X336043D02*
D03*
X341043D02*
D03*
X346043D02*
D03*
X351043D02*
D03*
X356043D02*
D03*
X361043D02*
D03*
X391043D02*
D03*
X396043D02*
D03*
X401043D02*
D03*
X406043D02*
D03*
X411043D02*
D03*
X416043D02*
D03*
X421043D02*
D03*
D24*
X346043Y361473D02*
D03*
X406043D02*
D03*
D25*
X410672Y308387D02*
D03*
X422090D02*
D03*
X350672Y290048D02*
D03*
X362090D02*
D03*
X350672Y299320D02*
D03*
X362090D02*
D03*
X350672Y308387D02*
D03*
X362090D02*
D03*
X338735Y316485D02*
D03*
X327318D02*
D03*
X338735Y307623D02*
D03*
X327318D02*
D03*
X338739Y298761D02*
D03*
X327322D02*
D03*
X338763Y289934D02*
D03*
X327346D02*
D03*
X410672Y290048D02*
D03*
X422090D02*
D03*
X410672Y299320D02*
D03*
X422090D02*
D03*
X398735Y316485D02*
D03*
X387318D02*
D03*
X398735Y307623D02*
D03*
X387318D02*
D03*
X398739Y298761D02*
D03*
X387322D02*
D03*
X398763Y289934D02*
D03*
X387346D02*
D03*
D26*
X320483Y307422D02*
D03*
Y314509D02*
D03*
X380484Y307422D02*
D03*
Y314509D02*
D03*
D27*
X319409Y329921D02*
D03*
X313661D02*
D03*
X381221Y329921D02*
D03*
X375472D02*
D03*
D28*
X360653Y316170D02*
D03*
Y322233D02*
D03*
X355861Y316170D02*
D03*
Y322233D02*
D03*
X420653Y316076D02*
D03*
Y322139D02*
D03*
X415862Y316076D02*
D03*
Y322139D02*
D03*
D29*
X330456Y323119D02*
D03*
X336519D02*
D03*
X390456D02*
D03*
X396519D02*
D03*
D30*
X238287Y341850D02*
D03*
X257776D02*
D03*
X238287Y331850D02*
D03*
X257776D02*
D03*
X238287Y321850D02*
D03*
X257776D02*
D03*
X238287Y311850D02*
D03*
X257776D02*
D03*
X238287Y301850D02*
D03*
X257776D02*
D03*
X238287Y291850D02*
D03*
X257776D02*
D03*
X238287Y281850D02*
D03*
X257776D02*
D03*
X238287Y271850D02*
D03*
X257776D02*
D03*
X238287Y261850D02*
D03*
X257776D02*
D03*
X238287Y251850D02*
D03*
X257776D02*
D03*
X238287Y241850D02*
D03*
X257776D02*
D03*
X238287Y231850D02*
D03*
X257776D02*
D03*
X238287Y221850D02*
D03*
X257776D02*
D03*
X238287Y211850D02*
D03*
X257776D02*
D03*
X238287Y201850D02*
D03*
X257776D02*
D03*
X238287Y191850D02*
D03*
X257776D02*
D03*
X238287Y181850D02*
D03*
X257776D02*
D03*
X238287Y171850D02*
D03*
X257776D02*
D03*
X238287Y161850D02*
D03*
X257776D02*
D03*
X238287Y151850D02*
D03*
X257776D02*
D03*
X238287Y141850D02*
D03*
X257776D02*
D03*
X238287Y131850D02*
D03*
X257776D02*
D03*
X238287Y121850D02*
D03*
X257776D02*
D03*
X238287Y111850D02*
D03*
X257776D02*
D03*
X238287Y101850D02*
D03*
X257776D02*
D03*
X238287Y91850D02*
D03*
X257776D02*
D03*
X238287Y81850D02*
D03*
X257776D02*
D03*
X238287Y71850D02*
D03*
X257776D02*
D03*
X238287Y61850D02*
D03*
X257776D02*
D03*
X238287Y51850D02*
D03*
X257776D02*
D03*
D31*
X129921Y341849D02*
D03*
X156921D02*
D03*
X129921Y331849D02*
D03*
X156921D02*
D03*
X129921Y321849D02*
D03*
X156921D02*
D03*
X129921Y311849D02*
D03*
X156921D02*
D03*
X129921Y301849D02*
D03*
X156921D02*
D03*
X129921Y291849D02*
D03*
X156921D02*
D03*
X129921Y281849D02*
D03*
X156921D02*
D03*
X129921Y271849D02*
D03*
X156921D02*
D03*
X129921Y261849D02*
D03*
X156921D02*
D03*
X129921Y251849D02*
D03*
X156921D02*
D03*
X129921Y241849D02*
D03*
X156921D02*
D03*
X129921Y231849D02*
D03*
X156921D02*
D03*
X129921Y221849D02*
D03*
X156921D02*
D03*
X129921Y211849D02*
D03*
X156921D02*
D03*
X129921Y201849D02*
D03*
X156921D02*
D03*
X129921Y191849D02*
D03*
X156921D02*
D03*
X129921Y181849D02*
D03*
X156921D02*
D03*
X129921Y171849D02*
D03*
X156921D02*
D03*
X129921Y161849D02*
D03*
X156921D02*
D03*
X129921Y151849D02*
D03*
X156921D02*
D03*
X129921Y141849D02*
D03*
X156921D02*
D03*
X129921Y131849D02*
D03*
X156921D02*
D03*
X129921Y121849D02*
D03*
X156921D02*
D03*
X129921Y111849D02*
D03*
X156921D02*
D03*
X129921Y101849D02*
D03*
X156921D02*
D03*
X129921Y91849D02*
D03*
X156921D02*
D03*
X129921Y81849D02*
D03*
X156921D02*
D03*
X129921Y71849D02*
D03*
X156921D02*
D03*
X129921Y61849D02*
D03*
X156921D02*
D03*
X129921Y51849D02*
D03*
X156921D02*
D03*
D32*
X346042Y376316D02*
D03*
X406042D02*
D03*
D33*
X346043Y346632D02*
D03*
X406043Y346632D02*
D03*
D35*
X430861Y319674D02*
D03*
X370861D02*
D03*
D36*
X19685Y19685D02*
D03*
X610236D02*
D03*
Y374016D02*
D03*
X19685D02*
D03*
D37*
X40900Y109890D02*
D03*
Y120760D02*
D03*
Y131630D02*
D03*
Y142500D02*
D03*
Y153370D02*
D03*
Y164240D02*
D03*
Y175110D02*
D03*
Y185980D02*
D03*
Y196850D02*
D03*
Y207720D02*
D03*
Y218591D02*
D03*
Y229461D02*
D03*
Y240331D02*
D03*
Y251201D02*
D03*
Y262071D02*
D03*
Y272941D02*
D03*
Y283811D02*
D03*
X52081Y115325D02*
D03*
Y126195D02*
D03*
Y137065D02*
D03*
Y147935D02*
D03*
Y158805D02*
D03*
Y169675D02*
D03*
Y180545D02*
D03*
Y191415D02*
D03*
Y202285D02*
D03*
Y213156D02*
D03*
Y224026D02*
D03*
Y234896D02*
D03*
Y245766D02*
D03*
Y256636D02*
D03*
Y267506D02*
D03*
Y278376D02*
D03*
X63262Y109890D02*
D03*
Y120760D02*
D03*
Y131630D02*
D03*
Y142500D02*
D03*
Y153370D02*
D03*
Y272941D02*
D03*
Y262071D02*
D03*
Y251201D02*
D03*
Y240331D02*
D03*
Y229461D02*
D03*
Y218591D02*
D03*
Y207720D02*
D03*
Y196850D02*
D03*
Y185980D02*
D03*
Y175110D02*
D03*
Y164240D02*
D03*
D38*
X52081Y76555D02*
D03*
Y317146D02*
D03*
D39*
X63262Y283811D02*
D03*
D40*
X487874Y361653D02*
D03*
X527874D02*
D03*
X487874Y321654D02*
D03*
X527874D02*
D03*
X542992Y361653D02*
D03*
X582992D02*
D03*
X542992Y321654D02*
D03*
X582992D02*
D03*
D41*
X507874Y336614D02*
D03*
X562992D02*
D03*
D43*
X463901Y255118D02*
X468504D01*
X453467Y253544D02*
X472440D01*
X463901Y248819D02*
X468504D01*
X453467Y247245D02*
X618307D01*
X616931Y255120D02*
X622835D01*
X611024Y249213D02*
X616931Y255120D01*
X476772Y249213D02*
X611024D01*
X453467Y215749D02*
X618307D01*
X451892Y217324D02*
X453467Y215749D01*
X450514Y217324D02*
X451892D01*
X618307Y215749D02*
X619883Y217324D01*
X453467Y203150D02*
X618307D01*
X451892Y204725D02*
X453467Y203150D01*
X450514Y204725D02*
X451892D01*
X618307Y203150D02*
X619883Y204726D01*
X453467Y177954D02*
X618307D01*
X463901Y179528D02*
X468504D01*
X453467Y165355D02*
X618307D01*
X451892Y166930D02*
X453467Y165355D01*
X450514Y166930D02*
X451892D01*
X618307Y165355D02*
X619883Y166931D01*
X453543Y146458D02*
X618307D01*
X463901Y144882D02*
X468504D01*
X453543Y143308D02*
X618307D01*
X452460Y144391D02*
X453543Y143308D01*
X451006Y144391D02*
X452460D01*
X463900Y255119D02*
X463901Y255118D01*
X463900Y248820D02*
X463901Y248819D01*
Y242520D02*
X468504D01*
X463900Y242520D02*
X463901Y242520D01*
X463901Y236221D02*
X468504D01*
X463900Y236221D02*
X463901Y236221D01*
Y229921D02*
X468504D01*
X463900Y229922D02*
X463901Y229921D01*
X463901Y223622D02*
X468504D01*
X463900Y223623D02*
X463901Y223622D01*
X463901Y217323D02*
X468504D01*
X463900Y217324D02*
X463901Y217323D01*
Y211024D02*
X468504D01*
X463900Y211024D02*
X463901Y211024D01*
X453467Y209450D02*
X618307D01*
X619883Y211025D01*
X463901Y204724D02*
X468504D01*
X463900Y204725D02*
X463901Y204724D01*
X463901Y198425D02*
X468504D01*
X463900Y198426D02*
X463901Y198425D01*
X463900Y179528D02*
X463901Y179528D01*
X463901Y173228D02*
X468504D01*
X463900Y173229D02*
X463901Y173228D01*
X463901Y166929D02*
X468504D01*
X463900Y166930D02*
X463901Y166929D01*
Y160630D02*
X468504D01*
X463900Y160631D02*
X463901Y160630D01*
X463901Y154331D02*
X468504D01*
X463900Y154332D02*
X463901Y154331D01*
Y148031D02*
X468504D01*
X463900Y148032D02*
X463901Y148031D01*
X463900Y144883D02*
X463901Y144882D01*
X618307Y143308D02*
X619883Y144884D01*
X452460Y147540D02*
X453543Y146458D01*
X619883Y148033D02*
X622835D01*
X450514Y148032D02*
X451006Y147540D01*
X452460D01*
X618307Y146458D02*
X619883Y148033D01*
X463901Y138583D02*
X468504D01*
X463900Y138584D02*
X463901Y138583D01*
X463901Y135433D02*
X468504D01*
X463900Y135434D02*
X463901Y135433D01*
X463901Y129134D02*
X468504D01*
X463900Y129135D02*
X463901Y129134D01*
X463901Y125984D02*
X468504D01*
X463900Y125985D02*
X463901Y125984D01*
X463901Y122835D02*
X468504D01*
X463900Y122835D02*
X463901Y122835D01*
X463901Y119685D02*
X468504D01*
X463900Y119686D02*
X463901Y119685D01*
X463901Y113386D02*
X468504D01*
X463900Y113387D02*
X463901Y113386D01*
X472440Y253544D02*
X476772Y249213D01*
X618307Y247245D02*
X619883Y248820D01*
X622835D01*
X451892Y255119D02*
X453467Y253544D01*
X450514Y255119D02*
X451892D01*
Y248820D02*
X453467Y247245D01*
X450514Y248820D02*
X451892D01*
X453467Y240946D02*
X618307D01*
X619883Y242521D01*
X622835D01*
X451892Y242520D02*
X453467Y240946D01*
X450514Y242520D02*
X451892D01*
X453467Y234647D02*
X618307D01*
X619883Y236222D01*
X622835D01*
X451892Y236221D02*
X453467Y234647D01*
X450514Y236221D02*
X451892D01*
X453467Y228347D02*
X618307D01*
X619883Y229923D01*
X622835D01*
X451892Y229922D02*
X453467Y228347D01*
X450514Y229922D02*
X451892D01*
X453467Y222048D02*
X618307D01*
X619883Y223624D01*
X622835D01*
X451892Y223623D02*
X453467Y222048D01*
X450514Y223623D02*
X451892D01*
X619883Y217324D02*
X622835D01*
X619883Y211025D02*
X622835D01*
X451892Y211024D02*
X453467Y209450D01*
X450514Y211024D02*
X451892D01*
X619883Y204726D02*
X622835D01*
X453861Y196457D02*
X618110D01*
X620080Y198427D01*
X451892Y198426D02*
X453861Y196457D01*
X620080Y198427D02*
X622835D01*
X450514Y198426D02*
X451892D01*
X618307Y177954D02*
X619883Y179529D01*
X622835D01*
X451892Y179528D02*
X453467Y177954D01*
X450514Y179528D02*
X451892D01*
X453937Y111417D02*
X617913D01*
X451968Y113387D02*
X453937Y111417D01*
X450514Y113387D02*
X451968D01*
X453543Y118111D02*
X618307D01*
X452460Y119194D02*
X453543Y118111D01*
X451006Y119194D02*
X452460D01*
X453543Y121261D02*
X618307D01*
X452460Y122343D02*
X453543Y121261D01*
X451006Y122343D02*
X452460D01*
X453543Y124410D02*
X618307D01*
X452460Y125493D02*
X453543Y124410D01*
X451006Y125493D02*
X452460D01*
X453543Y127560D02*
X618307D01*
X452460Y128642D02*
X453543Y127560D01*
X451006Y128642D02*
X452460D01*
X453543Y133859D02*
X618307D01*
X452460Y134942D02*
X453543Y133859D01*
X451006Y134942D02*
X452460D01*
X453543Y137009D02*
X618307D01*
X452460Y138091D02*
X453543Y137009D01*
X451006Y138091D02*
X452460D01*
X453467Y171654D02*
X618307D01*
X619883Y173230D01*
X622835D01*
X451892Y173229D02*
X453467Y171654D01*
X450514Y173229D02*
X451892D01*
X619883Y166931D02*
X622835D01*
X453467Y159056D02*
X618307D01*
X619883Y160632D01*
X622835D01*
X451892Y160631D02*
X453467Y159056D01*
X450514Y160631D02*
X451892D01*
X453467Y152757D02*
X618307D01*
X619883Y154332D01*
X622835D01*
X451892Y154332D02*
X453467Y152757D01*
X450514Y154332D02*
X451892D01*
X619883Y144884D02*
X622835D01*
X450514Y144883D02*
X451006Y144391D01*
X618307Y137009D02*
X619883Y138584D01*
X622835D01*
X450514Y138584D02*
X451006Y138091D01*
X618307Y133859D02*
X619883Y135435D01*
X622835D01*
X450514Y135434D02*
X451006Y134942D01*
X618307Y127560D02*
X619883Y129135D01*
X622835D01*
X618307Y124410D02*
X619883Y125986D01*
X450514Y129135D02*
X451006Y128642D01*
X619883Y125986D02*
X622835D01*
X450514Y125985D02*
X451006Y125493D01*
X618307Y121261D02*
X619883Y122836D01*
X622835D01*
X450514Y122835D02*
X451006Y122343D01*
X618307Y118111D02*
X619883Y119687D01*
X622835D01*
X450514Y119686D02*
X451006Y119194D01*
X617913Y111417D02*
X619883Y113387D01*
X622835D01*
D44*
X361676Y289635D02*
X362090Y290048D01*
X361676Y284117D02*
Y289635D01*
X358661Y281102D02*
X361676Y284117D01*
X342369Y281102D02*
X358661D01*
X336464Y275197D02*
X342369Y281102D01*
X440158Y303543D02*
X464400Y327786D01*
Y344500D01*
X440158Y276378D02*
Y303543D01*
X432283Y268504D02*
X440158Y276378D01*
X387795Y268504D02*
X432283D01*
X381102Y275197D02*
X387795Y268504D01*
X355906Y275197D02*
X381102D01*
X434252Y305906D02*
X454400Y326054D01*
Y344500D01*
X434252Y281890D02*
Y305906D01*
X427559Y275197D02*
X434252Y281890D01*
X415748Y275197D02*
X427559D01*
X422047Y284252D02*
Y290005D01*
X422090Y290048D01*
X418898Y281102D02*
X422047Y284252D01*
X402212Y281102D02*
X418898D01*
X396306Y275197D02*
X402212Y281102D01*
X395748Y275197D02*
X396306D01*
X335906D02*
X336464D01*
D45*
X257894Y51968D02*
X266929D01*
X257776Y51850D02*
X257894Y51968D01*
D46*
X405748Y275197D02*
D03*
X415748D02*
D03*
X395748D02*
D03*
X345905D02*
D03*
X355906D02*
D03*
X335906D02*
D03*
X506693Y270472D02*
D03*
X496693D02*
D03*
X516693D02*
D03*
X506693Y287402D02*
D03*
X496693D02*
D03*
X516693D02*
D03*
X506693Y253543D02*
D03*
X496693D02*
D03*
X516693D02*
D03*
X377000Y361800D02*
D03*
Y351800D02*
D03*
Y371800D02*
D03*
X316600Y362800D02*
D03*
Y352800D02*
D03*
Y372800D02*
D03*
X444400Y354500D02*
D03*
X454400D02*
D03*
X464400D02*
D03*
X444400Y344500D02*
D03*
X454400D02*
D03*
X464400D02*
D03*
D47*
X617324Y261418D02*
D03*
Y267717D02*
D03*
Y274016D02*
D03*
X454724Y258268D02*
D03*
X446063D02*
D03*
X468110D02*
D03*
X459449D02*
D03*
X454724Y251969D02*
D03*
X446063D02*
D03*
X468110D02*
D03*
Y245669D02*
D03*
X446063Y270866D02*
D03*
Y280315D02*
D03*
X454724D02*
D03*
X459449D02*
D03*
X468110D02*
D03*
X446063Y277165D02*
D03*
X454724D02*
D03*
X459449D02*
D03*
X468110D02*
D03*
X454724Y270866D02*
D03*
X459449D02*
D03*
X468110D02*
D03*
X446063Y264567D02*
D03*
X454724D02*
D03*
X459449D02*
D03*
X468110D02*
D03*
X459449Y251969D02*
D03*
X446063Y245669D02*
D03*
X454724D02*
D03*
X459449D02*
D03*
X446063Y239370D02*
D03*
X454724D02*
D03*
X459449D02*
D03*
X468110D02*
D03*
X446063Y233071D02*
D03*
X454724D02*
D03*
X459449D02*
D03*
X468110D02*
D03*
X446063Y226772D02*
D03*
X454724D02*
D03*
X459449D02*
D03*
X468110D02*
D03*
X446063Y220472D02*
D03*
X454724D02*
D03*
X459449D02*
D03*
X468110D02*
D03*
X446063Y214173D02*
D03*
X454724D02*
D03*
X459449D02*
D03*
X468110D02*
D03*
X446063Y207874D02*
D03*
X454724D02*
D03*
X459449D02*
D03*
X468110D02*
D03*
X446063Y201575D02*
D03*
X454724D02*
D03*
X459449D02*
D03*
X468110D02*
D03*
X617324Y116536D02*
D03*
Y132284D02*
D03*
Y141733D02*
D03*
Y151182D02*
D03*
Y157481D02*
D03*
Y163780D02*
D03*
Y170080D02*
D03*
Y176379D02*
D03*
Y182678D02*
D03*
Y201576D02*
D03*
Y207875D02*
D03*
Y214174D02*
D03*
Y220473D02*
D03*
Y226772D02*
D03*
Y233072D02*
D03*
Y239371D02*
D03*
Y245670D02*
D03*
Y251969D02*
D03*
Y258268D02*
D03*
Y264568D02*
D03*
Y270867D02*
D03*
X617323Y277165D02*
D03*
Y280315D02*
D03*
X468110Y116535D02*
D03*
X459449D02*
D03*
X454724D02*
D03*
X446063D02*
D03*
X454724Y132283D02*
D03*
X446063D02*
D03*
X468110D02*
D03*
X459449D02*
D03*
X468110Y141732D02*
D03*
X459449D02*
D03*
X454724D02*
D03*
X446063D02*
D03*
X468110Y151181D02*
D03*
X459449D02*
D03*
X454724D02*
D03*
X446063D02*
D03*
X454724Y157480D02*
D03*
X446063D02*
D03*
X468110D02*
D03*
X459449D02*
D03*
X468110Y163779D02*
D03*
X459449D02*
D03*
X454724D02*
D03*
X446063D02*
D03*
X454724Y170079D02*
D03*
X446063D02*
D03*
X468110D02*
D03*
X459449D02*
D03*
X468110Y182677D02*
D03*
X459449D02*
D03*
X468110Y176378D02*
D03*
X459449D02*
D03*
X446063D02*
D03*
X454724D02*
D03*
Y182677D02*
D03*
X446063D02*
D03*
D48*
X429528Y329921D02*
D03*
X383465D02*
D03*
X369685D02*
D03*
X322047D02*
D03*
X468504Y255118D02*
D03*
Y248819D02*
D03*
X382677Y337795D02*
D03*
X319685D02*
D03*
X168898Y281890D02*
D03*
Y271654D02*
D03*
Y261417D02*
D03*
Y241732D02*
D03*
Y231890D02*
D03*
Y221654D02*
D03*
Y201575D02*
D03*
Y191732D02*
D03*
Y181890D02*
D03*
Y161811D02*
D03*
Y151575D02*
D03*
Y141732D02*
D03*
Y121653D02*
D03*
Y111811D02*
D03*
Y101969D02*
D03*
Y91732D02*
D03*
Y81890D02*
D03*
Y72047D02*
D03*
Y61811D02*
D03*
Y51968D02*
D03*
X468504Y179528D02*
D03*
Y144882D02*
D03*
X266929Y281890D02*
D03*
Y272047D02*
D03*
Y261811D02*
D03*
Y231890D02*
D03*
Y241732D02*
D03*
Y221654D02*
D03*
Y201575D02*
D03*
Y191732D02*
D03*
Y181890D02*
D03*
Y161811D02*
D03*
Y151575D02*
D03*
Y141732D02*
D03*
Y122047D02*
D03*
Y111811D02*
D03*
Y101969D02*
D03*
Y91732D02*
D03*
Y81890D02*
D03*
Y71653D02*
D03*
Y61811D02*
D03*
Y51968D02*
D03*
X468504Y242520D02*
D03*
Y236221D02*
D03*
Y229921D02*
D03*
Y223622D02*
D03*
Y217323D02*
D03*
Y211024D02*
D03*
Y204724D02*
D03*
Y198425D02*
D03*
Y173228D02*
D03*
Y166929D02*
D03*
Y160630D02*
D03*
Y154331D02*
D03*
Y148031D02*
D03*
Y138583D02*
D03*
Y135433D02*
D03*
Y129134D02*
D03*
Y125984D02*
D03*
Y122835D02*
D03*
Y119685D02*
D03*
Y113386D02*
D03*
D49*
X343202Y310799D02*
D03*
X346702Y305799D02*
D03*
X343202Y307549D02*
D03*
X346702Y302299D02*
D03*
X343202Y304299D02*
D03*
X391102Y377165D02*
D03*
X388740Y374803D02*
D03*
X386378Y377165D02*
D03*
X388740Y379528D02*
D03*
X386378Y372441D02*
D03*
X388740Y370079D02*
D03*
X391102Y372441D02*
D03*
X386378Y367717D02*
D03*
X388740Y365354D02*
D03*
X391102Y367717D02*
D03*
X386378Y362992D02*
D03*
X388740Y360630D02*
D03*
X391102Y362992D02*
D03*
X386378Y358268D02*
D03*
X388740Y355906D02*
D03*
X391102Y358268D02*
D03*
X388740Y351181D02*
D03*
X391102Y353543D02*
D03*
X386378D02*
D03*
Y348819D02*
D03*
X388740Y346457D02*
D03*
X391102Y348819D02*
D03*
X421003Y377221D02*
D03*
X423366Y379584D02*
D03*
X425728Y377221D02*
D03*
Y372497D02*
D03*
X421003D02*
D03*
X423366Y374859D02*
D03*
X421003Y367772D02*
D03*
X423366Y370135D02*
D03*
X425728Y367772D02*
D03*
X421003Y363048D02*
D03*
X423366Y365410D02*
D03*
X425728Y363048D02*
D03*
X421003Y358324D02*
D03*
X423366Y360686D02*
D03*
X425728Y358324D02*
D03*
X421003Y353599D02*
D03*
X423366Y355961D02*
D03*
X425728Y353599D02*
D03*
X423366Y346513D02*
D03*
X425728Y348875D02*
D03*
X423366Y351237D02*
D03*
X421003Y348875D02*
D03*
X361003D02*
D03*
X363366Y351237D02*
D03*
X365728Y348875D02*
D03*
X363366Y346513D02*
D03*
X365728Y353599D02*
D03*
X363366Y355961D02*
D03*
X361003Y353599D02*
D03*
X365728Y358324D02*
D03*
X363366Y360686D02*
D03*
X361003Y358324D02*
D03*
X365728Y363048D02*
D03*
X363366Y365410D02*
D03*
X361003Y363048D02*
D03*
X365728Y367772D02*
D03*
X363366Y370135D02*
D03*
X361003Y367772D02*
D03*
X363366Y374859D02*
D03*
X361003Y372497D02*
D03*
X365728D02*
D03*
Y377221D02*
D03*
X363366Y379584D02*
D03*
X361003Y377221D02*
D03*
X331102Y348819D02*
D03*
X328740Y346457D02*
D03*
X326378Y348819D02*
D03*
Y353543D02*
D03*
X331102D02*
D03*
X328740Y351181D02*
D03*
X331102Y358268D02*
D03*
X328740Y355906D02*
D03*
X326378Y358268D02*
D03*
X331102Y362992D02*
D03*
X328740Y360630D02*
D03*
X326378Y362992D02*
D03*
X331102Y367717D02*
D03*
X328740Y365354D02*
D03*
X326378Y367717D02*
D03*
X331102Y372441D02*
D03*
X328740Y370079D02*
D03*
X326378Y372441D02*
D03*
X328740Y379528D02*
D03*
X326378Y377165D02*
D03*
X328740Y374803D02*
D03*
X331102Y377165D02*
D03*
X323071Y318110D02*
D03*
X320315D02*
D03*
X317559D02*
D03*
X377559D02*
D03*
X380315D02*
D03*
X383071D02*
D03*
X267323Y323622D02*
D03*
Y300394D02*
D03*
Y303543D02*
D03*
X228740Y303937D02*
D03*
Y299606D02*
D03*
Y64173D02*
D03*
Y59449D02*
D03*
Y133386D02*
D03*
Y130236D02*
D03*
X267323Y130315D02*
D03*
Y133465D02*
D03*
Y170315D02*
D03*
Y173465D02*
D03*
X228740Y173386D02*
D03*
Y170236D02*
D03*
Y213386D02*
D03*
Y210236D02*
D03*
X267323Y210315D02*
D03*
Y213465D02*
D03*
Y250315D02*
D03*
Y253465D02*
D03*
X228740Y253386D02*
D03*
Y250236D02*
D03*
X267323Y290315D02*
D03*
Y293465D02*
D03*
X228740Y293386D02*
D03*
Y290236D02*
D03*
Y333386D02*
D03*
Y330236D02*
D03*
X267323Y330315D02*
D03*
Y333465D02*
D03*
Y310315D02*
D03*
Y313465D02*
D03*
X267324Y343544D02*
D03*
Y340394D02*
D03*
X228741Y343938D02*
D03*
Y339607D02*
D03*
X267323Y320394D02*
D03*
X228740Y323937D02*
D03*
Y319606D02*
D03*
Y310236D02*
D03*
Y313386D02*
D03*
X118898Y65748D02*
D03*
X140945D02*
D03*
X117323Y132992D02*
D03*
Y130236D02*
D03*
X169291Y133386D02*
D03*
Y130236D02*
D03*
X117323Y172992D02*
D03*
Y170236D02*
D03*
X169291Y173386D02*
D03*
Y170236D02*
D03*
X117323Y332992D02*
D03*
Y330236D02*
D03*
X169291Y333386D02*
D03*
Y330236D02*
D03*
X117323Y312992D02*
D03*
Y310236D02*
D03*
X169291Y313386D02*
D03*
Y310236D02*
D03*
X117323Y292992D02*
D03*
Y290236D02*
D03*
X169291Y293386D02*
D03*
Y290236D02*
D03*
X117323Y252992D02*
D03*
Y250236D02*
D03*
X169291Y253386D02*
D03*
Y250236D02*
D03*
Y210236D02*
D03*
Y213386D02*
D03*
X117323Y210236D02*
D03*
Y212992D02*
D03*
X343202Y301049D02*
D03*
Y297799D02*
D03*
X346702Y308799D02*
D03*
Y298799D02*
D03*
X348044Y314303D02*
D03*
X403202Y310799D02*
D03*
Y307549D02*
D03*
Y304299D02*
D03*
Y301049D02*
D03*
Y297799D02*
D03*
X406702Y308799D02*
D03*
Y305799D02*
D03*
Y302299D02*
D03*
Y298799D02*
D03*
X408044Y314303D02*
D03*
M02*
